<svg width="1440" height="468" viewBox="0 0 1440 468" fill="none" xmlns="http://www.w3.org/2000/svg">
<path fill-rule="evenodd" clip-rule="evenodd" d="M0 54.3943L60 69.578C120 84.2381 240 114.605 360 118.27C480 121.935 600 99.4217 720 76.908C840 54.3943 960 31.8807 1080 42.8757C1200 54.3943 1320 99.4217 1380 121.935L1440 144.973V190H1380C1320 190 1200 190 1080 190C960 190 840 190 720 190C600 190 480 190 360 190C240 190 120 190 60 190H0V54.3943Z" fill="white" fill-opacity="0.4"/>
<path fill-rule="evenodd" clip-rule="evenodd" d="M0 101.97L60 116.726C120 131.483 240 160.487 360 142.168C480 123.85 600 58.2089 720 43.4523C840 28.6958 960 65.3327 1080 76.5273C1200 87.2131 1320 72.9654 1380 65.3327L1440 58.2089V190H1380C1320 190 1200 190 1080 190C960 190 840 190 720 190C600 190 480 190 360 190C240 190 120 190 60 190H0V101.97Z" fill="white" fill-opacity="0.4"/>
<path fill-rule="evenodd" clip-rule="evenodd" d="M0 107.919L60 97.1546C120 86.3898 240 65.3495 360 72.6892C480 79.5395 600 114.77 720 100.58C840 86.3898 960 23.269 1080 5.65385C1200 -11.9613 1320 15.9293 1380 30.1193L1440 44.3093V150H1380C1320 150 1200 150 1080 150C960 150 840 150 720 150C600 150 480 150 360 150C240 150 120 150 60 150H0V107.919Z" fill="white" fill-opacity="0.4"/>
<path fill-rule="evenodd" clip-rule="evenodd" d="M0 91.8479L80 105.076C160 118.935 320 146.022 480 141.612C640 137.203 800 100.667 960 87.4384C1120 73.5799 1280 82.3989 1360 87.4384L1440 91.8479V255H1360C1280 255 1120 255 960 255C800 255 640 255 480 255C320 255 160 255 80 255H0V91.8479Z" fill="white"/>
<rect y="255" width="1440" height="213" fill="white"/>
</svg>
