<svg width="112" height="100" viewBox="0 0 112 100" fill="none" xmlns="http://www.w3.org/2000/svg">
<path d="M56 100C86.781 100 111.734 86.8048 111.734 70.5274C111.734 54.2501 86.781 41.0547 56 41.0547C25.2191 41.0547 0.266235 54.2501 0.266235 70.5274C0.266235 86.8048 25.2191 100 56 100Z" fill="#F5F5F5"/>
<path d="M25.018 83.3463C34.3428 83.3463 41.9021 78.9815 41.9021 73.5972C41.9021 68.2129 34.3428 63.8481 25.018 63.8481C15.6932 63.8481 8.13391 68.2129 8.13391 73.5972C8.13391 78.9815 15.6932 83.3463 25.018 83.3463Z" fill="#E0E0E0"/>
<path d="M87.8728 86.0394C97.0923 86.0394 104.566 81.7131 104.566 76.3764C104.566 71.0397 97.0923 66.7134 87.8728 66.7134C78.6533 66.7134 71.1794 71.0397 71.1794 76.3764C71.1794 81.7131 78.6533 86.0394 87.8728 86.0394Z" fill="#E0E0E0"/>
<path d="M95.6848 64.2104C95.6848 64.2104 94.915 60.3778 95.8266 56.9149C96.7383 53.452 98.6802 50.8496 100.973 49.9031C103.266 48.9566 105.857 50.5101 103.824 52.8125C101.792 55.1149 97.8058 58.08 97.5453 64.3174L95.6848 64.2104Z" fill="#BA68C8"/>
<path opacity="0.15" d="M95.6848 64.2104C95.6848 64.2104 94.915 60.3778 95.8266 56.9149C96.7383 53.452 98.6802 50.8496 100.973 49.9031C103.266 48.9566 105.857 50.5101 103.824 52.8125C101.792 55.1149 97.8058 58.08 97.5453 64.3174L95.6848 64.2104Z" fill="black"/>
<path d="M96.0637 63.0266H96.0382C96.0207 63.0254 96.0037 63.0208 95.9881 63.013C95.9724 63.0052 95.9585 62.9944 95.947 62.9812C95.9356 62.9681 95.9269 62.9527 95.9213 62.9362C95.9158 62.9196 95.9136 62.9021 95.9149 62.8847C96.4265 55.9566 100.334 51.8728 102.32 50.6798C102.335 50.6709 102.352 50.6651 102.369 50.6628C102.387 50.6605 102.405 50.6616 102.422 50.6661C102.439 50.6707 102.455 50.6785 102.469 50.6892C102.483 50.7 102.495 50.7133 102.503 50.7286C102.512 50.7439 102.518 50.7607 102.52 50.7782C102.523 50.7957 102.522 50.8135 102.517 50.8306C102.513 50.8476 102.505 50.8636 102.494 50.8777C102.483 50.8917 102.47 50.9035 102.455 50.9123C100.503 52.0751 96.6824 56.0892 96.1754 62.9103C96.1721 62.9392 96.1594 62.9663 96.1393 62.9873C96.1191 63.0083 96.0925 63.0221 96.0637 63.0266Z" fill="white"/>
<path d="M97.7824 68.0872C97.7237 67.4539 97.5561 66.8355 97.2871 66.2592C97.0103 65.6406 96.501 65.0964 96.3406 64.4289C96.2508 63.8463 96.3955 63.2518 96.7429 62.7754C97.0662 62.3219 97.5359 61.9568 97.7104 61.4289C97.8848 60.901 97.7104 60.2986 97.7383 59.7288C97.766 59.0988 98.0373 58.5041 98.495 58.0702C98.9528 57.6363 99.5611 57.3972 100.192 57.4032C100.778 57.4032 101.338 57.6358 101.903 57.7846C102.471 57.9715 103.083 57.9715 103.65 57.7846C104.262 57.5424 104.891 57.3495 105.534 57.2079C106.631 56.9985 108.092 57.1032 108.687 58.1962C108.85 58.4608 108.921 58.7712 108.89 59.08V59.1195C108.722 59.9684 107.752 60.3242 107.18 60.8358C107.025 60.9754 106.759 61.1824 106.734 61.4103C106.708 61.6382 106.948 61.894 107.078 62.0754C107.411 62.5405 107.843 62.9638 107.985 63.5336C108.19 64.3522 107.652 65.2778 107.027 65.7639C106.408 66.2027 105.688 66.4779 104.934 66.5639C104.562 66.6197 104.152 66.6639 103.892 66.936C103.786 67.0612 103.707 67.2072 103.661 67.3646C103.615 67.5221 103.603 67.6874 103.624 67.85C103.645 68.1779 103.738 68.4965 103.769 68.8221C103.804 69.3412 103.699 69.8603 103.465 70.325C103.231 70.7898 102.876 71.1831 102.438 71.464C101.705 71.9175 100.826 72.0762 99.9802 71.9082C99.2825 71.7803 98.5848 71.1105 98.3313 70.457C98.0407 69.6959 97.856 68.8985 97.7824 68.0872Z" fill="#BA68C8"/>
<path d="M98.4103 69.9222C98.3939 69.9234 98.3773 69.9213 98.3617 69.916C98.3461 69.9106 98.3318 69.9021 98.3196 69.891C98.3074 69.8799 98.2976 69.8664 98.2908 69.8514C98.284 69.8363 98.2803 69.8201 98.2801 69.8036C97.8777 61.9871 105.108 58.501 106.92 58.0568C106.952 58.0496 106.985 58.0551 107.014 58.0719C107.042 58.0888 107.062 58.1159 107.071 58.1475C107.079 58.1796 107.074 58.2134 107.057 58.2417C107.04 58.27 107.012 58.2904 106.98 58.2987C105.208 58.7336 98.1429 62.1429 98.5266 69.7919C98.5279 69.8245 98.5165 69.8563 98.4948 69.8806C98.4731 69.9049 98.4428 69.9198 98.4103 69.9222Z" fill="white"/>
<path d="M105.643 63.5683C105.618 63.5715 105.593 63.5666 105.571 63.5543C104.677 63.1742 103.71 62.9961 102.739 63.0327C101.768 63.0693 100.818 63.3196 99.9547 63.766C99.9394 63.7733 99.9229 63.7775 99.9059 63.7785C99.889 63.7794 99.8721 63.777 99.8561 63.7714C99.8401 63.7658 99.8254 63.757 99.8128 63.7457C99.8002 63.7344 99.7899 63.7208 99.7826 63.7055C99.7753 63.6902 99.771 63.6737 99.7701 63.6568C99.7692 63.6398 99.7716 63.6229 99.7772 63.6069C99.7828 63.5909 99.7915 63.5762 99.8028 63.5636C99.8141 63.551 99.8278 63.5407 99.8431 63.5334C100.741 63.0695 101.731 62.8101 102.741 62.7739C103.751 62.7377 104.756 62.9256 105.685 63.3241C105.714 63.3395 105.736 63.3656 105.746 63.3969C105.756 63.4282 105.753 63.4622 105.739 63.4915C105.731 63.5115 105.718 63.5291 105.701 63.5426C105.684 63.556 105.664 63.5649 105.643 63.5683Z" fill="white"/>
<path d="M15.7225 61.0432C16.0039 59.2432 15.8922 56.1454 14.5015 52.8918C13.0131 49.4034 10.7805 46.915 8.57811 47.3103C6.52923 47.6708 6.6176 50.3988 9.20371 53.6919C11.0177 56.0012 13.0922 58.6129 13.6712 61.6967L14.541 65.9759L15.7225 61.0432Z" fill="#BA68C8"/>
<g opacity="0.15">
<path d="M15.7225 61.0432C16.0039 59.2432 15.8922 56.1454 14.5015 52.8918C13.0131 49.4034 10.7805 46.915 8.57811 47.3103C6.52923 47.6708 6.6176 50.3988 9.20371 53.6919C11.0177 56.0012 13.0922 58.6129 13.6712 61.6967L14.541 65.9759L15.7225 61.0432Z" fill="black"/>
</g>
<path d="M15.2202 62.3476C15.1947 62.3408 15.1717 62.3266 15.1543 62.3067C15.1369 62.2868 15.1258 62.2622 15.1225 62.236C14.5202 56.9103 12.0039 51.0729 9.27356 48.638C9.24983 48.6133 9.23657 48.5804 9.23657 48.5461C9.23657 48.5119 9.24983 48.4789 9.27356 48.4543C9.28529 48.442 9.29937 48.4323 9.31495 48.4256C9.33054 48.419 9.34731 48.4155 9.36426 48.4155C9.38121 48.4155 9.39799 48.419 9.41357 48.4256C9.42916 48.4323 9.44324 48.442 9.45496 48.4543C12.2294 50.9171 14.7807 56.8265 15.39 62.215C15.3922 62.232 15.3911 62.2493 15.3865 62.2658C15.382 62.2824 15.3742 62.2978 15.3635 62.3113C15.3529 62.3247 15.3397 62.3359 15.3247 62.3441C15.3096 62.3524 15.2931 62.3575 15.276 62.3592L15.2202 62.3476Z" fill="white"/>
<path d="M13.455 70.6245C13.3108 70.6733 13.1573 70.6989 12.9899 70.7524C12.2611 70.996 11.5049 71.1483 10.7387 71.2059C9.23629 71.2943 7.65486 70.9733 6.45251 70.0268C6.20367 69.8338 5.9525 69.5454 6.0339 69.2431C6.09436 69.0105 6.31995 68.8733 6.52693 68.757L9.52467 67.0895L5.85715 67.3756C5.61781 67.4116 5.37352 67.3957 5.14085 67.3291C4.83605 67.1821 4.59009 66.9362 4.44316 66.6314C4.17956 66.1866 3.97844 65.7077 3.84548 65.2081C3.77338 64.9337 3.73617 64.5988 3.9385 64.3988C4.04374 64.3092 4.16896 64.2462 4.30363 64.2151C5.57049 63.8216 6.87685 63.5689 8.19906 63.4616C6.93392 62.9708 5.56412 62.908 4.22688 62.8034C4.13089 62.803 4.03597 62.7832 3.9478 62.7453C3.73617 62.6383 3.68036 62.3662 3.65942 62.1313C3.52221 60.5847 3.9199 59.0056 4.07571 57.48C4.12688 56.9823 4.18269 57.0009 4.64084 57.0637C6.71066 57.3521 8.63163 57.9056 10.6433 58.4219C10.8748 58.456 11.0893 58.5636 11.2549 58.7289C11.3264 58.8449 11.3738 58.9739 11.3946 59.1085C11.4154 59.2431 11.409 59.3805 11.3759 59.5126C11.2726 60.2698 11.0463 61.0051 10.7061 61.6894C11.2829 61.1941 11.757 60.5904 12.1015 59.9126C12.165 59.7385 12.2865 59.5914 12.4457 59.4963C12.5509 59.4713 12.6605 59.4711 12.7659 59.4957C12.8712 59.5203 12.9694 59.5691 13.0527 59.6382C15.7341 61.3313 15.762 64.6546 15.2271 67.4361C15.2015 67.5733 15.1736 67.7105 15.1457 67.8477C15.0577 68.4116 14.8636 68.9538 14.5736 69.4454C14.3673 69.7974 14.1181 70.1223 13.8317 70.4129C13.7238 70.511 13.595 70.5834 13.455 70.6245Z" fill="#BA68C8"/>
<path d="M13.2898 70.9968C13.267 70.9882 13.2471 70.9734 13.2323 70.9541C13.2175 70.9348 13.2084 70.9117 13.206 70.8875C12.8363 66.6293 7.97336 60.0059 5.83378 58.6826C5.81937 58.6738 5.80685 58.6622 5.79694 58.6485C5.78702 58.6348 5.77992 58.6193 5.77603 58.6029C5.77213 58.5865 5.77153 58.5694 5.77426 58.5528C5.77699 58.5361 5.78299 58.5202 5.79192 58.5058C5.81055 58.477 5.83962 58.4566 5.87301 58.4488C5.9064 58.441 5.94152 58.4464 5.97099 58.464C8.14546 59.8082 13.0874 66.5386 13.4642 70.8642C13.4658 70.8812 13.4639 70.8984 13.4588 70.9146C13.4537 70.9309 13.4453 70.946 13.4343 70.959C13.4232 70.972 13.4097 70.9827 13.3945 70.9904C13.3792 70.998 13.3626 71.0026 13.3456 71.0038C13.3267 71.0061 13.3075 71.0037 13.2898 70.9968Z" fill="white"/>
<path d="M66.1654 18.5815C65.7259 18.3141 65.1328 18.1536 64.7026 17.9536C64.3793 17.8024 63.9514 17.6792 63.8281 17.3047C63.7831 17.1435 63.7612 16.9767 63.763 16.8094C63.7649 16.6432 63.7382 16.478 63.6839 16.321C63.6216 16.2086 63.571 16.0902 63.5328 15.9675C63.5219 15.8098 63.5432 15.6515 63.5956 15.5024C63.6277 15.3562 63.6147 15.2038 63.5584 15.0651C63.5049 14.9064 63.4952 14.7362 63.5304 14.5725C63.5656 14.4088 63.6444 14.2576 63.7584 14.1349C63.8239 14.0752 63.8831 14.009 63.9351 13.9372C64.0305 13.7791 63.9909 13.5744 64.0398 13.3953C64.2514 12.5976 65.6468 13.2372 66.0793 13.4907C66.2026 13.5628 66.8189 13.9023 67.0933 14.0674C67.1666 13.6159 67.3086 13.1783 67.5143 12.7697C67.8864 11.9721 68.8027 11.8255 68.7422 12.3442C68.633 12.9125 68.5893 13.4915 68.612 14.0698C68.6334 14.5398 68.698 15.0069 68.805 15.4652C68.9655 16.2508 69.2047 17.0182 69.519 17.7559C70.0911 19.1024 72.9097 23.0421 72.9097 23.0421C74.3051 22.2444 78.6099 19.6955 80.3215 18.6582C82.196 17.521 84.3891 17.9071 84.3891 17.9071L80.8843 23.2956C80.8843 23.2956 75.5121 26.17 73.8051 27.098C72.4097 27.8585 71.2934 28.1538 70.2981 26.2375C68.7515 23.27 66.9305 19.1862 66.1654 18.5815Z" fill="#FFA8A7"/>
<path d="M66.6979 14.2373C67.1281 14.4373 67.2142 14.7489 67.1211 15.4001C67.0653 15.7815 67.0886 16.5025 67.47 16.8397C67.2717 16.7927 67.0924 16.6865 66.956 16.535C66.7862 16.3025 66.7351 16.2792 66.6118 16.3815C66.5198 16.4473 66.414 16.491 66.3025 16.5094C66.3629 16.5988 66.3929 16.7052 66.3878 16.8129C66.3828 16.9206 66.3431 17.0238 66.2746 17.1071C66.042 17.4141 65.135 17.3095 64.449 16.8374C64.449 16.8374 65.5932 17.3583 65.9188 17.0141C66.2444 16.6699 65.6699 16.1141 65.2211 15.9257C65.2211 15.9257 66.3374 16.3467 66.5607 15.9908C66.7839 15.635 66.3444 15.2931 65.6885 15.0303C65.6885 15.0303 66.6188 15.3234 66.8235 15.0303C67.0537 14.6466 66.7955 14.3838 66.6979 14.2373Z" fill="#F28F8F"/>
<path d="M84.9471 15.9422H86.5751C87.2944 15.9419 88.0066 15.7998 88.671 15.5241C89.3354 15.2484 89.9389 14.8445 90.4471 14.3354C90.9553 13.8263 91.3582 13.2221 91.6328 12.5573C91.9074 11.8924 92.0482 11.18 92.0473 10.4606C92.0492 8.7928 91.3889 7.19242 90.2115 6.01112C89.0341 4.82981 87.4359 4.1642 85.7681 4.1605C84.979 4.15189 84.1966 4.30582 83.4697 4.61271C82.7427 4.91959 82.0866 5.37284 81.5424 5.94426L81.4331 14.5328C81.4331 14.5328 83.5401 15.9422 84.9471 15.9422Z" fill="#263238"/>
<path d="M88.6938 5.00484L88.438 3.30713C88.3252 3.31841 88.2159 3.35258 88.1169 3.40756C88.0178 3.46253 87.931 3.53716 87.8617 3.62686C87.7925 3.71656 87.7423 3.81945 87.7142 3.92923C87.6861 4.03901 87.6807 4.15336 87.6984 4.26529C87.7373 4.49293 87.8625 4.69681 88.0479 4.83455C88.2333 4.97228 88.4646 5.03327 88.6938 5.00484Z" fill="#263238"/>
<path d="M91.9846 6.86288C91.0707 7.6815 90.2916 7.04196 89.4776 6.12333C88.6636 5.2047 88.1171 4.35817 89.0241 3.54188C89.4645 3.15052 90.0423 2.95014 90.6305 2.98481C91.2186 3.01948 91.7689 3.28637 92.1602 3.72677C92.5516 4.16716 92.752 4.74498 92.7173 5.33311C92.6826 5.92125 92.4157 6.47152 91.9753 6.86288H91.9846Z" fill="#263238"/>
<path d="M99.2567 71.3222C99.0427 71.7664 99.1543 72.3199 99.1381 73.5246C99.152 74.3173 99.1194 75.1101 99.0404 75.899C99.0032 76.1804 98.9125 76.4363 98.852 76.7107C98.8127 76.9291 98.7013 77.1281 98.5357 77.2758C98.4647 77.3427 98.3785 77.3913 98.2845 77.4177C98.1906 77.444 98.0916 77.4472 97.9962 77.427C97.9221 77.4037 97.8534 77.3658 97.7943 77.3154C97.7352 77.2651 97.6868 77.2034 97.652 77.1339C97.5231 76.8686 97.4203 76.5913 97.345 76.306C97.1124 78.32 94.9356 79.7154 96.2659 80.2131C96.7336 80.3824 97.2305 80.4558 97.7271 80.429C98.2237 80.4023 98.7099 80.2758 99.1567 80.0573C99.527 79.8752 99.8466 79.6044 100.087 79.2689C100.599 78.3735 100.552 77.5223 100.552 76.7525C100.568 75.0502 100.847 74.1711 100.985 73.3199C101.159 72.2896 99.5869 71.1664 99.2567 71.3222Z" fill="#263238"/>
<path d="M84.6635 71.1245C84.7015 71.1344 84.7354 71.1563 84.76 71.1868C84.7847 71.2174 84.799 71.255 84.8007 71.2943C84.8379 71.5268 84.8821 71.9455 84.9588 72.3315C85.0612 72.8455 85.1705 73.5874 85.0868 74.0013C85.003 74.4153 84.4449 74.8153 83.3984 75.1107C82.5762 75.3687 81.8073 75.7728 81.1285 76.3037C80.4983 76.8781 79.1517 77.3572 78.2401 77.3828C77.1726 77.4154 76.0587 77.1293 75.8028 76.3595C75.6935 76.0339 76.2238 75.6804 77.5912 75.0246C77.5912 75.0246 78.2889 74.6595 78.675 74.413C80.6495 73.1687 81.3216 72.4641 81.8983 71.1943L84.6635 71.1245Z" fill="#263238"/>
<path d="M81.1542 72.2388C81.7844 71.5574 81.903 70.9016 81.8193 69.6364C81.7356 68.3713 80.7379 57.3571 80.482 54.6012C80.0518 49.9685 80.5193 36.8078 80.903 33.5938L92.9149 34.5473C93.8103 36.7892 94.4661 39.552 94.3265 43.8847C94.2172 47.1894 94.2917 56.1547 94.2917 56.1547C94.2917 56.1547 95.794 57.471 96.8685 60.0734C97.815 62.3735 98.9057 70.3062 98.9057 70.3062C99.0008 70.6503 99.1213 70.9869 99.2662 71.3132C99.536 71.6425 99.6911 72.0507 99.7081 72.476C99.7078 73.8488 99.562 75.2177 99.2732 76.5598C99.2042 76.8872 99.0501 77.1906 98.8263 77.4393C98.6025 77.688 98.317 77.8732 97.9987 77.9761C97.8459 78.0401 97.6803 78.0679 97.515 78.0575C97.4295 78.0562 97.3472 78.0249 97.2824 77.9692C97.1661 77.8529 97.2824 77.5738 97.2941 77.4343C97.3301 77.2103 97.351 76.9842 97.3568 76.7575C97.3708 76.311 97.3568 75.7668 97.3266 75.3203C97.2692 74.3197 97.1094 73.3277 96.8499 72.3597L96.6173 71.7876C96.6173 71.7876 91.2683 60.9758 89.7567 58.3408C88.5497 56.271 87.7497 48.2452 86.8961 43.8568L85.645 54.3454C85.645 54.3454 86.0798 56.2384 86.245 57.6873C86.4775 59.6339 85.0938 67.2596 84.6845 69.9713C84.6074 70.4742 84.6011 70.9854 84.6659 71.4899C84.5193 72.6644 83.6403 73.0272 82.7309 73.6923C82.2658 74.0226 80.289 75.2319 79.0867 75.4761C78.1099 75.6738 77.7355 75.2947 77.6006 75.011C78.8844 74.2218 80.0763 73.292 81.1542 72.2388Z" fill="#FFA8A7"/>
<path d="M90.6171 30.1797C90.6171 30.1797 91.7008 31.5053 93.3869 34.8472C94.5195 37.0891 94.5916 45.3126 94.5916 45.3126C94.5916 45.3126 93.6055 47.5591 87.3821 47.187L86.917 44.3963L86.5193 47.1219L86.0542 47.0754C80.7052 46.4987 79.6959 45.2847 79.6959 45.2847C79.6959 45.2847 80.082 35.731 81.2471 30.3076C83.0658 31.5937 88.4426 31.8983 90.6171 30.1797Z" fill="#455A64"/>
<path d="M86.9309 44.4031L85.7425 39.7751C85.7425 39.7751 83.4425 39.5286 81.6541 38.2192C81.6541 38.2192 82.0215 39.91 85.1844 40.41L86.5425 44.9496L86.5286 47.1357L86.9309 44.4031Z" fill="#263238"/>
<path d="M91.4309 45.6476C93.6426 45.1197 94.5217 44.208 94.5217 44.208L94.5938 45.2987C94.5938 45.2987 93.6077 47.5453 87.3843 47.1732L87.1797 45.9336C88.603 46.0641 90.038 45.9676 91.4309 45.6476Z" fill="#37474F"/>
<path d="M79.7029 45.2916C79.7029 45.2916 79.7215 44.8497 79.761 44.0962C80.8312 44.6483 81.9665 45.064 83.1402 45.3334C84.3164 45.6013 85.5127 45.7717 86.717 45.8427L86.5286 47.1288L86.0635 47.0823C80.7052 46.5055 79.7029 45.2916 79.7029 45.2916Z" fill="#37474F"/>
<path d="M80.0238 22.1726C81.2238 20.3121 83.6145 18.547 84.389 17.9307L88.4774 17.9632C89.0402 17.9911 89.8728 18.0609 90.1751 18.1097C90.4442 18.1547 90.7046 18.241 90.9473 18.3656C91.8891 18.8679 91.9845 19.8005 92.017 20.9075C92.0519 22.1191 92.0589 22.6517 91.724 24.6564L91.117 27.2146L91.024 27.6053C91.0077 27.6727 90.9938 27.7402 90.9775 27.81C90.7441 28.789 90.8712 29.8194 91.3356 30.7123C92.3682 32.6915 93.4055 34.2287 93.7496 35.8915C93.2337 35.6695 92.7666 35.3478 92.3752 34.945C91.7101 34.3054 91.3077 34.0147 90.7752 33.2519C89.4891 35.738 82.582 37.8567 80.4191 34.0054C80.4191 34.0054 81.0819 30.6844 81.1935 29.5705C81.0238 28.6053 80.5214 26.9332 80.5098 26.5657C79.1284 25.3262 79.1516 23.5122 80.0238 22.1726Z" fill="#BA68C8"/>
<path opacity="0.1" d="M82.682 26.3584C82.682 26.3584 84.1634 27.6724 85.9844 27.1561C86.4946 27.0286 86.9634 26.7719 87.3455 26.4106C87.7275 26.0492 88.0101 25.5955 88.1658 25.0933C88.1658 25.0933 88.224 27.1468 85.9332 27.698C83.7239 28.2305 82.682 26.3584 82.682 26.3584Z" fill="black"/>
<path d="M80.5122 12.235C80.7169 15.3071 81.4425 16.1467 82.2193 16.37C82.7425 16.5188 83.6821 16.4537 84.617 16.3002V18.1467C84.617 18.1467 83.5379 19.2817 83.6193 20.1282C83.7007 20.9747 85.317 21.0724 86.5287 20.2421C87.1957 19.7812 87.7987 19.2338 88.3217 18.6142C88.4231 18.4957 88.4784 18.3446 88.4775 18.1886V13.8466C88.4775 13.8466 88.9892 14.3908 89.8985 13.7676C90.0946 13.6423 90.2624 13.4776 90.3915 13.2841C90.5206 13.0905 90.608 12.8722 90.6482 12.643C90.6885 12.4138 90.6806 12.1788 90.6252 11.9528C90.5698 11.7269 90.4681 11.5149 90.3264 11.3303C89.9334 10.8652 88.931 10.8326 88.4473 11.5629C88.1752 12.0931 88.138 12.628 87.8357 12.4071C87.0263 11.8233 87.5357 10.0977 86.5589 9.4419C86.0876 9.12993 85.5966 8.84872 85.0891 8.60002C83.3472 7.99768 82.2309 8.29071 81.8681 7.09766C80.6518 7.56278 80.2843 8.84421 80.5122 12.235Z" fill="#FFA8A7"/>
<path d="M84.061 11.7072C84.0607 11.7882 84.0841 11.8676 84.1285 11.9354C84.1728 12.0033 84.2361 12.0566 84.3105 12.0888C84.3849 12.121 84.4671 12.1307 84.5469 12.1166C84.6268 12.1025 84.7007 12.0653 84.7596 12.0096C84.8184 11.9539 84.8597 11.8821 84.8781 11.8032C84.8965 11.7242 84.8914 11.6416 84.8633 11.5656C84.8353 11.4895 84.7855 11.4234 84.7202 11.3754C84.6549 11.3274 84.5769 11.2996 84.4959 11.2955C84.3838 11.293 84.2753 11.3348 84.1938 11.4119C84.1124 11.489 84.0647 11.5951 84.061 11.7072Z" fill="#263238"/>
<path d="M81.0424 11.5907C81.0386 11.6429 81.0452 11.6954 81.0617 11.7451C81.0783 11.7948 81.1045 11.8408 81.1389 11.8803C81.1732 11.9198 81.2151 11.9522 81.262 11.9755C81.3089 11.9989 81.3599 12.0127 81.4122 12.0162C81.4649 12.0202 81.5178 12.013 81.5675 11.9951C81.6171 11.9772 81.6625 11.949 81.7005 11.9123C81.7385 11.8756 81.7683 11.8313 81.7879 11.7823C81.8076 11.7333 81.8167 11.6806 81.8145 11.6279C81.8183 11.5757 81.8117 11.5234 81.7952 11.4738C81.7786 11.4242 81.7523 11.3784 81.718 11.3391C81.6836 11.2997 81.6417 11.2676 81.5948 11.2445C81.5479 11.2214 81.4969 11.2078 81.4448 11.2046C81.3406 11.2039 81.2404 11.2439 81.1652 11.316C81.0901 11.3881 81.0461 11.4866 81.0424 11.5907Z" fill="#263238"/>
<path d="M82.968 11.2046L82.9005 13.7953L81.54 13.3721L82.968 11.2046Z" fill="#F28F8F"/>
<path d="M84.6193 16.2979C85.6077 16.17 87.6426 15.584 87.9565 14.7793C87.8285 15.1859 87.5794 15.5437 87.2426 15.8049C86.6356 16.3282 84.6193 16.9142 84.6193 16.9142V16.2979Z" fill="#F28F8F"/>
<path d="M84.3843 10.3116L85.3517 10.7349C85.4085 10.6011 85.4109 10.4505 85.3584 10.315C85.3058 10.1795 85.2025 10.0698 85.0703 10.0093C85.0057 9.98178 84.9361 9.96782 84.8658 9.96827C84.7956 9.96872 84.7261 9.98357 84.6618 10.0119C84.5975 10.0402 84.5397 10.0815 84.492 10.133C84.4443 10.1846 84.4076 10.2453 84.3843 10.3116Z" fill="#263238"/>
<path d="M85.1494 13.7256L83.2471 14.3907C83.285 14.5175 83.3482 14.6354 83.4327 14.7372C83.5173 14.839 83.6216 14.9227 83.7393 14.9833C83.857 15.0439 83.9857 15.0801 84.1177 15.0898C84.2497 15.0994 84.3823 15.0824 84.5076 15.0396C84.6376 14.9978 84.7578 14.9302 84.8611 14.8407C84.9643 14.7513 85.0484 14.642 85.1084 14.5193C85.1683 14.3966 85.2028 14.263 85.2099 14.1266C85.217 13.9902 85.1964 13.8538 85.1494 13.7256Z" fill="#B16668"/>
<path d="M84.9169 14.2282C84.6905 14.2282 84.4733 14.3177 84.3125 14.4771C84.1518 14.6365 84.0606 14.853 84.0587 15.0794C84.2095 15.0956 84.362 15.0822 84.5076 15.0399C84.6809 14.9854 84.8359 14.8844 84.9557 14.7478C85.0754 14.6113 85.1553 14.4444 85.1866 14.2654C85.0993 14.2389 85.0082 14.2263 84.9169 14.2282Z" fill="#F28F8F"/>
<path d="M82.5913 5.10938C80.3215 5.3838 79.0238 7.10244 79.0238 10.0165H81.1169C81.5887 10.0156 82.0441 9.84388 82.399 9.53303C82.7539 9.22219 82.9842 8.79328 83.0471 8.32573L83.1239 10.0165C83.5121 10.0161 83.8861 9.87024 84.172 9.60759C84.4579 9.34494 84.6349 8.98464 84.6681 8.59783L84.6937 8.32108C84.7294 8.78215 84.9377 9.2128 85.2769 9.52706C85.6162 9.84133 86.0615 10.0161 86.524 10.0165H86.71L86.924 6.99314L82.5913 5.10938Z" fill="#263238"/>
<path d="M83.3982 53.0014C83.3982 45.2593 78.7028 36.2568 72.9096 32.9125C70.2537 31.373 67.7653 31.2079 65.9188 32.3149L61.4814 34.9196L62.7443 37.5522C62.5178 38.6398 62.4071 39.7483 62.414 40.8592C62.414 48.6036 67.1118 57.6038 72.9026 60.9481C73.293 61.1741 73.6969 61.376 74.112 61.5527L75.3097 64.083L79.7214 61.5365C81.968 60.2667 83.3982 57.2712 83.3982 53.0014Z" fill="#BA68C8"/>
<path d="M74.6795 64.4078C79.3229 62.4415 80.2647 54.182 76.7829 45.9595C73.3012 37.7371 66.7144 32.6654 62.0709 34.6317C57.4275 36.5979 56.4857 44.8575 59.9675 53.0799C63.4492 61.3024 70.036 66.374 74.6795 64.4078Z" fill="#BA68C8"/>
<path opacity="0.1" d="M83.2798 55.0059C83.2681 55.0942 83.2588 55.1803 83.2449 55.2663C83.2216 55.4477 83.1937 55.6291 83.1635 55.8036C83.1123 56.0919 83.0542 56.371 82.9867 56.6408C82.9472 56.8222 82.8984 56.9989 82.8449 57.171C82.8193 57.2571 82.7914 57.3408 82.7658 57.4245C82.7402 57.5082 82.71 57.5943 82.6821 57.6757C82.6239 57.8408 82.5611 57.999 82.4984 58.1571L82.4007 58.3897C82.3286 58.5525 82.2565 58.7083 82.1681 58.8548L82.0937 58.9967C81.9728 59.2292 81.8425 59.4362 81.7053 59.6408L81.6355 59.7432L81.5821 59.8153C81.2543 60.2773 80.8628 60.6908 80.4192 61.0432L80.3192 61.1223C80.2588 61.1688 80.196 61.2153 80.1332 61.2572L79.9006 61.4083C79.8332 61.4502 79.7611 61.4944 79.6913 61.5316L75.3982 64.034C77.1913 62.9177 78.4215 60.6641 78.7843 57.5222C78.8558 56.8821 78.8907 56.2384 78.889 55.5942C78.889 52.1825 77.9773 48.5243 76.461 45.2126L80.9634 42.6079C82.4821 45.9196 83.3984 49.5848 83.3984 52.9988C83.3985 53.6384 83.362 54.2775 83.2891 54.9128C83.2891 54.9454 83.2844 54.9756 83.2798 55.0059Z" fill="black"/>
<path opacity="0.1" d="M83.2914 54.9131C83.2565 55.2177 83.2146 55.5154 83.1635 55.8038C83.1123 56.0922 83.0542 56.3713 82.9867 56.641C82.9426 56.8224 82.8937 56.9992 82.8449 57.1713C82.8193 57.2573 82.7914 57.341 82.7658 57.4248C82.7402 57.5085 82.71 57.5945 82.6821 57.6759C82.6239 57.8411 82.5611 57.9992 82.4984 58.1573L82.4007 58.3899C82.3286 58.5527 82.2565 58.7085 82.1681 58.855L82.0937 58.9969C81.9728 59.2295 81.8425 59.4364 81.7053 59.6411C81.6658 59.7016 81.6262 59.7597 81.5821 59.8155C81.2543 60.2776 80.8628 60.691 80.4192 61.0435L80.3192 61.1225C80.2588 61.169 80.196 61.2156 80.1332 61.2574L79.9006 61.4086C79.8332 61.4504 79.7611 61.4946 79.6913 61.5318L75.3982 64.0342C77.1913 62.9179 78.4215 60.6644 78.7843 57.5224L83.2914 54.9131Z" fill="black"/>
<path opacity="0.4" d="M80.9633 42.6105L76.4656 45.2152C74.5399 41.0035 71.6329 37.3476 68.3817 35.4685C65.7514 33.9452 63.3467 33.8405 61.5024 34.9126L65.9211 32.3172C67.7677 31.2079 70.2561 31.373 72.912 32.9126C76.1446 34.7847 79.0377 38.4197 80.9633 42.6105Z" fill="white"/>
<path d="M75.6073 53.5504C75.6073 55.7109 75.0445 57.4598 74.098 58.59C72.7794 60.1715 70.7328 60.5575 68.4397 59.2226C66.1467 57.8877 64.0862 55.1202 62.7675 52.0131C61.821 49.7829 61.2582 47.3874 61.2582 45.2246L75.6073 53.5504Z" fill="#37474F"/>
<path d="M74.0981 58.5895C72.7794 60.1709 70.7329 60.557 68.4398 59.2221C66.1467 57.8872 64.0862 55.1197 62.7676 52.0126C64.2374 50.9521 66.2421 50.9382 68.4398 52.2057C70.6375 53.4731 72.6283 55.8081 74.0981 58.5895Z" fill="#F28F8F"/>
<path d="M71.3259 45.9572C71.3259 47.0642 71.9073 48.2991 72.626 48.7154C73.3446 49.1317 73.926 48.5689 73.926 47.4619C73.926 46.3549 73.3446 45.1199 72.626 44.7037C71.9073 44.2874 71.3259 44.8502 71.3259 45.9572Z" fill="#37474F"/>
<path d="M63.1001 41.1965C63.1001 42.3035 63.6815 43.5385 64.4001 43.9524C65.1187 44.3664 65.7002 43.8082 65.7002 42.7012C65.7002 41.5942 65.1164 40.3593 64.4001 39.943C63.6838 39.5267 63.1001 40.0802 63.1001 41.1965Z" fill="#37474F"/>
<path d="M76.8865 36.5356C76.4599 36.5235 76.0334 36.5641 75.6167 36.6565C74.7516 36.8147 73.9213 36.924 73.0585 36.6077C72.5655 36.4263 71.9864 36.0263 71.8957 35.4588C71.805 34.8914 72.4236 34.7077 72.8073 34.5007C73.3348 34.2119 73.8846 33.9662 74.4516 33.7658C75.4029 33.4294 76.4315 33.3768 77.4121 33.6146C77.9167 33.7332 78.5935 33.896 79.0912 33.6611C79.4284 33.5007 79.7586 33.3076 80.0889 33.1379L82.6866 31.796L86.2658 29.9471L87.9123 22.8516C87.9123 22.8516 88.296 19.9376 89.917 18.0654C91.1473 18.1747 92.3473 18.6003 92.6241 19.3608C92.9008 20.1213 92.7078 21.1678 92.3659 22.7586C92.024 24.3493 90.2496 29.5029 89.5589 31.3448C89.2426 32.1867 89.0937 32.5402 87.9728 33.0262C86.32 33.7472 84.6626 34.4604 83.0006 35.1658C82.1378 35.5309 81.2773 35.8961 80.4122 36.2542C79.868 36.4868 79.3191 36.7403 78.7214 36.7705C78.1237 36.8007 77.5074 36.5705 76.8865 36.5356Z" fill="#FFA8A7"/>
<path d="M31.3879 20.6936C31.3879 20.6936 35.988 23.5402 36.3973 23.7681C36.8066 23.996 37.6532 24.8076 38.5183 23.7402C39.216 22.8843 43.9486 15.6004 43.9486 15.6004L41.437 14.3911L37.0183 19.8075L30.3669 15.0725L31.3879 20.6936Z" fill="#FFA8A7"/>
<path d="M31.488 15.5028C32.9764 16.6772 35.5346 18.575 35.5346 18.575C35.3167 20.028 34.6347 21.3717 33.5903 22.4053L30.9949 20.8029L27.7739 14.2749C27.7739 14.2749 29.4623 13.9121 31.488 15.5028Z" fill="#37474F"/>
<path d="M33.5531 32.1981C33.5531 24.3863 38.302 15.3117 44.1603 11.9279C46.8487 10.3767 49.3628 10.2116 51.2326 11.3279L55.7187 13.9558L54.435 16.6117C54.6646 17.7091 54.7761 18.8279 54.7675 19.949C54.7675 27.7608 50.0186 36.8354 44.1603 40.2169C43.7663 40.4449 43.3585 40.6484 42.9394 40.8262L41.7277 43.3844L37.2788 40.8262C34.9996 39.5285 33.5531 36.5075 33.5531 32.1981Z" fill="#BA68C8"/>
<path d="M57.2413 32.2953C60.7701 24.0021 59.8271 15.6607 55.1351 13.6642C50.4431 11.6678 43.7788 16.7722 40.25 25.0654C36.7212 33.3586 37.6642 41.7 42.3563 43.6965C47.0483 45.693 53.7126 40.5885 57.2413 32.2953Z" fill="#BA68C8"/>
<path opacity="0.1" d="M33.674 34.2218L33.7089 34.4846C33.7345 34.6683 33.7624 34.8497 33.7926 35.0241C33.8438 35.3171 33.9019 35.5985 33.9717 35.8706C34.0113 36.052 34.0601 36.2311 34.1159 36.4055C34.1415 36.4916 34.1694 36.5776 34.195 36.6613C34.2206 36.7451 34.2531 36.8311 34.281 36.9148C34.3392 37.08 34.402 37.2404 34.4647 37.4009C34.4973 37.4753 34.5299 37.5521 34.5648 37.6335C34.6368 37.7963 34.7113 37.9544 34.7973 38.0986L34.8717 38.2404C34.995 38.473 35.1276 38.6846 35.2648 38.8893C35.288 38.9265 35.3113 38.9591 35.3369 38.994L35.388 39.066C35.7157 39.5316 36.1071 39.9489 36.5508 40.3056L36.6508 40.3847C36.7136 40.4335 36.7764 40.4777 36.8392 40.5219C36.902 40.5661 36.9904 40.6242 37.0718 40.6731C37.1532 40.7219 37.2137 40.7591 37.2834 40.7986L41.644 43.3359C39.83 42.2103 38.5788 39.9382 38.2207 36.7683C38.1484 36.1228 38.1126 35.4737 38.1137 34.8241C38.1137 31.3798 39.0439 27.6914 40.5695 24.3587L36.016 21.7075C34.4787 25.0495 33.5531 28.7426 33.5531 32.1915C33.5529 32.8365 33.5894 33.4809 33.6624 34.1218C33.674 34.159 33.674 34.1892 33.674 34.2218Z" fill="black"/>
<path opacity="0.1" d="M33.6602 34.1289C33.6974 34.4359 33.7392 34.7359 33.7904 35.0243C33.8416 35.3127 33.8997 35.5987 33.9695 35.8708C34.0137 36.0522 34.0625 36.2313 34.1137 36.4057C34.1392 36.4917 34.1671 36.5778 34.1927 36.6615C34.2183 36.7452 34.2509 36.8313 34.2788 36.915C34.3369 37.0801 34.3997 37.2406 34.4625 37.4011C34.4951 37.4755 34.5276 37.5522 34.5625 37.6336C34.6346 37.7964 34.709 37.9546 34.7951 38.0988L34.8695 38.2406C34.9927 38.4732 35.1253 38.6848 35.2625 38.8895C35.3021 38.9523 35.3439 39.0104 35.3858 39.0662C35.7135 39.5318 36.1049 39.949 36.5486 40.3058L36.6486 40.3849C36.7114 40.4337 36.7742 40.4779 36.837 40.5221C36.8998 40.5663 36.9881 40.6244 37.0695 40.6732C37.1509 40.7221 37.2114 40.7593 37.2812 40.7988L41.6441 43.3361C39.8301 42.2105 38.5789 39.9383 38.2207 36.7685L33.6602 34.1289Z" fill="black"/>
<path opacity="0.4" d="M36.016 21.7075L40.5696 24.3378C42.5185 20.0865 45.4534 16.398 48.7442 14.5003C51.4047 12.9631 53.8396 12.8724 55.7025 13.9422L51.2326 11.3282C49.3721 10.2119 46.8488 10.377 44.1604 11.9305C40.8835 13.8189 37.9625 17.4864 36.016 21.7075Z" fill="white"/>
<path d="M45.7674 25.0912C45.7674 26.2075 45.179 27.4541 44.4534 27.882C43.7278 28.3099 43.1394 27.7355 43.1394 26.6169C43.1394 25.4982 43.7278 24.2563 44.4534 23.8261C45.179 23.3959 45.7674 23.9749 45.7674 25.0912Z" fill="#37474F"/>
<path d="M54.0815 20.2888C54.0815 21.4051 53.4931 22.6517 52.7675 23.0796C52.0419 23.5075 51.4535 22.9307 51.4535 21.8144C51.4535 20.6981 52.0419 19.4516 52.7675 19.0237C53.4931 18.5958 54.0815 19.1702 54.0815 20.2888Z" fill="#37474F"/>
<path d="M46.2581 38.1686C45.715 38.1703 45.1769 38.0652 44.6744 37.8593C43.1813 37.2523 42.0348 35.7662 41.4464 33.6452C41.419 33.5582 41.4094 33.4665 41.4182 33.3756C41.4269 33.2848 41.4539 33.1966 41.4974 33.1163C41.5408 33.0361 41.6 32.9654 41.6713 32.9084C41.7427 32.8515 41.8247 32.8095 41.9126 32.7848C42.0005 32.7602 42.0925 32.7535 42.183 32.7651C42.2736 32.7767 42.3608 32.8064 42.4397 32.8523C42.5185 32.8983 42.5874 32.9597 42.642 33.0328C42.6967 33.1058 42.7362 33.1892 42.758 33.2778C43.2232 34.9732 44.0953 36.1523 45.1906 36.5988C46.1209 36.9802 47.2372 36.8314 48.4047 36.1523C51.1954 34.5383 53.735 30.3173 54.7211 25.6474C54.7584 25.4704 54.8645 25.3154 55.0161 25.2166C55.1676 25.1178 55.3522 25.0833 55.5292 25.1206C55.7063 25.1579 55.8612 25.2641 55.96 25.4156C56.0588 25.5672 56.0933 25.7518 56.056 25.9288C54.9769 31.0336 52.242 35.5104 49.0791 37.3244C48.229 37.8482 47.2562 38.1393 46.2581 38.1686Z" fill="#37474F"/>
<path d="M40.6208 34.1938C40.3205 34.2031 40.0224 34.1409 39.751 34.0124C39.6333 33.9433 39.547 33.8314 39.51 33.7001C39.473 33.5688 39.4883 33.4283 39.5527 33.308C39.617 33.1878 39.7254 33.0971 39.8552 33.0549C39.9849 33.0128 40.1259 33.0226 40.2487 33.0821C40.6576 33.1886 41.091 33.1465 41.4719 32.9635C41.7942 32.8257 42.0803 32.6152 42.3079 32.3486C42.5354 32.0819 42.6982 31.7663 42.7836 31.4263C42.8228 31.2918 42.9137 31.1784 43.0365 31.111C43.1593 31.0437 43.3038 31.0278 43.4383 31.067C43.5727 31.1061 43.6861 31.1971 43.7535 31.3199C43.8209 31.4427 43.8367 31.5872 43.7976 31.7216C43.615 32.4267 43.2045 33.0516 42.6299 33.4991C42.0554 33.9466 41.349 34.1917 40.6208 34.1961V34.1938Z" fill="#37474F"/>
<path d="M54.2605 26.3353C53.9593 26.345 53.6601 26.282 53.3884 26.1515C53.2708 26.0825 53.1844 25.9706 53.1474 25.8393C53.1105 25.708 53.1258 25.5675 53.1901 25.4472C53.2545 25.3269 53.3629 25.2362 53.4926 25.1941C53.6224 25.152 53.7634 25.1617 53.8861 25.2213C54.2951 25.3277 54.7285 25.2857 55.1094 25.1027C55.4321 24.9655 55.7185 24.7552 55.9461 24.4884C56.1738 24.2217 56.3363 23.9057 56.421 23.5654C56.4602 23.431 56.5512 23.3176 56.674 23.2502C56.7967 23.1828 56.9413 23.167 57.0757 23.2061C57.2102 23.2453 57.3236 23.3363 57.391 23.459C57.4583 23.5818 57.4742 23.7263 57.435 23.8608C57.2519 24.5653 56.8417 25.1898 56.2678 25.6375C55.6939 26.0853 54.9884 26.3313 54.2605 26.3376V26.3353Z" fill="#37474F"/>
<path d="M18.6851 77.1112C18.6014 77.4391 18.427 78.3717 16.6921 78.3717C14.9571 78.3717 13.9641 77.674 13.6222 76.7809C13.2803 75.8879 13.4757 75.246 13.5083 74.4786C13.5408 73.7111 12.9687 73.2204 12.8431 72.8041C12.6571 72.1925 13.1664 71.3506 13.1664 71.3506L18.6851 77.1112Z" fill="#263238"/>
<path d="M35.3647 71.446C35.4103 71.5831 35.4266 71.7283 35.4126 71.8721C35.3986 72.0159 35.3546 72.1552 35.2833 72.2809C35.1577 72.4507 33.9949 73.2972 32.5577 73.1205C31.5035 73.0166 30.4893 72.6626 29.5995 72.0879C28.7599 71.5925 28.1808 71.5204 27.3273 71.5228C26.4738 71.5251 25.8878 71.3646 25.818 71.1507C25.6924 70.7739 25.6831 70.532 25.8645 70.5367L35.3647 71.446Z" fill="#263238"/>
<path d="M13.7734 70.0134C13.7432 70.9064 16.4642 71.6808 16.4061 70.5459L17.3363 67.2505L14.2851 66.9272L13.7734 70.0134Z" fill="#FFA8A7"/>
<path d="M26.4645 67.9179C27.3226 68.5319 28.1133 68.6156 29.1203 68.104L29.6273 62.7085H25.9272L26.4645 67.9179Z" fill="#FFA8A7"/>
<path d="M18.5225 32.1055C17.8248 38.6173 16.5504 51.7618 16.5504 51.7618C16.5504 51.7618 15.4341 53.4641 15.0178 56.6037C14.5061 60.4829 13.9968 68.5761 13.9968 68.5761C14.4473 68.846 14.9516 69.0136 15.4741 69.0671C15.9965 69.1205 16.5243 69.0585 17.0201 68.8854C17.0201 68.8854 21.3714 57.0037 22.1761 53.1874C22.8738 49.8547 24.1226 43.0127 24.1226 43.0127L25.6785 52.3153C25.273 53.7918 25.1035 55.3231 25.1761 56.8526C25.2506 58.6456 26.0924 65.4318 26.0924 65.4318C26.3436 66.1737 28.6716 66.1295 29.4204 65.6435C29.4204 65.6435 30.6112 54.2479 30.7693 52.3525C30.9763 49.8733 31.36 32.0962 31.36 32.0962L18.5225 32.1055Z" fill="#37474F"/>
<path d="M24.118 43.0129L24.9855 39.0081C24.9855 39.0081 26.9274 38.5662 28.3135 37.4546C28.3135 37.4546 27.8065 38.7314 25.6785 39.7081L24.7925 43.4594L25.5553 51.6875L24.118 43.0129Z" fill="#263238"/>
<path d="M16.406 70.5457L16.506 70.2015C16.62 70.3154 16.6014 70.4131 16.6037 70.7201C16.6037 70.9643 16.6037 71.1992 16.6363 71.5224C16.6776 71.9447 16.7554 72.3625 16.8688 72.7713C17.1014 73.7225 17.3456 74.1039 18.013 75.2783C18.1712 75.5551 18.5549 76.0179 18.6689 76.3202C18.7828 76.6225 18.8154 77.1691 18.4596 77.3784C17.4456 77.9784 15.8804 77.8156 14.8874 77.3482C14.5159 77.1796 14.2006 76.9078 13.9792 76.5652C13.7578 76.2226 13.6395 75.8235 13.6385 75.4155C13.6385 75.183 13.6897 74.9341 13.699 74.6923C13.6931 74.1375 13.5526 73.5924 13.2897 73.1039C13.136 72.8216 13.0129 72.5238 12.9222 72.2155C12.7897 71.6527 13.0525 71.0875 13.2734 70.5875C13.4618 70.1526 13.6827 69.5712 13.8315 69.6387C13.8315 69.6945 13.7734 70.0201 13.7734 70.0201C13.9269 70.2526 14.4106 70.541 14.9897 70.6526C15.3618 70.7201 16.3665 70.8317 16.406 70.5457Z" fill="#455A64"/>
<path d="M29.2297 66.9784C29.3623 66.9784 29.4971 67.083 29.732 67.4249C30.0542 67.8982 30.4716 68.299 30.9576 68.6017C31.8321 69.2156 33.2112 69.8366 34.6298 70.3668C35.4019 70.6552 35.5484 71.2133 35.2926 71.7133C34.8926 72.1134 33.5298 73.0483 31.2902 72.3668C29.8948 71.9436 29.4134 71.2296 28.4204 71.104C27.7227 71.0157 26.4994 71.2064 25.7831 70.6389C25.5505 70.097 25.7389 69.5528 25.811 68.7993C25.8831 68.0458 26.1226 66.8435 26.3622 66.89L26.4041 67.29C26.5948 68.1598 28.5971 68.2458 29.1646 67.676L29.2297 66.9784Z" fill="#455A64"/>
<path d="M23.5109 14.0327C21.6086 14.0327 20.2295 14.1374 18.9992 14.4025C18.0364 14.6071 17.7317 16.2235 17.6689 17.3002C17.462 20.7887 19.0225 27.2888 19.0225 27.2888L18.2945 33.3355C19.9225 35.0797 27.2203 35.989 31.3878 33.4332C31.3878 33.4332 31.4995 21.5375 31.3878 19.5328C31.1925 16.0049 29.6785 14.3141 28.3785 14.2141C28.3785 14.2071 25.4133 14.0327 23.5109 14.0327Z" fill="#BA68C8"/>
<path d="M21.7737 3.31396C21.7737 3.31396 20.776 3.45118 20.4109 4.20236C20.0923 4.85586 20.2062 6.43497 20.6435 8.15593C21.0807 9.8769 21.4667 10.9118 21.7156 11.3886C21.8818 11.6815 22.1539 11.8995 22.4761 11.9979L22.4272 9.95597L22.3528 8.53501C22.3528 8.53501 23.2644 7.28847 23.3644 6.26752C23.4947 4.95354 23.2179 4.40701 23.2179 4.40701L21.7737 3.31396Z" fill="#37474F"/>
<path d="M23.3832 5.28867C23.3841 6.04239 23.6086 6.77889 24.0283 7.40498C24.4479 8.03107 25.0439 8.51859 25.7407 8.80586C26.4375 9.09312 27.2039 9.16722 27.9429 9.01876C28.6818 8.87031 29.3601 8.50597 29.892 7.97187C30.4238 7.43777 30.7852 6.75791 30.9305 6.01833C31.0758 5.27874 30.9984 4.51268 30.7082 3.81708C30.4179 3.12148 29.9279 2.52762 29.3 2.11064C28.6721 1.69367 27.9347 1.47233 27.1809 1.47463C26.1718 1.47771 25.2052 1.88105 24.4932 2.59612C23.7811 3.31119 23.3819 4.27956 23.3832 5.28867Z" fill="#37474F"/>
<path d="M22.3945 8.30697C22.0503 8.60232 21.7736 7.84184 21.4829 7.53486C21.1922 7.22787 20.255 6.83717 19.7898 7.81393C19.3247 8.7907 20.2201 10.1884 20.9224 10.5163C21.9527 10.9931 22.4155 9.95352 22.4155 9.95352L22.5248 14.2466C24.2853 16.9141 28.3784 16.3723 26.6714 14.4141V13.0187C26.6714 13.0187 27.8342 13.1885 28.3877 13.1001C29.3179 12.9536 29.8133 12.2466 30.0947 11.2396C30.5459 9.61165 30.5343 7.1302 29.9087 3.96501C28.8598 3.15569 25.4155 3.03476 23.2155 4.43014C23.3666 7.2209 22.7434 8.00929 22.3945 8.30697Z" fill="#FFA8A7"/>
<path d="M30.6157 1.4536C30.6038 1.42575 30.5849 1.40146 30.5609 1.38311C30.5368 1.36477 30.5084 1.35299 30.4784 1.34894C30.4307 1.35255 30.3856 1.37223 30.3505 1.40476C30.0881 1.61422 29.8089 1.80168 29.5156 1.96524C29.5935 1.5906 29.5982 1.20444 29.5296 0.828003C29.49 0.59544 29.4249 0.0628696 29.1389 0.00472877C28.9691 -0.0278301 28.8203 0.114034 28.6924 0.237292C27.5481 1.30941 26.0528 0.811724 24.6737 0.855911C23.5108 0.893121 22.1294 1.3629 21.6085 2.48385C21.3759 2.99782 21.3294 3.53737 21.7992 3.89319C22.2177 4.17336 22.6952 4.35323 23.1946 4.41878C25.4923 4.81879 28.5854 5.60485 30.2854 3.46295C30.5409 3.16261 30.7027 2.79387 30.7505 2.40246C30.793 2.08542 30.7446 1.76285 30.611 1.4722C30.6144 1.46661 30.616 1.46013 30.6157 1.4536Z" fill="#263238"/>
<path d="M26.6622 13.0165C26.6622 13.0165 24.5692 12.6002 23.8366 12.2141C23.4069 11.9917 23.0543 11.6448 22.825 11.2188C22.9347 11.6492 23.1309 12.0527 23.4017 12.4048C23.9389 13.0862 26.6576 13.5816 26.6576 13.5816L26.6622 13.0165Z" fill="#F28F8F"/>
<path d="M26.1203 7.80257C26.1176 7.88517 26.0906 7.96515 26.0427 8.03251C25.9948 8.09987 25.9282 8.15165 25.851 8.18138C25.7739 8.21111 25.6898 8.21748 25.6091 8.1997C25.5283 8.18191 25.4546 8.14076 25.3972 8.08137C25.3397 8.02199 25.301 7.94699 25.2858 7.86574C25.2707 7.78449 25.2798 7.70058 25.312 7.62447C25.3442 7.54836 25.3982 7.48343 25.467 7.43776C25.5359 7.3921 25.6167 7.36772 25.6994 7.36768C25.7557 7.36828 25.8113 7.38004 25.863 7.40228C25.9147 7.42452 25.9615 7.4568 26.0007 7.49725C26.0398 7.5377 26.0705 7.58551 26.0911 7.63792C26.1116 7.69033 26.1216 7.74629 26.1203 7.80257Z" fill="#263238"/>
<path d="M25.6715 6.22086L24.7761 6.71854C24.712 6.59581 24.6976 6.45301 24.7362 6.31998C24.7748 6.18694 24.8632 6.07395 24.9831 6.00457C25.0423 5.9725 25.1073 5.95263 25.1743 5.94617C25.2413 5.93971 25.3089 5.94677 25.3731 5.96695C25.4373 5.98712 25.4968 6.01999 25.5481 6.06361C25.5994 6.10723 25.6413 6.1607 25.6715 6.22086Z" fill="#263238"/>
<path d="M25.897 10.0586L28.0366 10.8516C27.9911 10.9955 27.9169 11.1287 27.8186 11.2432C27.7203 11.3576 27.5998 11.451 27.4645 11.5177C27.3291 11.5844 27.1816 11.6231 27.031 11.6313C26.8803 11.6395 26.7295 11.6172 26.5877 11.5656C26.3001 11.4524 26.0674 11.2323 25.9387 10.9513C25.8099 10.6703 25.7949 10.3504 25.897 10.0586Z" fill="#B16668"/>
<path d="M29.8531 6.55609L29.0228 5.9305C29.0612 5.87515 29.1104 5.82816 29.1674 5.79237C29.2245 5.75659 29.2882 5.73276 29.3547 5.72232C29.4213 5.71188 29.4892 5.71506 29.5545 5.73166C29.6198 5.74825 29.681 5.77792 29.7345 5.81887C29.845 5.9031 29.919 6.02658 29.941 6.16379C29.9631 6.301 29.9316 6.44144 29.8531 6.55609Z" fill="#263238"/>
<path d="M29.6041 7.6722C29.6009 7.75412 29.5738 7.83331 29.526 7.89993C29.4782 7.96654 29.4119 8.01766 29.3353 8.04693C29.2587 8.07621 29.1752 8.08235 29.0952 8.06459C29.0151 8.04683 28.9421 8.00596 28.885 7.94705C28.828 7.88814 28.7895 7.81378 28.7744 7.7332C28.7593 7.65262 28.7681 7.56937 28.7999 7.49378C28.8316 7.41819 28.8849 7.35359 28.953 7.308C29.0212 7.2624 29.1012 7.23782 29.1832 7.2373C29.2395 7.23791 29.2951 7.24967 29.3468 7.27191C29.3985 7.29415 29.4453 7.32643 29.4844 7.36688C29.5236 7.40733 29.5543 7.45514 29.5749 7.50755C29.5954 7.55996 29.6054 7.61592 29.6041 7.6722Z" fill="#263238"/>
<path d="M27.4691 7.28174L27.6133 9.8004L28.9273 9.34923L27.4691 7.28174Z" fill="#F28F8F"/>
<path d="M26.5878 11.5657C26.7842 11.6382 26.9973 11.6527 27.2017 11.6075C27.1962 11.4516 27.1531 11.2994 27.076 11.1637C26.9989 11.0281 26.8902 10.9131 26.759 10.8286C26.6279 10.7441 26.4783 10.6925 26.3229 10.6783C26.1676 10.6641 26.0111 10.6877 25.8668 10.7471C25.9109 10.9321 25.9997 11.1034 26.1253 11.2462C26.251 11.3889 26.4098 11.4986 26.5878 11.5657Z" fill="#F28F8F"/>
<path d="M21.004 31.1824C19.9761 30.8358 19.5714 30.6335 19.0807 29.0777C17.7737 24.9404 16.5923 21.5287 16.3411 19.4542C15.8574 15.4425 17.469 15.0774 18.6853 14.6401L20.3598 18.7077L22.825 27.5753C24.8064 28.466 28.0507 29.1242 30.3716 29.8451C30.8815 29.9628 31.4045 30.0136 31.9275 29.9963C32.7368 29.9172 33.2345 29.8219 33.6857 29.9009C33.6415 30.2335 33.6229 30.5475 33.5996 30.8428C34.3913 30.8407 35.1813 30.7684 35.9601 30.6265C37.6486 30.3126 38.2532 30.8731 36.8671 32.5684C36.0834 33.5289 34.5415 33.8987 32.2996 33.6615C31.1376 33.5119 29.9891 33.2716 28.8646 32.9429C25.9297 32.1545 22.6203 31.7242 21.004 31.1824Z" fill="#FFA8A7"/>
<path d="M18.9992 14.3911C16.527 14.6609 15.4898 16.84 15.9991 19.3819C16.3642 21.1866 17.0782 23.6774 17.655 25.496C17.655 25.496 20.6643 25.4658 22.1085 24.0844C21.5643 22.2983 21.476 21.9238 20.9946 20.2308C20.8178 16.8447 20.1155 15.1958 18.9992 14.3911Z" fill="#37474F"/>
<path d="M42.2323 13.2749C42.5067 13.0423 42.816 12.8097 43.1626 12.5632C43.1626 12.5632 44.1649 12.6563 45.3835 13.6237C46.1557 14.2354 48.4813 14.1935 48.1487 13.1237C47.6836 11.619 46.0557 11.0702 45.3254 10.912C44.1231 10.6516 41.9649 11.7074 42.2323 13.2749Z" fill="#FFA8A7"/>
</svg>
