<svg width="104" height="100" viewBox="0 0 104 100" fill="none" xmlns="http://www.w3.org/2000/svg">
<path d="M52 99.9998C80.4773 99.9998 103.563 86.6714 103.563 70.23C103.563 53.7886 80.4773 40.4602 52 40.4602C23.5228 40.4602 0.437378 53.7886 0.437378 70.23C0.437378 86.6714 23.5228 99.9998 52 99.9998Z" fill="#F0F0F0"/>
<path d="M12.8416 80.8311L3.94765 75.7079C3.44649 75.4168 3.44649 74.9485 3.94765 74.6596L55.6832 44.7804C55.9644 44.6368 56.2756 44.562 56.5914 44.562C56.9071 44.562 57.2184 44.6368 57.4996 44.7804L66.3936 49.9145C66.8947 50.2034 66.8947 50.6739 66.3936 50.9628L14.658 80.8311C14.3765 80.9736 14.0654 81.0478 13.7498 81.0478C13.4343 81.0478 13.1231 80.9736 12.8416 80.8311Z" fill="#E0E0E0"/>
<path d="M51.0721 82.956L29.7104 70.624L56.4054 55.2412L77.7409 67.5579L51.0721 82.956Z" fill="#E0E0E0"/>
<path d="M80.5639 88.4558C86.1407 88.4558 90.6615 85.8456 90.6615 82.6257C90.6615 79.4059 86.1407 76.7957 80.5639 76.7957C74.9872 76.7957 70.4663 79.4059 70.4663 82.6257C70.4663 85.8456 74.9872 88.4558 80.5639 88.4558Z" fill="#E0E0E0"/>
<path d="M94.1129 75.605C95.2071 76.2374 95.2071 77.2616 94.1129 77.8941C93.0186 78.5266 91.2438 78.5244 90.1495 77.8941C89.0553 77.2638 89.0553 76.2374 90.1495 75.605C91.2438 74.9725 93.0186 74.9725 94.1129 75.605Z" fill="#E0E0E0"/>
<path d="M44.8109 71.6788L52.4574 67.2581C53.2453 66.8029 53.6392 66.2076 53.6392 65.6101C53.6392 65.0127 53.6392 64.5465 53.6392 64.5465L45.706 60.0733C45.485 59.9295 45.3008 59.7357 45.1685 59.5076C45.0362 59.2795 44.9595 59.0235 44.9444 58.7602V49.3301L31.5947 57.0466V66.4724C31.6101 66.7356 31.687 66.9915 31.8193 67.2195C31.9516 67.4476 32.1355 67.6414 32.3563 67.7855L39.1056 71.6722C40.6791 72.5892 43.2352 72.5892 44.8109 71.6788Z" fill="#BA68C8"/>
<g opacity="0.6">
<path d="M44.8109 71.6788L52.4574 67.2581C53.2453 66.8029 53.6392 66.2076 53.6392 65.6101C53.6392 65.0127 53.6392 64.5465 53.6392 64.5465L45.706 60.0733C45.485 59.9295 45.3008 59.7357 45.1685 59.5076C45.0362 59.2795 44.9595 59.0235 44.9444 58.7602V49.3301L31.5947 57.0466V66.4724C31.6101 66.7356 31.687 66.9915 31.8193 67.2195C31.9516 67.4476 32.1355 67.6414 32.3563 67.7855L39.1056 71.6722C40.6791 72.5892 43.2352 72.5892 44.8109 71.6788Z" fill="black"/>
</g>
<path opacity="0.3" d="M34.8008 68.1426V69.2018L32.3519 67.7903C32.1312 67.6464 31.9474 67.4525 31.8154 67.2244C31.6835 66.9963 31.6072 66.7403 31.5925 66.4772V57.0471L34.1355 55.5742C34.1881 56.2308 34.2471 56.8873 34.2997 57.5438L32.5139 58.5768V65.941C32.5281 66.2045 32.6045 66.4609 32.7368 66.6891C32.8692 66.9173 33.0538 67.111 33.2755 67.2541L34.8008 68.1426Z" fill="black"/>
<path d="M32.5139 65.9431C32.529 66.2063 32.6057 66.4624 32.738 66.6905C32.8703 66.9186 33.0545 67.1124 33.2755 67.2562L39.1012 70.6133C40.6769 71.5215 43.2331 71.5237 44.811 70.6133L52.4706 66.1926C54.0485 65.2821 54.0485 63.8071 52.4706 62.8967L46.6427 59.5396C46.4215 59.3959 46.2373 59.2022 46.105 58.9741C45.9727 58.7459 45.896 58.4898 45.8811 58.2265V50.8601L32.5314 58.5767L32.5139 65.9431Z" fill="#BA68C8"/>
<path opacity="0.3" d="M32.5139 65.9431C32.529 66.2063 32.6057 66.4624 32.738 66.6905C32.8703 66.9186 33.0545 67.1124 33.2755 67.2562L39.1012 70.6133C40.6769 71.5215 43.2331 71.5237 44.811 70.6133L52.4706 66.1926C54.0485 65.2821 54.0485 63.8071 52.4706 62.8967L46.6427 59.5396C46.4215 59.3959 46.2373 59.2022 46.105 58.9741C45.9727 58.7459 45.896 58.4898 45.8811 58.2265V50.8601L32.5314 58.5767L32.5139 65.9431Z" fill="black"/>
<path opacity="0.5" d="M48.1812 60.4391L46.6318 59.544C46.4106 59.4003 46.2264 59.2066 46.0941 58.9784C45.9618 58.7503 45.8851 58.4942 45.8702 58.2309V50.8601L32.5205 58.5767V65.9431C32.5355 66.2063 32.6123 66.4624 32.7446 66.6905C32.8769 66.9186 33.061 67.1124 33.2821 67.2562L34.814 68.1315L48.1812 60.4391Z" fill="black"/>
<path d="M53.6413 64.5469V65.6105C53.6413 66.2079 53.2452 66.801 52.4595 67.2584L44.7998 71.6769C43.9616 72.1244 43.0254 72.3567 42.0752 72.3532V71.2939C43.0254 71.2975 43.9616 71.0651 44.7998 70.6177L52.4595 66.1948C53.2452 65.744 53.6413 65.1465 53.6413 64.5469Z" fill="#BA68C8"/>
<path opacity="0.5" d="M53.6413 64.5469V65.6105C53.6413 66.2079 53.2452 66.801 52.4595 67.2584L44.7998 71.6769C43.9616 72.1244 43.0254 72.3567 42.0752 72.3532V71.2939C43.0254 71.2975 43.9616 71.0651 44.7998 70.6177L52.4595 66.1948C53.2452 65.744 53.6413 65.1465 53.6413 64.5469Z" fill="black"/>
<path d="M11.0714 75.0976C11.36 75.237 11.6773 75.3066 11.9977 75.3009C12.3182 75.2952 12.6328 75.2143 12.9163 75.0648L64.5642 45.2468C64.8412 45.0662 65.0717 44.8229 65.2371 44.5366C65.4025 44.2503 65.4981 43.929 65.5162 43.5989V1.81655C65.5039 1.49666 65.4164 1.18417 65.2609 0.904345C65.1054 0.624524 64.8863 0.385233 64.6211 0.20583C64.3329 0.066283 64.0158 -0.00327552 63.6956 0.00280882C63.3754 0.00889316 63.0612 0.0904486 62.7784 0.240845L11.1305 30.0566C10.8537 30.2368 10.6235 30.4797 10.4584 30.7657C10.2934 31.0517 10.1982 31.3726 10.1807 31.7023V73.4847C10.1922 73.8046 10.2788 74.1172 10.4335 74.3974C10.5883 74.6776 10.8068 74.9175 11.0714 75.0976Z" fill="#BA68C8"/>
<path d="M12.916 75.0623L64.5639 45.2443C64.841 45.0638 65.0716 44.8205 65.237 44.5342C65.4024 44.2479 65.498 43.9266 65.5159 43.5964V1.81623C65.5159 1.21003 65.0892 0.962728 64.5639 1.26693L12.916 31.0849C12.6389 31.2654 12.4083 31.5087 12.2429 31.795C12.0775 32.0813 11.9819 32.4026 11.964 32.7328V74.513C11.964 75.1192 12.3907 75.3665 12.916 75.0623Z" fill="#BA68C8"/>
<path opacity="0.5" d="M12.916 75.0623L64.5639 45.2443C64.841 45.0638 65.0716 44.8205 65.237 44.5342C65.4024 44.2479 65.498 43.9266 65.5159 43.5964V1.81623C65.5159 1.21003 65.0892 0.962728 64.5639 1.26693L12.916 31.0849C12.6389 31.2654 12.4083 31.5087 12.2429 31.795C12.0775 32.0813 11.9819 32.4026 11.964 32.7328V74.513C11.964 75.1192 12.3907 75.3665 12.916 75.0623Z" fill="black"/>
<path d="M12.7759 76.1458C12.506 76.2631 12.2139 76.3206 11.9197 76.3146C11.6255 76.3085 11.336 76.239 11.0711 76.1108C10.8056 75.9304 10.5864 75.6899 10.4313 75.4089C10.2762 75.1279 10.1895 74.8143 10.1782 74.4935V70.6921L11.9618 71.7251V75.5287C11.9618 76.0824 12.3142 76.334 12.7759 76.1458Z" fill="#BA68C8"/>
<path opacity="0.5" d="M12.7759 76.1458C12.506 76.2631 12.2139 76.3206 11.9197 76.3146C11.6255 76.3085 11.336 76.239 11.0711 76.1108C10.8056 75.9304 10.5864 75.6899 10.4313 75.4089C10.2762 75.1279 10.1895 74.8143 10.1782 74.4935V70.6921L11.9618 71.7251V75.5287C11.9618 76.0824 12.3142 76.334 12.7759 76.1458Z" fill="black"/>
<path d="M11.9618 71.7249V75.5284C11.9618 76.1346 12.3995 76.3798 12.9138 76.0778L64.5618 46.2598C64.8387 46.0792 65.0692 45.8358 65.2346 45.5495C65.4 45.2632 65.4956 44.942 65.5137 44.6119V40.7996L11.9618 71.7249Z" fill="#BA68C8"/>
<path opacity="0.3" d="M11.964 71.7161V75.5284C11.964 76.1346 12.4017 76.3798 12.916 76.0778L64.5639 46.2598C64.8409 46.0792 65.0714 45.8358 65.2368 45.5495C65.4022 45.2632 65.4978 44.942 65.5159 44.6119V40.7996L11.964 71.7161Z" fill="black"/>
<path d="M13.7477 66.954V33.3237C13.7582 33.1261 13.8152 32.9337 13.9141 32.7622C14.013 32.5907 14.1509 32.4449 14.3167 32.3367L63.1569 4.14482C63.472 3.96318 63.728 4.10981 63.728 4.4731V38.0968C63.7174 38.295 63.6602 38.4879 63.5609 38.6598C63.4617 38.8317 63.3232 38.9777 63.1569 39.086L14.3211 67.2823C14.0037 67.4639 13.7477 67.3151 13.7477 66.954Z" fill="#BA68C8"/>
<path d="M13.7477 66.954V33.3237C13.7582 33.1261 13.8152 32.9337 13.9141 32.7622C14.013 32.5907 14.1509 32.4449 14.3167 32.3367L63.1569 4.14482C63.472 3.96318 63.728 4.10981 63.728 4.4731V38.0968C63.7174 38.295 63.6602 38.4879 63.5609 38.6598C63.4617 38.8317 63.3232 38.9777 63.1569 39.086L14.3211 67.2823C14.0037 67.4639 13.7477 67.3151 13.7477 66.954Z" fill="#263238"/>
<path opacity="0.7" d="M12.2441 31.7918C12.0745 32.0769 11.9776 32.3993 11.9618 32.7306V71.7248L10.1782 70.6919V31.702C10.19 31.3703 10.2864 31.0471 10.4583 30.7632L12.2441 31.7918Z" fill="black"/>
<path opacity="0.3" d="M65.5052 1.65875C65.4373 1.16853 65.0412 0.991263 64.5619 1.26482L12.9162 31.085C12.6361 31.2601 12.405 31.5033 12.2443 31.7918L10.4585 30.7611C10.6203 30.4726 10.8521 30.2295 11.1325 30.0542L62.7805 0.238428C63.0636 0.08801 63.3782 0.00645115 63.6988 0.000367333C64.0193 -0.00571648 64.3368 0.0638461 64.6254 0.203412C64.8676 0.368942 65.0715 0.584517 65.2233 0.835581C65.375 1.08664 65.4712 1.36735 65.5052 1.65875Z" fill="black"/>
<path d="M17.7373 39.7622C17.6067 39.6718 17.4991 39.552 17.4231 39.4126C17.3471 39.2731 17.3048 39.1178 17.2996 38.959V35.2583C17.309 35.0939 17.3569 34.934 17.4394 34.7915C17.5219 34.649 17.6366 34.5278 17.7745 34.4376L66.3783 6.37047C66.5151 6.28432 66.6729 6.23715 66.8346 6.23405C66.9963 6.23095 67.1557 6.27203 67.2958 6.35287C67.4358 6.4337 67.5512 6.55123 67.6294 6.69278C67.7076 6.83433 67.7456 6.99454 67.7395 7.15613V10.8547C67.7315 11.0192 67.6845 11.1794 67.6023 11.3221C67.5201 11.4648 67.4051 11.5859 67.2668 11.6753L18.6542 39.7447C18.5136 39.8197 18.3572 39.8604 18.1978 39.8634C18.0385 39.8664 17.8807 39.8318 17.7373 39.7622Z" fill="#BA68C8"/>
<path opacity="0.4" d="M67.7352 7.07961C67.7023 6.83451 67.5032 6.74478 67.2668 6.88265L18.6543 34.952C18.5153 35.041 18.4003 35.1627 18.3194 35.3065L17.4309 34.7835C17.5111 34.6392 17.6262 34.5173 17.7657 34.429L66.3783 6.37055C66.5087 6.28459 66.6598 6.23509 66.8158 6.22719C66.9718 6.2193 67.1271 6.25328 67.2655 6.32562C67.4039 6.39797 67.5205 6.50604 67.6031 6.63862C67.6857 6.7712 67.7313 6.92346 67.7352 7.07961Z" fill="white"/>
<path d="M18.6542 69.8513C18.5416 69.9195 18.4137 69.9586 18.2822 69.9651C18.095 69.9889 17.905 69.9554 17.7373 69.8689C17.6063 69.7788 17.4984 69.6591 17.4224 69.5196C17.3463 69.38 17.3043 69.2245 17.2996 69.0657V40.8716L18.1903 41.3859V69.58C18.1903 69.7988 18.2975 69.9192 18.4529 69.9192C18.5244 69.9128 18.5934 69.8895 18.6542 69.8513Z" fill="#F0F0F0"/>
<path opacity="0.1" d="M18.3195 35.3063C18.2344 35.4473 18.1869 35.6078 18.1816 35.7724V41.3859L17.2909 40.8716V35.2581C17.2909 35.2384 17.2909 35.2209 17.2909 35.2012C17.295 35.1622 17.3015 35.1235 17.3106 35.0853C17.3351 34.9821 17.3749 34.8833 17.4288 34.792L18.3195 35.3063Z" fill="black"/>
<path d="M67.7395 7.15584V9.6879L32.8771 29.8219C32.6167 29.9729 32.4044 29.8503 32.4044 29.5483V28.5897C32.4044 28.2877 32.1855 28.1652 31.9295 28.3162L20.4334 34.9538C20.2952 35.0436 20.1802 35.1647 20.0977 35.3073C20.0151 35.4499 19.9675 35.61 19.9585 35.7745V36.7331C19.9495 36.8973 19.902 37.0571 19.8199 37.1997C19.7378 37.3422 19.6234 37.4635 19.4858 37.5537L18.1727 38.3066V35.7723C18.1818 35.6081 18.2292 35.4482 18.3113 35.3057C18.3935 35.1631 18.5079 35.0419 18.6454 34.9516L67.2668 6.88228C67.5272 6.73127 67.7395 6.85383 67.7395 7.15584Z" fill="#BA68C8"/>
<path d="M67.7395 40.9615C67.731 41.1262 67.6837 41.2865 67.6016 41.4295C67.5195 41.5725 67.4048 41.6941 67.2668 41.7844L18.6542 69.8515C18.3938 70.0026 18.1815 69.88 18.1815 69.578V38.3047L19.4946 37.5519C19.755 37.4009 20.1796 35.103 20.4422 34.952L31.7457 28.4237C32.0083 28.2727 32.6211 29.971 32.8859 29.82L67.7483 9.68604V40.9593L67.7395 40.9615Z" fill="#FAFAFA"/>
<path d="M67.5206 10.0668V40.9615C67.5123 41.0877 67.4752 41.2102 67.4122 41.3198C67.3493 41.4294 67.2621 41.5232 67.1573 41.594L18.5448 69.6633C18.5146 69.6831 18.48 69.6952 18.4441 69.6984C18.4003 69.6984 18.4003 69.5846 18.4003 69.578V38.4295L19.5952 37.7401C19.7856 37.6307 19.9038 37.263 20.1686 36.3154C20.2637 35.9099 20.3948 35.5136 20.5604 35.1314L31.7632 28.6557C31.8944 28.8374 32.0136 29.0275 32.1199 29.2247C32.4241 29.7609 32.5948 30.041 32.8421 30.041C32.8929 30.0413 32.9428 30.0276 32.9865 30.0016L67.5206 10.0603M67.7395 9.68823L32.8771 29.8222C32.8656 29.8255 32.8535 29.8255 32.8421 29.8222C32.5773 29.8222 32.0389 28.4084 31.7719 28.4084C31.7604 28.4055 31.7484 28.4055 31.7369 28.4084L20.4334 34.9366C20.1708 35.0877 19.7462 37.3856 19.4858 37.5366L18.1727 38.2894V69.5802C18.1727 69.799 18.28 69.9194 18.4353 69.9194C18.5129 69.9179 18.5886 69.8952 18.6542 69.8537L67.2668 41.7866C67.4047 41.6963 67.5194 41.5747 67.6016 41.4317C67.6837 41.2887 67.7309 41.1284 67.7395 40.9637V9.68823Z" fill="#E0E0E0"/>
<path d="M26.4978 51.9782L32.9756 48.2381C33.1507 48.1374 33.2908 48.2184 33.2908 48.4197V59.3293C33.2851 59.4388 33.2536 59.5455 33.1988 59.6406C33.1441 59.7357 33.0676 59.8165 32.9756 59.8764L26.4978 63.6165C26.3227 63.7171 26.1826 63.634 26.1826 63.4326V52.5253C26.1883 52.4157 26.2198 52.309 26.2746 52.2139C26.3293 52.1189 26.4058 52.0381 26.4978 51.9782Z" fill="#F0F0F0"/>
<path d="M27.6817 52.6609L31.7917 50.2886C31.9646 50.188 32.1068 50.2602 32.1068 50.4484C32.099 50.5545 32.0664 50.6573 32.0117 50.7485C31.9569 50.8397 31.8816 50.9168 31.7917 50.9736L27.6817 53.3459C27.5088 53.4466 27.3666 53.3744 27.3666 53.1862C27.3746 53.0801 27.4072 52.9774 27.4619 52.8862C27.5167 52.7951 27.5919 52.7179 27.6817 52.6609Z" fill="#E0E0E0"/>
<path d="M27.3666 54.4312V54.6785C27.3666 54.7989 27.4519 54.8471 27.557 54.788L27.7758 54.6632C27.8315 54.6277 27.8778 54.5793 27.9109 54.5222C27.944 54.4651 27.963 54.4009 27.9662 54.335V54.0898C27.9662 53.9673 27.8809 53.9191 27.7758 53.9804L27.557 54.103C27.5017 54.1389 27.4557 54.1874 27.4226 54.2444C27.3895 54.3014 27.3703 54.3654 27.3666 54.4312Z" fill="#BA68C8"/>
<path d="M28.546 53.871C28.546 54.0592 28.6883 54.1314 28.8633 54.0308L31.7871 52.3413C31.8769 52.2848 31.9522 52.208 32.0069 52.1172C32.0616 52.0264 32.0943 51.924 32.1023 51.8182C32.1023 51.6278 31.96 51.5578 31.7871 51.6585L28.8633 53.3458C28.7728 53.4021 28.6968 53.479 28.6417 53.5703C28.5865 53.6616 28.5537 53.7646 28.546 53.871Z" fill="#E0E0E0"/>
<path d="M27.3666 55.7928V56.0401C27.3666 56.1605 27.4519 56.2086 27.557 56.1495L27.7758 56.0248C27.8312 55.989 27.8773 55.9406 27.9104 55.8835C27.9435 55.8265 27.9626 55.7624 27.9662 55.6965V55.4514C27.9662 55.3289 27.8809 55.2807 27.7758 55.342L27.557 55.4645C27.5017 55.5005 27.4557 55.5489 27.4226 55.606C27.3895 55.663 27.3703 55.727 27.3666 55.7928Z" fill="#BA68C8"/>
<path d="M28.546 55.2411C28.546 55.4293 28.6883 55.5015 28.8633 55.4009L31.7871 53.7114C31.8769 53.6549 31.9522 53.5782 32.0069 53.4873C32.0616 53.3965 32.0943 53.2941 32.1023 53.1883C32.1023 52.9979 31.96 52.9279 31.7871 53.0286L28.8633 54.7159C28.7728 54.7722 28.6968 54.8492 28.6417 54.9404C28.5865 55.0317 28.5537 55.1348 28.546 55.2411Z" fill="#E0E0E0"/>
<path d="M27.3666 57.1691V57.4142C27.3666 57.5368 27.4519 57.5849 27.557 57.5237L27.7758 57.4011C27.8311 57.3652 27.8771 57.3167 27.9102 57.2597C27.9433 57.2027 27.9625 57.1387 27.9662 57.0728V56.8255C27.9662 56.7052 27.8809 56.657 27.7758 56.7161L27.557 56.8409C27.5016 56.8767 27.4555 56.9251 27.4224 56.9821C27.3893 57.0392 27.3702 57.1033 27.3666 57.1691Z" fill="#BA68C8"/>
<path d="M28.546 56.6069C28.546 56.7973 28.6883 56.8673 28.8633 56.7666L31.7871 55.0793C31.8769 55.0228 31.9522 54.9461 32.0069 54.8552C32.0616 54.7644 32.0943 54.662 32.1023 54.5563C32.1023 54.3659 31.96 54.2958 31.7871 54.3965L28.8633 56.0838C28.7731 56.1399 28.6973 56.2165 28.6422 56.3074C28.587 56.3983 28.5541 56.5009 28.546 56.6069Z" fill="#E0E0E0"/>
<path d="M27.3666 58.5349V58.7822C27.3666 58.9025 27.4519 58.9529 27.557 58.8916L27.7758 58.769C27.8311 58.7331 27.8771 58.6847 27.9102 58.6276C27.9433 58.5706 27.9625 58.5066 27.9662 58.4408V58.2C27.9662 58.0797 27.8809 58.0293 27.7758 58.0906L27.557 58.2132C27.5026 58.2485 27.4571 58.2959 27.424 58.3517C27.391 58.4075 27.3713 58.4702 27.3666 58.5349Z" fill="#BA68C8"/>
<path d="M28.546 57.9812C28.546 58.1694 28.6883 58.2416 28.8633 58.1409L31.7915 56.4492C31.8813 56.3923 31.9566 56.3151 32.0113 56.2239C32.066 56.1327 32.0987 56.03 32.1067 55.924C32.1067 55.7358 31.9644 55.6636 31.7915 55.7642L28.8677 57.4515C28.776 57.5081 28.699 57.5855 28.6431 57.6776C28.5872 57.7697 28.5539 57.8737 28.546 57.9812Z" fill="#E0E0E0"/>
<path d="M27.6575 60.2026L31.7652 57.8303C31.9403 57.7297 32.0825 57.7997 32.0825 57.9901C32.0745 58.0961 32.0415 58.1987 31.9864 58.2896C31.9313 58.3804 31.8555 58.457 31.7652 58.5131L27.6575 60.8854C27.4824 60.9861 27.3401 60.9161 27.3423 60.7257C27.35 60.6199 27.3825 60.5173 27.4373 60.4264C27.492 60.3355 27.5675 60.2589 27.6575 60.2026Z" fill="#E0E0E0"/>
<path d="M27.3402 61.9706V62.2179C27.3402 62.3383 27.4256 62.3886 27.5306 62.3274L27.7495 62.2048C27.8044 62.1687 27.8501 62.1202 27.8828 62.0632C27.9155 62.0062 27.9343 61.9422 27.9377 61.8765V61.6292C27.9377 61.5089 27.8523 61.4585 27.7495 61.5198L27.5306 61.6424C27.4753 61.6783 27.4293 61.7268 27.3962 61.7838C27.3632 61.8408 27.344 61.9048 27.3402 61.9706Z" fill="#BA68C8"/>
<path d="M28.5264 61.4104C28.5264 61.5986 28.6686 61.6708 28.8415 61.5701L31.7653 59.8828C31.8556 59.8262 31.9314 59.7492 31.9865 59.658C32.0416 59.5668 32.0746 59.4639 32.0826 59.3576C32.0826 59.1694 31.9404 59.0972 31.7653 59.1978L28.8415 60.8851C28.7517 60.9421 28.6764 61.0192 28.6217 61.1104C28.567 61.2016 28.5344 61.3043 28.5264 61.4104Z" fill="#E0E0E0"/>
<path d="M65.5181 8.74052C65.8486 8.55012 66.1156 8.70551 66.1156 9.0863C66.1046 9.29343 66.0448 9.49502 65.941 9.67457C65.8371 9.85411 65.6922 10.0065 65.5181 10.1193C65.1898 10.3075 64.9229 10.1543 64.9229 9.77348C64.9335 9.56655 64.993 9.36508 65.0965 9.18555C65.1999 9.00602 65.3444 8.85352 65.5181 8.74052Z" fill="white"/>
<path d="M63.3713 9.9812C63.7017 9.79081 63.9687 9.944 63.9687 10.3248C63.9592 10.5334 63.9 10.7368 63.7961 10.918C63.6921 11.0991 63.5465 11.2529 63.3713 11.3665C63.043 11.5569 62.776 11.4015 62.776 11.0229C62.7853 10.8145 62.8442 10.6113 62.9477 10.4301C63.0512 10.2489 63.1964 10.0951 63.3713 9.9812Z" fill="white"/>
<path d="M61.6471 12.1522C61.8797 11.7492 61.88 11.3137 61.6476 11.1796C61.4152 11.0454 61.0382 11.2633 60.8056 11.6663C60.5729 12.0693 60.5727 12.5048 60.805 12.6389C61.0374 12.7731 61.4144 12.5551 61.6471 12.1522Z" fill="white"/>
<path d="M67.7395 9.68823V12.7696L18.1815 41.3861V38.3047L19.1554 37.7401C19.4158 37.5891 19.5034 37.3593 19.6281 36.9194L19.9586 35.7726C20.0636 35.3743 20.1774 35.103 20.4335 34.952L31.7369 28.4238C31.9995 28.2727 32.2053 28.2574 32.3935 28.5879L32.7983 29.3232C32.9472 29.5793 33.0172 29.7303 33.282 29.5793L67.7395 9.68823Z" fill="#E6E6E6"/>
<path d="M18.1816 38.3046V41.386L17.2909 40.8717V37.7925L18.1816 38.3046Z" fill="#E0E0E0"/>
<path opacity="0.5" d="M20.3547 38.5257L19.6106 38.9634L19.8951 38.4184C19.9062 38.3979 19.912 38.375 19.912 38.3517C19.912 38.3284 19.9062 38.3054 19.8951 38.2849C19.8732 38.2587 19.8338 38.2849 19.8098 38.3265L19.4071 39.1012C19.4071 39.1012 19.4071 39.1187 19.3962 39.1297C19.3941 39.1427 19.3941 39.156 19.3962 39.1691C19.3937 39.1806 19.3937 39.1926 19.3962 39.2041C19.3993 39.2102 19.403 39.2161 19.4071 39.2216L19.8098 39.5302C19.8155 39.5344 19.8224 39.5367 19.8295 39.5367C19.8366 39.5367 19.8435 39.5344 19.8492 39.5302C19.8703 39.5168 19.8865 39.4968 19.8951 39.4733C19.9069 39.4542 19.9132 39.4322 19.9132 39.4098C19.9132 39.3874 19.9069 39.3654 19.8951 39.3463L19.6106 39.1275L20.3547 38.6898C20.3742 38.675 20.3899 38.6557 20.4006 38.6337C20.4112 38.6116 20.4165 38.5874 20.416 38.5629C20.416 38.5322 20.3875 38.5038 20.3547 38.5257Z" fill="#455A64"/>
<path opacity="0.5" d="M20.9762 38.1669L21.7203 37.7292L21.4358 37.5103C21.4117 37.4928 21.4095 37.4359 21.4358 37.3834C21.462 37.3309 21.4949 37.309 21.5189 37.3265L21.9238 37.6373C21.9252 37.6423 21.9252 37.6476 21.9238 37.6526C21.9252 37.6635 21.9252 37.6745 21.9238 37.6854C21.9249 37.6992 21.9249 37.7131 21.9238 37.727C21.9247 37.7364 21.9247 37.746 21.9238 37.7554L21.5189 38.5323C21.5106 38.5512 21.4969 38.5672 21.4796 38.5783C21.4767 38.5812 21.4733 38.5835 21.4695 38.5851C21.4658 38.5867 21.4617 38.5875 21.4577 38.5875C21.4536 38.5875 21.4496 38.5867 21.4458 38.5851C21.442 38.5835 21.4386 38.5812 21.4358 38.5783C21.4245 38.5579 21.4185 38.5349 21.4185 38.5116C21.4185 38.4882 21.4245 38.4652 21.4358 38.4448L21.7203 37.8999L20.9762 38.3376C20.9434 38.3573 20.9171 38.3376 20.9171 38.2807C20.9186 38.2586 20.9246 38.2372 20.9347 38.2176C20.9449 38.198 20.959 38.1807 20.9762 38.1669Z" fill="#455A64"/>
<path opacity="0.5" d="M23.4162 36.0242C23.4162 35.9804 23.3725 35.987 23.3528 36.0351L23.2521 36.2846C23.077 36.2649 22.8669 36.4356 22.7247 36.7354C22.5408 37.125 22.5408 37.5868 22.7247 37.764C22.7694 37.8058 22.8274 37.8307 22.8885 37.8343C22.9497 37.8379 23.0102 37.82 23.0595 37.7837C23.2076 37.6842 23.3232 37.5434 23.3921 37.3788C23.4041 37.359 23.4104 37.3363 23.4104 37.3132C23.4104 37.29 23.4041 37.2673 23.3921 37.2475C23.3703 37.2257 23.3309 37.2475 23.309 37.2979C23.1711 37.5889 22.9479 37.7181 22.81 37.5846C22.6721 37.4511 22.6721 37.1075 22.81 36.8164C22.9063 36.6107 23.0486 36.4881 23.1711 36.4794L23.0945 36.6676C23.0748 36.7157 23.0945 36.7617 23.123 36.742L23.4272 36.5428C23.4393 36.5329 23.4486 36.5201 23.4544 36.5055C23.4601 36.491 23.4621 36.4752 23.46 36.4597L23.4162 36.0242Z" fill="#455A64"/>
<path opacity="0.5" d="M31.4108 29.8309L31.6821 29.2575C31.6986 29.2305 31.7072 29.1994 31.7072 29.1678C31.7072 29.1361 31.6986 29.1051 31.6821 29.0781C31.6493 29.0474 31.599 29.0781 31.5662 29.1459L31.2948 29.7193L31.0234 29.4589C30.9928 29.4282 30.9402 29.4589 30.9074 29.5245C30.8921 29.5519 30.884 29.5828 30.884 29.6142C30.884 29.6457 30.8921 29.6765 30.9074 29.704L31.1722 29.9688L30.9009 30.5443C30.8855 30.5714 30.8774 30.6019 30.8774 30.633C30.8774 30.664 30.8855 30.6946 30.9009 30.7216C30.9093 30.7282 30.9197 30.7317 30.9304 30.7317C30.9411 30.7317 30.9515 30.7282 30.9599 30.7216C30.9848 30.7037 31.0044 30.6795 31.0168 30.6516L31.2882 30.076L31.5596 30.3386C31.5679 30.3456 31.5783 30.3494 31.5891 30.3494C31.5999 30.3494 31.6104 30.3456 31.6187 30.3386C31.644 30.3212 31.6637 30.2969 31.6756 30.2686C31.692 30.2415 31.7007 30.2105 31.7007 30.1789C31.7007 30.1472 31.692 30.1162 31.6756 30.0891L31.4108 29.8309Z" fill="#455A64"/>
<path d="M24.4033 36.7313V35.7727C24.4123 35.6082 24.4599 35.4481 24.5424 35.3055C24.625 35.1629 24.74 35.0418 24.8782 34.952L64.6012 12.0234C64.8616 11.8724 65.0739 11.9949 65.0739 12.2969V13.2555C65.0649 13.4198 65.0174 13.5796 64.9353 13.7221C64.8532 13.8647 64.7388 13.986 64.6012 14.0762L24.8782 37.0048C24.6068 37.1558 24.4033 37.0333 24.4033 36.7313Z" fill="#FAFAFA"/>
<path d="M63.9557 14.1527C63.942 14.1552 63.9279 14.1552 63.9141 14.1527C63.8879 14.1405 63.8665 14.1198 63.8534 14.094C63.8403 14.0682 63.8363 14.0388 63.8419 14.0104L63.8879 13.6209L63.7062 13.4895C63.6898 13.4771 63.6766 13.4608 63.6678 13.4422C63.659 13.4235 63.6549 13.4029 63.6559 13.3823C63.6565 13.3509 63.6638 13.32 63.6774 13.2917C63.691 13.2633 63.7105 13.2383 63.7347 13.2182L64.0126 12.9993C64.0181 12.9931 64.0219 12.9856 64.0236 12.9774L64.1483 12.5682C64.1563 12.535 64.1739 12.505 64.1987 12.4816C64.2236 12.4583 64.2548 12.4428 64.2884 12.4369C64.3112 12.435 64.334 12.4403 64.3536 12.4521C64.3733 12.4639 64.3887 12.4815 64.3978 12.5025L64.5028 12.7214L64.737 12.6317C64.7585 12.6229 64.7822 12.6209 64.8049 12.626C64.8276 12.6311 64.8482 12.643 64.8639 12.6601C64.8825 12.6888 64.8924 12.7222 64.8924 12.7564C64.8924 12.7906 64.8825 12.824 64.8639 12.8527L64.6626 13.2291C64.6626 13.2291 64.6626 13.251 64.6626 13.2532L64.7086 13.5946C64.7136 13.6265 64.7115 13.6592 64.7024 13.6902C64.6933 13.7212 64.6775 13.7499 64.656 13.774C64.6424 13.7892 64.6254 13.8011 64.6064 13.8087C64.5874 13.8163 64.567 13.8194 64.5466 13.8178L64.3278 13.7894L64.0827 14.1023C64.0675 14.1208 64.048 14.1352 64.0257 14.144C64.0035 14.1528 63.9794 14.1558 63.9557 14.1527ZM63.8222 13.3604L64.0039 13.4917C64.0227 13.5075 64.0371 13.5279 64.0455 13.551C64.054 13.574 64.0562 13.5989 64.052 13.623L64.0214 13.8813L64.1855 13.6734C64.1993 13.6533 64.2181 13.6372 64.2399 13.6265C64.2617 13.6157 64.286 13.6108 64.3103 13.6121L64.5291 13.6406C64.5307 13.6319 64.5307 13.623 64.5291 13.6143L64.481 13.2729C64.4769 13.2306 64.4853 13.188 64.505 13.1503L64.6823 12.8199L64.5007 12.8899C64.4736 12.9009 64.4434 12.9008 64.4164 12.8898C64.3894 12.8788 64.3678 12.8576 64.3562 12.8308L64.2752 12.6579L64.1636 13.0212C64.1513 13.0613 64.1278 13.097 64.0958 13.1241L63.8157 13.3429C63.8167 13.3491 63.819 13.3551 63.8222 13.3604Z" fill="#E0E0E0"/>
<g opacity="0.5">
<path d="M65.6319 11.9095C65.5958 11.9093 65.5608 11.8972 65.5323 11.8751C65.5037 11.853 65.4833 11.8222 65.4741 11.7873C65.4649 11.7524 65.4674 11.7155 65.4813 11.6822C65.4952 11.6489 65.5196 11.6211 65.5509 11.6031L66.8837 10.8328C66.9214 10.811 66.9662 10.8051 67.0083 10.8164C67.0504 10.8277 67.0862 10.8552 67.108 10.893C67.1297 10.9307 67.1356 10.9755 67.1243 11.0176C67.1131 11.0596 67.0855 11.0955 67.0478 11.1173L65.715 11.8876C65.6897 11.9022 65.661 11.9097 65.6319 11.9095Z" fill="#455A64"/>
<path d="M65.6319 12.6798C65.5958 12.6796 65.5608 12.6675 65.5323 12.6454C65.5037 12.6233 65.4833 12.5924 65.4741 12.5576C65.4649 12.5227 65.4674 12.4857 65.4813 12.4525C65.4952 12.4192 65.5196 12.3914 65.5509 12.3734L66.8837 11.603C66.9214 11.5813 66.9662 11.5754 67.0083 11.5867C67.0504 11.598 67.0862 11.6255 67.108 11.6632C67.1297 11.7009 67.1356 11.7458 67.1243 11.7878C67.1131 11.8299 67.0855 11.8658 67.0478 11.8875L65.715 12.6579C65.6894 12.6715 65.6609 12.679 65.6319 12.6798Z" fill="#455A64"/>
<path d="M65.6319 13.45C65.5958 13.4498 65.5608 13.4377 65.5323 13.4156C65.5037 13.3935 65.4833 13.3627 65.4741 13.3278C65.4649 13.2929 65.4674 13.256 65.4813 13.2227C65.4952 13.1894 65.5196 13.1616 65.5509 13.1436L66.8837 12.3733C66.9206 12.3525 66.9642 12.3471 67.0051 12.3581C67.0461 12.3692 67.081 12.3958 67.1025 12.4324C67.1227 12.4694 67.1278 12.5129 67.1168 12.5536C67.1058 12.5944 67.0795 12.6293 67.0434 12.6512L65.7106 13.4194C65.6875 13.4362 65.6603 13.4467 65.6319 13.45Z" fill="#455A64"/>
</g>
<path d="M18.1815 41.386L18.1793 44.463L67.7351 15.8531L67.7395 12.7695L18.1815 41.386Z" fill="#455A64"/>
<path d="M23.7314 39.423V40.0183C23.7314 40.1408 23.8168 40.189 23.9218 40.1277L31.3627 35.8274V34.7834L23.9218 39.0838C23.8654 39.1211 23.8186 39.1713 23.7855 39.2303C23.7524 39.2893 23.7339 39.3554 23.7314 39.423Z" fill="#FAFAFA"/>
<path d="M32.376 34.2078C32.4832 34.1465 32.5685 34.1968 32.5685 34.3194V34.9146C32.5651 34.9811 32.5458 35.0457 32.5123 35.1032C32.4788 35.1607 32.432 35.2093 32.376 35.2451L31.3693 35.8272V34.7833L32.376 34.2078Z" fill="#BA68C8"/>
<path d="M32.3016 35.0243L32.19 34.9892C32.2012 34.9419 32.2071 34.8935 32.2075 34.8448C32.2125 34.7995 32.2057 34.7537 32.1877 34.7119C32.1696 34.6701 32.141 34.6337 32.1047 34.6063C32.0803 34.5914 32.0523 34.5835 32.0237 34.5835C31.9951 34.5835 31.9671 34.5914 31.9427 34.6063C31.8723 34.6614 31.8158 34.7323 31.7778 34.8133C31.7398 34.8942 31.7213 34.983 31.7239 35.0724C31.7185 35.118 31.7251 35.1643 31.7432 35.2065C31.7612 35.2487 31.79 35.2855 31.8267 35.3131C31.8485 35.3262 31.8735 35.3331 31.899 35.3328C31.9317 35.3322 31.9635 35.3224 31.9909 35.3044C32.0758 35.2449 32.1394 35.1598 32.1725 35.0615L32.2841 35.0965H32.2973C32.306 35.0965 32.3145 35.0937 32.3215 35.0886C32.3286 35.0835 32.3339 35.0763 32.3366 35.068C32.3369 35.0578 32.3335 35.0478 32.3271 35.0398C32.3207 35.0318 32.3117 35.0263 32.3016 35.0243ZM31.9427 35.2431C31.9307 35.2509 31.9166 35.2551 31.9022 35.2551C31.8879 35.2551 31.8738 35.2509 31.8617 35.2431C31.8389 35.2219 31.8215 35.1955 31.8108 35.1662C31.8002 35.1369 31.7966 35.1055 31.8005 35.0746C31.7992 34.9993 31.8152 34.9247 31.847 34.8565C31.8789 34.7882 31.9258 34.7281 31.9843 34.6807C31.9993 34.6709 32.0167 34.6656 32.0346 34.6654C32.044 34.6631 32.0537 34.6631 32.0631 34.6654C32.0862 34.6864 32.1039 34.7127 32.1145 34.742C32.1252 34.7714 32.1286 34.8029 32.1244 34.8339C32.1274 34.9108 32.1125 34.9874 32.081 35.0576C32.0495 35.1278 32.0022 35.1898 31.9427 35.2387V35.2431Z" fill="#FAFAFA"/>
<path d="M22.4337 39.9547L21.926 40.2545C21.8707 40.2905 21.8247 40.3389 21.7916 40.396C21.7585 40.453 21.7394 40.517 21.7356 40.5828V41.1715C21.7356 41.2941 21.8209 41.3422 21.926 41.2809L22.4337 40.9877C22.4891 40.9519 22.5352 40.9034 22.5683 40.8464C22.6014 40.7893 22.6205 40.7253 22.6241 40.6594V40.0707C22.6241 39.9438 22.5388 39.8934 22.4337 39.9547Z" fill="#FAFAFA"/>
<path d="M40.0793 29.5156C39.8817 29.6448 39.7173 29.8187 39.5995 30.0233C39.4816 30.2278 39.4136 30.4573 39.4009 30.693C39.4009 31.1307 39.7051 31.3014 40.0793 31.0848C40.2769 30.9555 40.4413 30.7816 40.5591 30.5771C40.677 30.3725 40.745 30.1431 40.7577 29.9074C40.7577 29.4762 40.4535 29.299 40.0793 29.5156Z" fill="#BA68C8"/>
<path d="M40.0006 30.2073C39.9792 30.2078 39.958 30.2025 39.9393 30.192C39.9173 30.1773 39.8996 30.157 39.888 30.1331C39.8765 30.1093 39.8715 30.0827 39.8736 30.0563C39.8768 29.994 39.8947 29.9334 39.9259 29.8793C39.9571 29.8253 40.0007 29.7795 40.0531 29.7456C40.0761 29.7323 40.1021 29.7253 40.1286 29.7253C40.1551 29.7253 40.1812 29.7323 40.2041 29.7456C40.2261 29.7603 40.2438 29.7806 40.2554 29.8045C40.2669 29.8283 40.2719 29.8548 40.2698 29.8813C40.2666 29.9436 40.2487 30.0042 40.2175 30.0583C40.1863 30.1123 40.1427 30.1581 40.0903 30.192C40.0622 30.2047 40.0313 30.2099 40.0006 30.2073Z" fill="white"/>
<path d="M40.3485 30.2532C40.3105 30.2342 40.2681 30.2258 40.2257 30.2289C40.1834 30.232 40.1426 30.2464 40.1078 30.2707L40.0093 30.3276C39.9195 30.3846 39.8448 30.4626 39.7918 30.5549C39.7388 30.6471 39.7091 30.7509 39.7051 30.8572V30.9272C39.7656 30.9534 39.8318 30.9636 39.8974 30.9567C39.9629 30.9498 40.0256 30.9261 40.0793 30.8878C40.2352 30.7901 40.3639 30.6546 40.4535 30.4939V30.4764C40.4576 30.4332 40.4499 30.3897 40.4315 30.3505C40.413 30.3112 40.3843 30.2776 40.3485 30.2532Z" fill="white"/>
<path d="M41.6331 28.9905L46.2837 26.3031C46.4719 26.1959 46.6251 26.2768 46.6251 26.4891C46.6179 26.6056 46.5832 26.7186 46.5239 26.8191C46.4645 26.9195 46.3822 27.0044 46.2837 27.0669L41.6331 29.7499C41.4449 29.8594 41.2917 29.7762 41.2917 29.5661C41.2994 29.4501 41.3343 29.3375 41.3936 29.2375C41.453 29.1375 41.535 29.0529 41.6331 28.9905Z" fill="#E0E0E0"/>
<path d="M48.7325 24.896L51.6191 23.2152C51.8073 23.1058 51.9583 23.189 51.9605 23.3991C51.9528 23.5154 51.9179 23.6283 51.8586 23.7286C51.7993 23.829 51.7173 23.914 51.6191 23.9768L48.7325 25.6598C48.5443 25.767 48.3911 25.686 48.3911 25.4738C48.3988 25.3574 48.4337 25.2446 48.493 25.1442C48.5523 25.0438 48.6343 24.9588 48.7325 24.896Z" fill="#E0E0E0"/>
<path d="M54.0725 21.8276L56.064 20.672C56.2522 20.5626 56.4054 20.6458 56.4054 20.8559C56.3981 20.9723 56.3633 21.0853 56.304 21.1857C56.2447 21.2861 56.1624 21.3711 56.064 21.4336L54.0725 22.5913C53.8843 22.6986 53.7311 22.6176 53.7311 22.4075C53.7384 22.2908 53.7732 22.1775 53.8325 22.0767C53.8918 21.976 53.974 21.8906 54.0725 21.8276Z" fill="#E0E0E0"/>
<path d="M47.5158 26.5833C47.4937 26.5833 47.4726 26.5746 47.457 26.559C47.4414 26.5434 47.4326 26.5222 47.4326 26.5002V25.4738C47.4358 25.4543 47.4458 25.4366 47.4608 25.4238C47.4759 25.4111 47.495 25.4041 47.5147 25.4041C47.5344 25.4041 47.5535 25.4111 47.5685 25.4238C47.5836 25.4366 47.5936 25.4543 47.5968 25.4738V26.5002C47.5968 26.5218 47.5883 26.5427 47.5732 26.5582C47.558 26.5737 47.5375 26.5828 47.5158 26.5833Z" fill="#263238"/>
<path d="M52.849 23.504C52.827 23.504 52.8058 23.4952 52.7902 23.4796C52.7746 23.464 52.7659 23.4429 52.7659 23.4208V22.3944C52.7691 22.375 52.7791 22.3573 52.7941 22.3445C52.8091 22.3317 52.8282 22.3247 52.8479 22.3247C52.8677 22.3247 52.8867 22.3317 52.9018 22.3445C52.9168 22.3573 52.9268 22.375 52.93 22.3944V23.4208C52.93 23.4425 52.9216 23.4633 52.9064 23.4789C52.8913 23.4944 52.8707 23.5034 52.849 23.504Z" fill="#263238"/>
<path d="M57.2938 20.9366C57.2722 20.9366 57.2513 20.9282 57.2358 20.9131C57.2203 20.8979 57.2113 20.8773 57.2107 20.8557V19.8293C57.2087 19.8174 57.2094 19.8052 57.2126 19.7936C57.2159 19.782 57.2216 19.7712 57.2294 19.762C57.2372 19.7528 57.2469 19.7454 57.2578 19.7404C57.2688 19.7353 57.2807 19.7327 57.2928 19.7327C57.3048 19.7327 57.3167 19.7353 57.3277 19.7404C57.3386 19.7454 57.3483 19.7528 57.3561 19.762C57.3639 19.7712 57.3697 19.782 57.3729 19.7936C57.3761 19.8052 57.3768 19.8174 57.3748 19.8293V20.8557C57.3743 20.877 57.3656 20.8972 57.3505 20.9123C57.3354 20.9274 57.3151 20.9361 57.2938 20.9366Z" fill="#263238"/>
<path d="M59.0031 19.3545V19.1663C59.0031 18.9474 58.8718 18.8511 58.7099 18.9474C58.6213 19.0114 58.5489 19.0952 58.4984 19.1921C58.4478 19.2889 58.4206 19.3963 58.4188 19.5055V19.6828C58.4153 19.7996 58.3814 19.9135 58.3203 20.0132C58.305 20.0391 58.2967 20.0685 58.2963 20.0986C58.2963 20.1533 58.3291 20.1774 58.3685 20.1555L59.0535 19.7616C59.0755 19.7449 59.0935 19.7234 59.106 19.6988C59.1186 19.6741 59.1253 19.6469 59.1257 19.6193C59.1264 19.6088 59.1248 19.5983 59.121 19.5884C59.1173 19.5786 59.1114 19.5697 59.1038 19.5624C59.0677 19.5423 59.0387 19.5115 59.0207 19.4743C59.0027 19.4371 58.9966 19.3953 59.0031 19.3545Z" fill="#BA68C8"/>
<path d="M58.8521 19.9233C58.851 19.9762 58.8376 20.0281 58.8129 20.0748C58.7882 20.1215 58.7529 20.1618 58.7099 20.1925C58.6333 20.2363 58.5698 20.1925 58.5698 20.0853L58.8521 19.9233Z" fill="#BA68C8"/>
<path d="M60.2527 18.5276C60.229 18.5275 60.2057 18.5215 60.1849 18.5101C60.16 18.4935 60.14 18.4705 60.1269 18.4436C60.1138 18.4167 60.1082 18.3867 60.1105 18.3569C60.1135 18.2866 60.1333 18.2182 60.1684 18.1572C60.2034 18.0963 60.2526 18.0446 60.3118 18.0067C60.3367 17.9899 60.3655 17.9799 60.3954 17.9776C60.4254 17.9753 60.4554 17.9808 60.4825 17.9936C60.5074 18.0102 60.5274 18.0332 60.5405 18.0601C60.5536 18.087 60.5593 18.117 60.5569 18.1468C60.554 18.217 60.5341 18.2855 60.4991 18.3465C60.464 18.4074 60.4148 18.4591 60.3556 18.497C60.3244 18.5155 60.289 18.5261 60.2527 18.5276Z" fill="#BA68C8"/>
<path d="M60.6446 18.5886C60.6019 18.5678 60.5543 18.5588 60.507 18.5626C60.4596 18.5665 60.4141 18.583 60.3754 18.6105L60.2638 18.6739C60.1631 18.739 60.0793 18.8271 60.0196 18.931C59.9598 19.035 59.9257 19.1516 59.9202 19.2714V19.3502C59.9885 19.3793 60.0631 19.3906 60.137 19.3829C60.2109 19.3753 60.2816 19.349 60.3425 19.3064C60.5172 19.1975 60.6623 19.0471 60.7649 18.8687V18.849C60.7702 18.7988 60.7618 18.7481 60.7406 18.7022C60.7194 18.6564 60.6862 18.6171 60.6446 18.5886Z" fill="#BA68C8"/>
<path d="M60.7956 18.0199C60.7717 18.0209 60.7481 18.0148 60.7277 18.0023C60.7025 17.9861 60.6822 17.9632 60.6691 17.9362C60.656 17.9091 60.6505 17.879 60.6533 17.8492C60.6563 17.7789 60.6761 17.7104 60.7112 17.6495C60.7462 17.5885 60.7954 17.5369 60.8546 17.499C60.8785 17.4801 60.9075 17.4688 60.9379 17.4667C60.9682 17.4645 60.9985 17.4716 61.0248 17.487C61.051 17.5024 61.072 17.5253 61.085 17.5529C61.098 17.5804 61.1024 17.6112 61.0976 17.6412C61.0942 17.7111 61.0742 17.7792 61.0392 17.8397C61.0042 17.9003 60.9551 17.9515 60.8962 17.9892C60.8662 18.0087 60.8313 18.0193 60.7956 18.0199Z" fill="#BA68C8"/>
<path d="M61.1873 18.072C61.1444 18.0506 61.0966 18.0412 61.0489 18.0446C61.0012 18.0481 60.9552 18.0643 60.9159 18.0917L60.8065 18.1573C60.6797 18.2356 60.5808 18.3521 60.5242 18.49C60.5608 18.47 60.6018 18.4596 60.6434 18.4596C60.6851 18.4596 60.7261 18.47 60.7627 18.49C60.8035 18.5178 60.8362 18.5559 60.8573 18.6006C60.8785 18.6452 60.8874 18.6946 60.8831 18.7438V18.792C61.0595 18.6845 61.2056 18.5339 61.3076 18.3543V18.3346C61.3136 18.284 61.3055 18.2327 61.2843 18.1864C61.263 18.1401 61.2295 18.1005 61.1873 18.072Z" fill="#BA68C8"/>
<path d="M62.5397 16.6714C62.3771 16.7773 62.2418 16.9201 62.1448 17.0882C62.0478 17.2563 61.9919 17.4449 61.9816 17.6387C61.9773 17.6996 61.9863 17.7606 62.0078 17.8176C62.0293 17.8747 62.063 17.9264 62.1064 17.9692L62.0364 18.2997C62.0364 18.3412 62.056 18.3587 62.0823 18.3281L62.334 18.0348C62.4065 18.0239 62.4763 17.9994 62.5397 17.9626C62.7018 17.8564 62.8366 17.7134 62.9332 17.5454C63.0297 17.3773 63.0854 17.1889 63.0956 16.9953C63.0956 16.6386 62.8461 16.4942 62.5397 16.6714Z" fill="#BA68C8"/>
<path d="M65.2161 15.1133C65.2575 15.0865 65.3048 15.07 65.3539 15.0652C65.3923 15.06 65.4313 15.0668 65.4655 15.0849C65.4991 15.1053 65.5251 15.136 65.5399 15.1724C65.5607 15.2199 65.5704 15.2716 65.5684 15.3234C65.5691 15.3691 65.5639 15.4147 65.5531 15.4591C65.5423 15.5007 65.5291 15.5416 65.5137 15.5816C65.4962 15.6189 65.4787 15.6561 65.459 15.6911C65.4393 15.7261 65.4218 15.7589 65.4043 15.7917C65.3868 15.8246 65.3692 15.8596 65.3561 15.8924C65.3419 15.9239 65.3316 15.9569 65.3255 15.9909C65.3229 16.0064 65.3192 16.0218 65.3145 16.0368C65.3097 16.0486 65.3012 16.0585 65.2905 16.0653L65.1329 16.1572C65.1293 16.1604 65.1246 16.1622 65.1198 16.1622C65.1149 16.1622 65.1102 16.1604 65.1066 16.1572C65.0988 16.1481 65.0949 16.1363 65.0957 16.1244C65.096 16.0815 65.1019 16.0388 65.1132 15.9975C65.1255 15.9558 65.1401 15.9149 65.157 15.8749C65.1745 15.8377 65.1942 15.7983 65.2139 15.7633C65.2336 15.7283 65.2533 15.6933 65.2708 15.6604C65.2876 15.6309 65.3022 15.6002 65.3145 15.5685C65.326 15.5415 65.332 15.5125 65.332 15.4832C65.332 15.4438 65.332 15.4197 65.3036 15.4088C65.2751 15.3978 65.2554 15.4088 65.2161 15.4263C65.182 15.4448 65.1528 15.471 65.1307 15.5029C65.1151 15.5283 65.1026 15.5555 65.0935 15.5838C65.0935 15.6101 65.0782 15.6342 65.0738 15.6539C65.0687 15.6732 65.0571 15.6902 65.041 15.702L64.8812 15.7939C64.8781 15.7964 64.8743 15.7978 64.8703 15.7978C64.8663 15.7978 64.8624 15.7964 64.8593 15.7939C64.8561 15.7855 64.8561 15.7761 64.8593 15.7677C64.8609 15.7122 64.869 15.6571 64.8834 15.6035C64.9017 15.5402 64.9259 15.4786 64.9556 15.4197C64.9874 15.3582 65.0255 15.3003 65.0694 15.2468C65.1097 15.1937 65.1594 15.1484 65.2161 15.1133ZM65.3298 16.4264C65.3293 16.4416 65.3256 16.4565 65.3189 16.4702C65.3138 16.4824 65.3055 16.493 65.2948 16.5008L65.1285 16.5949C65.1253 16.598 65.121 16.5997 65.1165 16.5997C65.112 16.5997 65.1077 16.598 65.1044 16.5949C65.0967 16.5858 65.0927 16.574 65.0935 16.5621V16.3586C65.094 16.3434 65.0977 16.3284 65.1044 16.3148C65.1088 16.3021 65.1173 16.2913 65.1285 16.2841L65.2948 16.1879C65.2983 16.1852 65.3025 16.1837 65.3069 16.1837C65.3112 16.1837 65.3155 16.1852 65.3189 16.1879C65.3267 16.197 65.3306 16.2087 65.3298 16.2207V16.4264Z" fill="#BA68C8"/>
<path d="M26.1803 41.4188V50.5885C26.1803 50.8905 26.3991 51.0131 26.6552 50.8621L59.2635 32.0281C59.401 31.9378 59.5154 31.8166 59.5975 31.674C59.6796 31.5315 59.7271 31.3716 59.7362 31.2074V22.0399C59.7362 21.7379 59.5173 21.6153 59.2635 21.7663L26.6552 40.5981C26.517 40.6879 26.402 40.809 26.3194 40.9516C26.2369 41.0942 26.1892 41.2543 26.1803 41.4188Z" fill="#BA68C8"/>
<path opacity="0.7" d="M26.1803 41.4188V50.5885C26.1803 50.8905 26.3991 51.0131 26.6552 50.8621L59.2635 32.0281C59.401 31.9378 59.5154 31.8166 59.5975 31.674C59.6796 31.5315 59.7271 31.3716 59.7362 31.2074V22.0399C59.7362 21.7379 59.5173 21.6153 59.2635 21.7663L26.6552 40.5981C26.517 40.6879 26.402 40.809 26.3194 40.9516C26.2369 41.0942 26.1892 41.2543 26.1803 41.4188Z" fill="white"/>
<path d="M28.8481 42.7539C27.8655 43.3229 27.0688 44.7016 27.0688 45.8353C27.0688 46.9689 27.8655 47.4285 28.8481 46.8617C29.8307 46.2949 30.6273 44.9161 30.6251 43.7803C30.6229 42.6445 29.8285 42.1871 28.8481 42.7539Z" fill="#BA68C8"/>
<path d="M28.6402 44.5639C28.5849 44.5646 28.5304 44.5502 28.4827 44.5223C28.4246 44.4838 28.3781 44.4303 28.348 44.3675C28.318 44.3047 28.3055 44.2349 28.312 44.1656C28.3193 44.0032 28.3655 43.8449 28.4466 43.704C28.5277 43.5632 28.6414 43.4438 28.7781 43.3558C28.8331 43.3111 28.9003 43.2842 28.9709 43.2785C29.0415 43.2728 29.1122 43.2887 29.1736 43.324C29.235 43.3593 29.2843 43.4124 29.3149 43.4763C29.3454 43.5402 29.3559 43.6119 29.3449 43.6819C29.3371 43.8445 29.2905 44.0028 29.2091 44.1436C29.1276 44.2845 29.0136 44.4038 28.8766 44.4916C28.8056 44.5362 28.724 44.5611 28.6402 44.5639Z" fill="white"/>
<path d="M29.5506 44.6819C29.4516 44.6327 29.3412 44.6112 29.231 44.6197C29.1208 44.6282 29.015 44.6663 28.9247 44.73L28.6665 44.8789C28.4325 45.0295 28.2377 45.2337 28.0984 45.4746C27.9591 45.7156 27.8793 45.9862 27.8655 46.2642V46.448C28.1193 46.588 28.4651 46.564 28.8481 46.3429C29.2567 46.0885 29.594 45.7346 29.8285 45.3144V45.2706C29.8374 45.1568 29.8164 45.0426 29.7677 44.9394C29.7189 44.8361 29.6441 44.7474 29.5506 44.6819Z" fill="white"/>
<path d="M31.855 42.3797L35.6213 40.2066C35.8095 40.0971 35.9627 40.1672 35.9627 40.3598C35.9524 40.4713 35.9162 40.5788 35.8569 40.6738C35.7976 40.7688 35.717 40.8486 35.6213 40.9069L31.855 43.08C31.6667 43.1895 31.5135 43.1216 31.5135 42.9268C31.5238 42.8153 31.5601 42.7078 31.6194 42.6128C31.6786 42.5178 31.7593 42.438 31.855 42.3797Z" fill="#455A64"/>
<path d="M31.7149 43.8371L33.9296 42.5591C34.0391 42.4934 34.1288 42.535 34.1288 42.6488C34.1227 42.7142 34.1016 42.7772 34.067 42.8331C34.0325 42.8889 33.9854 42.9359 33.9296 42.9705L31.7149 44.2486C31.6033 44.312 31.5135 44.2726 31.5135 44.1588C31.5193 44.0931 31.5406 44.0297 31.5756 43.9738C31.6106 43.9179 31.6583 43.8711 31.7149 43.8371Z" fill="#455A64"/>
<path d="M26.6552 50.8728L59.2635 32.0519C59.401 31.9617 59.5154 31.8404 59.5975 31.6979C59.6796 31.5554 59.7271 31.3955 59.7362 31.2313V29.7278L26.1803 49.0936V50.5993C26.1803 50.9013 26.3926 51.0238 26.6552 50.8728Z" fill="#F5F5F5"/>
<path d="M35.0698 45.5702C35.0591 45.5705 35.0484 45.5686 35.0384 45.5646C35.0285 45.5607 35.0194 45.5547 35.0118 45.5471C35.0043 45.5395 34.9983 45.5305 34.9943 45.5205C34.9904 45.5106 34.9885 45.4999 34.9888 45.4892V44.4628C34.9885 44.452 34.9904 44.4412 34.9943 44.4311C34.9983 44.4211 35.0042 44.4119 35.0117 44.4041C35.0193 44.3964 35.0283 44.3902 35.0383 44.386C35.0482 44.3818 35.059 44.3796 35.0698 44.3796C35.0918 44.3796 35.113 44.3884 35.1286 44.404C35.1442 44.4196 35.1529 44.4407 35.1529 44.4628V45.4892C35.1529 45.5 35.1508 45.5107 35.1466 45.5207C35.1424 45.5307 35.1362 45.5397 35.1285 45.5472C35.1207 45.5548 35.1115 45.5607 35.1014 45.5646C35.0914 45.5686 35.0806 45.5705 35.0698 45.5702Z" fill="#EBEBEB"/>
<path d="M31.0935 46.9226L33.9779 45.2396C34.1661 45.1324 34.3193 45.2134 34.3193 45.4256C34.3116 45.542 34.2767 45.6548 34.2174 45.7552C34.1581 45.8555 34.0761 45.9406 33.9779 46.0034L31.0935 47.6951C30.9053 47.8045 30.7521 47.7213 30.7521 47.5113C30.7581 47.393 30.7922 47.278 30.8515 47.1756C30.9109 47.0732 30.9939 46.9865 31.0935 46.9226Z" fill="#E0E0E0"/>
<path d="M40.2808 42.5438C40.27 42.5438 40.2593 42.5416 40.2493 42.5374C40.2394 42.5332 40.2303 42.5271 40.2228 42.5193C40.2152 42.5116 40.2093 42.5024 40.2054 42.4923C40.2014 42.4822 40.1996 42.4715 40.1999 42.4606V41.4342C40.1999 41.4128 40.2084 41.3922 40.2236 41.377C40.2388 41.3618 40.2594 41.3533 40.2808 41.3533C40.3025 41.3533 40.3233 41.3617 40.3389 41.3769C40.3544 41.392 40.3634 41.4126 40.364 41.4342V42.4606C40.364 42.4827 40.3552 42.5038 40.3396 42.5194C40.324 42.535 40.3029 42.5438 40.2808 42.5438Z" fill="#EBEBEB"/>
<path d="M36.3043 43.8941L39.1887 42.2243C39.3769 42.1149 39.5301 42.198 39.5301 42.4081C39.5228 42.5245 39.488 42.6375 39.4287 42.7379C39.3694 42.8383 39.2871 42.9233 39.1887 42.9859L36.3043 44.6688C36.1161 44.7782 35.9629 44.6951 35.9629 44.485C35.9685 44.3664 36.0025 44.2509 36.0619 44.1481C36.1213 44.0453 36.2044 43.9582 36.3043 43.8941Z" fill="#E0E0E0"/>
<path d="M45.4915 39.5147C45.4698 39.5148 45.449 39.5063 45.4334 39.4912C45.4179 39.476 45.4089 39.4555 45.4083 39.4338V38.4074C45.4083 38.3853 45.4171 38.3642 45.4327 38.3486C45.4483 38.333 45.4694 38.3242 45.4915 38.3242C45.5023 38.3242 45.513 38.3264 45.523 38.3306C45.533 38.3348 45.542 38.341 45.5495 38.3487C45.5571 38.3565 45.563 38.3656 45.5669 38.3757C45.5709 38.3858 45.5728 38.3966 45.5725 38.4074V39.4338C45.5725 39.4553 45.5639 39.4758 45.5487 39.491C45.5336 39.5062 45.513 39.5147 45.4915 39.5147Z" fill="#EBEBEB"/>
<path d="M41.515 40.8671L44.3994 39.1842C44.5876 39.077 44.7408 39.1579 44.7408 39.3702C44.7331 39.4865 44.6982 39.5994 44.6389 39.6998C44.5796 39.8001 44.4976 39.8851 44.3994 39.948L41.515 41.6287C41.3268 41.7381 41.1736 41.655 41.1736 41.4449C41.1813 41.3286 41.2162 41.2157 41.2755 41.1153C41.3348 41.015 41.4168 40.93 41.515 40.8671Z" fill="#E0E0E0"/>
<path d="M50.7022 36.4879C50.6801 36.4879 50.659 36.4792 50.6434 36.4636C50.6278 36.448 50.619 36.4268 50.619 36.4048V35.3784C50.619 35.3675 50.6212 35.3568 50.6254 35.3469C50.6296 35.3369 50.6358 35.3279 50.6435 35.3203C50.6513 35.3128 50.6604 35.3069 50.6705 35.3029C50.6806 35.299 50.6914 35.2971 50.7022 35.2974C50.7129 35.2971 50.7236 35.299 50.7335 35.3029C50.7435 35.3069 50.7525 35.3129 50.7601 35.3204C50.7677 35.328 50.7736 35.3371 50.7776 35.347C50.7816 35.357 50.7835 35.3677 50.7832 35.3784V36.4048C50.7834 36.4156 50.7816 36.4263 50.7776 36.4364C50.7737 36.4465 50.7678 36.4557 50.7602 36.4634C50.7527 36.4712 50.7437 36.4774 50.7337 36.4816C50.7237 36.4858 50.713 36.4879 50.7022 36.4879Z" fill="#EBEBEB"/>
<path d="M46.7257 37.8472L49.6101 36.1664C49.7983 36.057 49.9515 36.1402 49.9515 36.3503C49.9442 36.4666 49.9094 36.5797 49.8501 36.6801C49.7907 36.7805 49.7085 36.8654 49.6101 36.928L46.7257 38.6109C46.5353 38.7204 46.3843 38.6372 46.3843 38.4271C46.3911 38.3103 46.4256 38.1968 46.485 38.0959C46.5443 37.9951 46.6268 37.9098 46.7257 37.8472Z" fill="#E0E0E0"/>
<path d="M51.9344 34.812L54.821 33.129C55.0092 33.0218 55.1624 33.1028 55.1624 33.315C55.1548 33.4314 55.1199 33.5442 55.0606 33.6446C55.0013 33.7449 54.9192 33.83 54.821 33.8928L51.9344 35.5735C51.7462 35.683 51.5952 35.5998 51.5952 35.3897C51.6025 35.2736 51.637 35.1607 51.6959 35.0604C51.7548 34.96 51.8365 34.8749 51.9344 34.812Z" fill="#E0E0E0"/>
<path d="M25.0445 81.5924L27.9529 79.916C27.9529 79.916 29.7584 74.6024 29.301 69.709C28.7255 63.6294 25.8542 61.4825 24.1691 62.1697C22.4839 62.8569 22.8319 65.2708 24.6199 68.5163C26.0315 71.0965 26.0358 77.0316 25.0445 81.5924Z" fill="#BA68C8"/>
<path opacity="0.1" d="M25.0445 81.5924L27.9529 79.916C27.9529 79.916 29.7584 74.6024 29.301 69.709C28.7255 63.6294 25.8542 61.4825 24.1691 62.1697C22.4839 62.8569 22.8319 65.2708 24.6199 68.5163C26.0315 71.0965 26.0358 77.0316 25.0445 81.5924Z" fill="black"/>
<path d="M26.4342 80.9248C26.4618 80.9249 26.4887 80.9162 26.5111 80.9001C26.5335 80.884 26.5502 80.8613 26.559 80.8351C28.4323 75.0991 28.5111 67.0477 24.9658 63.4127C24.9537 63.4003 24.9393 63.3905 24.9234 63.3837C24.9075 63.3769 24.8905 63.3733 24.8732 63.3731C24.8559 63.3729 24.8388 63.3761 24.8228 63.3825C24.8067 63.3889 24.7921 63.3984 24.7797 63.4105C24.7674 63.4226 24.7575 63.4369 24.7507 63.4528C24.7439 63.4687 24.7403 63.4858 24.7401 63.503C24.7399 63.5203 24.7431 63.5375 24.7495 63.5535C24.756 63.5695 24.7655 63.5842 24.7776 63.5965C28.1237 67.0237 28.1828 75.0116 26.3095 80.7519C26.304 80.7685 26.3019 80.7859 26.3033 80.8032C26.3047 80.8206 26.3094 80.8375 26.3174 80.853C26.3253 80.8684 26.3363 80.8822 26.3496 80.8934C26.3629 80.9046 26.3782 80.9131 26.3948 80.9183C26.4075 80.9225 26.4208 80.9247 26.4342 80.9248Z" fill="white"/>
<path d="M19.8097 84.6105C19.5077 84.7833 18.8861 84.4047 18.6498 84.245C18.2429 83.9677 17.9137 83.591 17.6934 83.1507C17.4474 82.6489 17.3633 82.083 17.4527 81.5313C17.5018 81.2403 17.5705 80.9529 17.6584 80.6712C17.7394 80.3933 17.8182 80.1153 17.8991 79.8352C17.9959 79.5661 18.0376 79.2803 18.0217 78.9948C17.9473 78.4236 17.4417 78.0231 16.98 77.6817C16.4701 77.3009 15.9404 76.7954 15.9426 76.1082C15.979 75.5742 16.1923 75.0675 16.5488 74.6682C16.8771 74.2524 17.2667 73.8847 17.5643 73.4449C17.7987 73.1391 17.9208 72.762 17.9101 72.3769C17.878 72.1412 17.7991 71.9142 17.6781 71.7094C17.4352 71.2608 17.1135 70.8515 16.9471 70.3701C16.7808 69.8886 16.8027 69.2911 17.1791 68.9475C17.4877 68.6652 17.9451 68.6258 18.3631 68.6521C18.7515 68.7007 19.1248 68.8329 19.4573 69.0395C20.5516 69.6479 21.1731 70.9391 22.3308 71.4074C22.7685 71.5868 23.2675 71.6262 23.7336 71.7488C24.1997 71.8713 24.6746 72.1099 24.8891 72.541C25.3159 73.3901 24.5258 74.4384 24.8235 75.3401C25.0883 76.1367 25.8652 76.4343 26.3007 77.1609C26.478 77.4783 26.5493 77.844 26.5042 78.2048C26.4671 78.8152 26.3188 79.4138 26.0665 79.9709C25.7839 80.5237 25.4606 81.0548 25.0992 81.5597C25.0795 81.5728 19.8556 84.5842 19.8097 84.6105Z" fill="#BA68C8"/>
<path d="M22.9305 82.9295C22.9591 82.9287 22.9866 82.9177 23.0079 82.8984C23.0291 82.8792 23.0428 82.8529 23.0465 82.8245C23.6089 78.3687 21.4817 72.357 18.304 69.4266C18.2807 69.4086 18.2514 69.4 18.222 69.4025C18.1926 69.405 18.1652 69.4184 18.1452 69.4401C18.1251 69.4617 18.1139 69.4901 18.1138 69.5196C18.1136 69.5491 18.1245 69.5776 18.1443 69.5995C21.2716 72.4861 23.366 78.4059 22.8123 82.796C22.8086 82.8271 22.8173 82.8583 22.8366 82.8829C22.8559 82.9075 22.8841 82.9235 22.9151 82.9273L22.9305 82.9295Z" fill="white"/>
<path d="M22.3856 77.222C22.404 77.2221 22.4221 77.2177 22.4384 77.2093C22.4548 77.2009 22.4689 77.1888 22.4797 77.1739C22.4983 77.1491 22.5064 77.1181 22.5023 77.0874C22.4982 77.0567 22.4822 77.0288 22.4578 77.0098C20.707 75.6967 18.024 75.9155 17.9124 75.933C17.8968 75.9344 17.8817 75.9388 17.8679 75.9461C17.854 75.9533 17.8418 75.9632 17.8318 75.9752C17.8219 75.9873 17.8144 76.0011 17.8098 76.016C17.8052 76.0309 17.8036 76.0466 17.8051 76.0622C17.8084 76.0929 17.8235 76.1212 17.8471 76.1412C17.8707 76.1612 17.9012 76.1713 17.932 76.1694C17.9605 76.1694 20.6348 75.9374 22.309 77.198C22.3311 77.2144 22.3581 77.2229 22.3856 77.222Z" fill="white"/>
<path d="M22.1229 76.128C22.1529 76.128 22.1818 76.1164 22.2034 76.0955C22.225 76.0747 22.2378 76.0463 22.2389 76.0163C22.3199 73.9745 23.8606 72.7336 23.8759 72.7336C23.8883 72.7242 23.8987 72.7124 23.9065 72.6989C23.9143 72.6854 23.9194 72.6705 23.9214 72.655C23.9235 72.6396 23.9224 72.6239 23.9184 72.6088C23.9143 72.5937 23.9073 72.5796 23.8978 72.5673C23.878 72.5431 23.8496 72.5275 23.8186 72.5238C23.7875 72.5201 23.7563 72.5287 23.7314 72.5476C23.2241 72.9776 22.8094 73.5063 22.5126 74.1014C22.2158 74.6966 22.043 75.3458 22.0047 76.0098C22.0035 76.0408 22.0146 76.071 22.0354 76.0939C22.0563 76.1168 22.0854 76.1306 22.1163 76.1323L22.1229 76.128Z" fill="white"/>
<path d="M51.0719 80.9031C49.1311 79.7821 47.4677 78.2384 46.2053 76.3865C44.9429 74.5346 44.1139 72.422 43.7799 70.2058L42.2283 59.9047C41.9327 57.9406 41.2477 56.0554 40.2134 54.3597C39.1792 52.664 37.8166 51.1921 36.2056 50.0303L34.1813 48.5706V49.7261L35.2755 50.5183C36.8824 51.6779 38.2421 53.146 39.2754 54.8369C40.3087 56.5278 40.9949 58.4075 41.2938 60.3664L42.8761 70.7398C43.2135 72.9509 44.0436 75.0579 45.305 76.905C46.5664 78.7521 48.2269 80.292 50.1637 81.4108L51.0675 81.9316V80.9053L51.0719 80.9031Z" fill="#EBEBEB"/>
<path d="M68.6696 55.8345L67.1179 45.5333C66.8225 43.5694 66.1377 41.6844 65.1039 39.9887C64.07 38.2931 62.7079 36.821 61.0974 35.6589L59.0731 34.197L34.1814 48.5709L36.2057 50.0328C37.8167 51.1946 39.1793 52.6665 40.2136 54.3622C41.2478 56.0579 41.9328 57.9431 42.2284 59.9072L43.78 70.2083C44.114 72.4246 44.943 74.5371 46.2054 76.389C47.4678 78.241 49.1312 79.7847 51.072 80.9056L75.9637 66.5339C74.0219 65.4134 72.3577 63.8695 71.0949 62.0171C69.832 60.1647 69.003 58.0514 68.6696 55.8345Z" fill="#FAFAFA"/>
<path d="M59.06 34.4574L60.9683 35.8362C62.5519 36.9849 63.8919 38.4364 64.9106 40.1066C65.9294 41.7767 66.6068 43.6324 66.9035 45.5661L68.4529 55.8673C68.777 58.0553 69.5792 60.1449 70.8025 61.9878C72.0257 63.8306 73.64 65.3813 75.5304 66.5295L51.072 80.6496C49.1839 79.5438 47.5679 78.0287 46.343 76.2156C45.1181 74.4025 44.3156 72.3377 43.9945 70.1733L42.4451 59.8722C42.1398 57.8808 41.4426 55.9697 40.3938 54.2496C39.345 52.5295 37.9654 51.0345 36.3349 49.8512L34.5841 48.5884L59.06 34.4574ZM59.0731 34.197L34.1814 48.5709L36.2057 50.0328C37.8167 51.1946 39.1793 52.6665 40.2136 54.3622C41.2478 56.0579 41.9328 57.9431 42.2284 59.9072L43.78 70.2083C44.114 72.4246 44.943 74.5371 46.2054 76.389C47.4678 78.241 49.1312 79.7847 51.072 80.9056L75.9637 66.5339C74.0222 65.4136 72.3581 63.8701 71.0953 62.0181C69.8325 60.1661 69.0033 58.0532 68.6696 55.8366L67.1179 45.5355C66.8228 43.5712 66.1382 41.6857 65.1043 39.9897C64.0704 38.2937 62.7082 36.8212 61.0974 35.6589L59.0731 34.197Z" fill="#E0E0E0"/>
<path d="M51.0719 80.9034L75.9636 66.5317V67.5581L51.0719 81.9298V80.9034Z" fill="#F5F5F5"/>
<path d="M38.8319 47.7959C37.9565 48.1658 37.8712 48.923 38.624 49.492C39.051 49.7781 39.5395 49.9596 40.0498 50.0215C40.5601 50.0835 41.0778 50.0243 41.5609 49.8487C42.4363 49.4811 42.5239 48.7217 41.7798 48.1548C41.3518 47.8661 40.8615 47.683 40.349 47.6206C39.8366 47.5582 39.3166 47.6183 38.8319 47.7959Z" fill="#BA68C8"/>
<path d="M39.7728 48.7172C39.7001 48.7252 39.6267 48.7252 39.554 48.7172C39.3915 48.7033 39.2354 48.6475 39.101 48.5553C38.8996 48.4043 38.9215 48.2073 39.1557 48.1176C39.3092 48.06 39.475 48.0427 39.6371 48.0673C39.7995 48.0833 39.9552 48.1397 40.0902 48.2314C40.2915 48.3824 40.2674 48.5794 40.0354 48.6691C39.9513 48.7 39.8625 48.7162 39.7728 48.7172Z" fill="white"/>
<path d="M41.0051 48.6975C40.7487 48.6589 40.4866 48.686 40.2435 48.7763L40.0247 48.8726C39.6285 49.0433 39.587 49.3781 39.9327 49.6364L40.0553 49.7283C40.4696 49.7891 40.8923 49.7554 41.2918 49.6298C41.6682 49.4854 41.898 49.319 41.9308 49.0805L41.7623 48.9689C41.5371 48.8155 41.2765 48.7221 41.0051 48.6975Z" fill="white"/>
<path d="M42.8738 46.181L50.1833 41.9594C50.3263 41.8839 50.487 41.8485 50.6485 41.8569C50.8099 41.8654 50.9661 41.9175 51.1003 42.0076L51.166 42.0601C51.2201 42.0948 51.2637 42.1435 51.2923 42.2011C51.3208 42.2587 51.3332 42.323 51.328 42.387C51.3228 42.4511 51.3003 42.5126 51.2629 42.5648C51.2255 42.6171 51.1746 42.6582 51.1156 42.6838L43.8127 46.9141C43.6713 46.9853 43.5128 47.0157 43.355 47.0018C43.1973 46.9878 43.0466 46.9302 42.9198 46.8353C42.8935 46.8156 42.8673 46.7959 42.8432 46.7741C42.7883 46.7446 42.743 46.7002 42.7124 46.646C42.6818 46.5918 42.6673 46.53 42.6705 46.4678C42.6737 46.4056 42.6945 46.3457 42.7305 46.2949C42.7665 46.2441 42.8162 46.2046 42.8738 46.181Z" fill="#455A64"/>
<path d="M44.4802 47.8835L48.1394 45.7716C48.1687 45.7572 48.194 45.7357 48.2128 45.709C48.2317 45.6823 48.2435 45.6512 48.2472 45.6187C48.2509 45.5863 48.2464 45.5534 48.2341 45.5231C48.2217 45.4928 48.2019 45.4661 48.1766 45.4455L48.1109 45.3821C48.0522 45.3293 47.9785 45.2962 47.9001 45.2872C47.8217 45.2781 47.7424 45.2937 47.6732 45.3317L44.0338 47.4589C44.0044 47.4736 43.9792 47.4954 43.9604 47.5223C43.9415 47.5492 43.9298 47.5803 43.9261 47.613C43.9224 47.6456 43.9269 47.6786 43.9392 47.709C43.9515 47.7395 43.9712 47.7663 43.9966 47.7872L44.0425 47.831C44.1013 47.8835 44.1749 47.9166 44.2531 47.926C44.3314 47.9354 44.4107 47.9206 44.4802 47.8835Z" fill="#455A64"/>
<path opacity="0.2" d="M42.0883 51.8949L61.8108 40.5039C61.9408 40.4309 62.0931 40.4082 62.2387 40.4401C62.3844 40.472 62.5132 40.5562 62.6009 40.6768L62.6425 40.7359C62.682 40.7945 62.7089 40.8606 62.7215 40.9302C62.7341 40.9997 62.7321 41.0711 62.7156 41.1399C62.6992 41.2086 62.6686 41.2732 62.6259 41.3294C62.5831 41.3857 62.5292 41.4325 62.4674 41.4668L42.7339 52.8666C42.6056 52.9381 42.4551 52.9586 42.3124 52.9241C42.1696 52.8897 42.0451 52.8027 41.9636 52.6806L41.922 52.6171C41.8816 52.56 41.8537 52.495 41.8402 52.4263C41.8267 52.3577 41.8278 52.287 41.8435 52.2188C41.8592 52.1506 41.8891 52.0865 41.9313 52.0307C41.9735 51.9749 42.027 51.9286 42.0883 51.8949Z" fill="black"/>
<path opacity="0.2" d="M43.2853 53.8386L63.0297 42.4432C63.0905 42.4068 63.1583 42.3835 63.2287 42.3749C63.299 42.3662 63.3704 42.3724 63.4383 42.393C63.5061 42.4137 63.5688 42.4482 63.6225 42.4946C63.6761 42.5409 63.7195 42.598 63.7497 42.6621L63.7804 42.7255C63.8392 42.8627 63.8464 43.0166 63.8005 43.1586C63.7547 43.3007 63.6589 43.4213 63.5309 43.4981L43.7821 54.9088C43.7232 54.9445 43.6574 54.9673 43.589 54.9755C43.5207 54.9838 43.4513 54.9773 43.3856 54.9566C43.32 54.9359 43.2595 54.9014 43.2082 54.8554C43.1569 54.8094 43.1161 54.753 43.0884 54.6899L43.0533 54.6199C42.9859 54.4845 42.9724 54.3286 43.0154 54.1836C43.0585 54.0386 43.1549 53.9153 43.2853 53.8386Z" fill="black"/>
<path opacity="0.2" d="M44.1739 55.9503L63.9358 44.5417C63.9919 44.5048 64.0561 44.4818 64.1229 44.4746C64.1897 44.4674 64.2573 44.4763 64.32 44.5005C64.3827 44.5246 64.4387 44.5634 64.4834 44.6136C64.5281 44.6638 64.5602 44.724 64.577 44.789L64.6033 44.8875C64.64 45.0386 64.628 45.1974 64.569 45.3412C64.5101 45.4851 64.4072 45.6066 64.275 45.6885L44.5218 57.1058C44.467 57.1423 44.404 57.1647 44.3384 57.1711C44.2728 57.1774 44.2067 57.1675 44.1459 57.1422C44.0851 57.1168 44.0314 57.0769 43.9897 57.0259C43.948 56.9749 43.9196 56.9144 43.9069 56.8497C43.9069 56.8147 43.8872 56.7797 43.8762 56.7447C43.8353 56.5978 43.8421 56.4417 43.8956 56.299C43.9491 56.1562 44.0465 56.0341 44.1739 55.9503Z" fill="black"/>
<path opacity="0.2" d="M44.7408 58.2524L56.2281 51.6191C56.2792 51.581 56.3397 51.5577 56.4031 51.5516C56.4666 51.5456 56.5304 51.5571 56.5878 51.5848C56.6451 51.6126 56.6938 51.6556 56.7283 51.7091C56.7629 51.7626 56.7822 51.8246 56.784 51.8883L56.808 52.0415C56.8247 52.2001 56.7969 52.3603 56.7277 52.5041C56.6585 52.6479 56.5507 52.7696 56.4163 52.8556L44.929 59.4954C44.8781 59.5334 44.8177 59.5567 44.7545 59.5629C44.6912 59.569 44.6275 59.5577 44.5702 59.5302C44.513 59.5027 44.4643 59.46 44.4296 59.4068C44.3948 59.3536 44.3753 59.2919 44.3731 59.2284C44.3731 59.1737 44.3578 59.1212 44.3491 59.0665C44.3342 58.908 44.3628 58.7484 44.4318 58.605C44.5008 58.4615 44.6076 58.3396 44.7408 58.2524Z" fill="black"/>
<path d="M68.4945 64.4939L49.6976 75.3488C49.4379 75.4985 49.1318 75.5465 48.8386 75.4835C48.5455 75.4204 48.2862 75.2507 48.111 75.0074C46.9219 73.1866 46.1282 70.9186 45.7299 68.2034L44.9793 63.2159C44.9469 62.8983 45.0029 62.5779 45.1411 62.2902C45.2794 62.0025 45.4945 61.7586 45.7628 61.5855L64.5837 50.7131C65.1067 50.4111 65.6057 50.6518 65.6954 51.2493L66.446 56.239C66.6958 58.663 67.5065 60.9954 68.814 63.0517C68.8946 63.1652 68.9505 63.2943 68.9781 63.4308C69.0057 63.5672 69.0045 63.7079 68.9744 63.8438C68.9443 63.9797 68.886 64.1077 68.8033 64.2197C68.7207 64.3317 68.6154 64.4251 68.4945 64.4939Z" fill="#BA68C8"/>
<path opacity="0.7" d="M68.4945 64.4939L49.6976 75.3488C49.4379 75.4985 49.1318 75.5465 48.8386 75.4835C48.5455 75.4204 48.2862 75.2507 48.111 75.0074C46.9219 73.1866 46.1282 70.9186 45.7299 68.2034L44.9793 63.2159C44.9469 62.8983 45.0029 62.5779 45.1411 62.2902C45.2794 62.0025 45.4945 61.7586 45.7628 61.5855L64.5837 50.7131C65.1067 50.4111 65.6057 50.6518 65.6954 51.2493L66.446 56.239C66.6958 58.663 67.5065 60.9954 68.814 63.0517C68.8946 63.1652 68.9505 63.2943 68.9781 63.4308C69.0057 63.5672 69.0045 63.7079 68.9744 63.8438C68.9443 63.9797 68.886 64.1077 68.8033 64.2197C68.7207 64.3317 68.6154 64.4251 68.4945 64.4939Z" fill="white"/>
<path d="M49.6975 75.349L68.4944 64.4942C68.6153 64.4254 68.7206 64.3319 68.8032 64.2199C68.8859 64.108 68.9441 63.9799 68.9743 63.844C69.0044 63.7081 69.0056 63.5674 68.978 63.431C68.9504 63.2946 68.8945 63.1654 68.8139 63.052C68.1991 62.0991 67.6982 61.0774 67.3213 60.0078L61.489 58.3621L58.9001 64.109L61.7123 66.3697L51.8992 61.2049L46.881 72.6134C47.2117 73.4505 47.6236 74.2531 48.1109 75.0098C48.2864 75.2528 48.5458 75.422 48.839 75.4846C49.1321 75.5473 49.438 75.499 49.6975 75.349Z" fill="#BA68C8"/>
<path d="M57.5804 57.1429C58.272 56.7446 58.9307 57.0751 59.0533 57.8826C59.1002 58.3072 59.0285 58.7366 58.8462 59.1229C58.6638 59.5092 58.3779 59.8374 58.0203 60.0711C57.3288 60.4716 56.67 60.1389 56.5497 59.3314C56.5023 58.907 56.5735 58.4777 56.7555 58.0914C56.9375 57.705 57.223 57.3767 57.5804 57.1429Z" fill="#BA68C8"/>
<path d="M63.2879 70.9258C63.2253 70.9312 63.1624 70.9312 63.0997 70.9258C62.9632 70.9128 62.8321 70.8654 62.7189 70.7879C62.5526 70.6632 62.5723 70.499 62.7649 70.4159C62.8927 70.3681 63.0305 70.3538 63.1654 70.3743C63.3015 70.3876 63.4323 70.4342 63.5462 70.51C63.7125 70.6369 63.6928 70.8011 63.5002 70.8842C63.4324 70.9102 63.3606 70.9243 63.2879 70.9258Z" fill="#BA68C8"/>
<path d="M64.3187 70.9106C64.1043 70.8774 63.8849 70.9 63.6818 70.9763L63.4914 71.0551C63.161 71.1973 63.126 71.4774 63.4148 71.6941L63.5155 71.7707C63.8624 71.8208 64.2162 71.7924 64.5506 71.6875C64.8636 71.5672 65.0562 71.4271 65.0846 71.2279L64.9424 71.136C64.7572 71.0088 64.5424 70.9311 64.3187 70.9106Z" fill="#BA68C8"/>
<path d="M64.6797 70.0857L63.9751 70.1207L63.7847 70.2848C63.7769 70.2912 63.7706 70.2992 63.7663 70.3083C63.762 70.3174 63.7598 70.3273 63.7598 70.3374C63.7598 70.3474 63.762 70.3573 63.7663 70.3664C63.7706 70.3755 63.7769 70.3835 63.7847 70.3899L63.9751 70.5409L64.6907 70.5124L64.6797 70.0857ZM63.9269 70.3833C63.9201 70.3833 63.9134 70.382 63.9071 70.3793C63.9009 70.3766 63.8952 70.3727 63.8905 70.3678C63.8858 70.3629 63.8822 70.3571 63.8798 70.3507C63.8774 70.3444 63.8763 70.3376 63.8766 70.3308C63.8766 70.3175 63.8819 70.3047 63.8913 70.2952C63.9008 70.2858 63.9136 70.2805 63.9269 70.2805C63.9337 70.2802 63.9405 70.2813 63.9468 70.2836C63.9532 70.286 63.959 70.2897 63.9639 70.2944C63.9688 70.2991 63.9727 70.3048 63.9754 70.311C63.9781 70.3173 63.9794 70.324 63.9794 70.3308C63.9794 70.3447 63.9739 70.3581 63.9641 70.3679C63.9542 70.3778 63.9408 70.3833 63.9269 70.3833Z" fill="#BA68C8"/>
<path d="M68.328 68.8379C68.328 68.9452 68.1901 69.0349 68.1092 69.0787C67.9564 69.1639 67.7883 69.2182 67.6146 69.2384C67.4483 69.0436 67.7678 68.7044 68.328 68.8379Z" fill="#BA68C8"/>
<path d="M68.3543 68.1487C67.8378 67.722 67.0281 67.5644 66.4591 67.8905C65.8901 68.2166 65.7785 68.906 66.3015 69.3327C66.8246 69.7595 67.759 69.7704 68.3237 69.4399C68.8883 69.1095 68.873 68.5733 68.3543 68.1487ZM67.5008 68.0481C67.5485 68.025 67.6022 68.017 67.6546 68.0252C67.707 68.0334 67.7557 68.0574 67.7941 68.094C67.8109 68.108 67.824 68.1261 67.8321 68.1464C67.8402 68.1668 67.843 68.1888 67.8404 68.2106C67.8378 68.2323 67.8298 68.2531 67.8171 68.271C67.8044 68.2888 67.7875 68.3032 67.7678 68.3129C67.7198 68.3392 67.6649 68.3502 67.6105 68.3444C67.5561 68.3385 67.5048 68.316 67.4636 68.28C67.4468 68.2641 67.4341 68.2443 67.4267 68.2224C67.4193 68.2005 67.4173 68.1771 67.421 68.1542C67.4246 68.1314 67.4338 68.1098 67.4477 68.0913C67.4616 68.0728 67.4799 68.0579 67.5008 68.0481ZM66.4635 68.8447C66.4462 68.8288 66.4331 68.8089 66.4254 68.7867C66.4176 68.7645 66.4155 68.7408 66.4192 68.7176C66.4229 68.6944 66.4323 68.6725 66.4465 68.6538C66.4607 68.6351 66.4793 68.6203 66.5007 68.6105C66.548 68.5873 66.6014 68.5792 66.6535 68.5874C66.7056 68.5956 66.7539 68.6198 66.7917 68.6565C66.8087 68.6703 66.8219 68.6882 66.8301 68.7084C66.8384 68.7287 66.8415 68.7507 66.8391 68.7724C66.8367 68.7942 66.8289 68.815 66.8164 68.8329C66.8039 68.8509 66.7872 68.8655 66.7677 68.8753C66.7196 68.9057 66.6632 68.9199 66.6065 68.916C66.5498 68.912 66.4959 68.8901 66.4525 68.8534L66.4635 68.8447ZM68.1792 69.1642C67.937 69.2934 67.6659 69.3589 67.3914 69.3546C67.1528 69.3581 66.9164 69.308 66.6998 69.208L68.1705 68.3785C68.2484 68.4291 68.3137 68.4968 68.3615 68.5764C68.4093 68.6561 68.4382 68.7456 68.4462 68.8381C68.4303 68.9122 68.3967 68.9813 68.3483 69.0396C68.2999 69.0979 68.2381 69.1436 68.1683 69.1729L68.1792 69.1642Z" fill="#BA68C8"/>
<path d="M71.4401 66.2252C71.388 66.1419 71.3221 66.0679 71.2454 66.0064C71.0652 65.8518 70.8442 65.7524 70.609 65.7202C70.3738 65.6879 70.1343 65.7243 69.9191 65.8247C69.8262 65.8674 69.7459 65.9334 69.6861 66.0164C69.6263 66.0994 69.5891 66.1964 69.578 66.2981C69.567 66.3998 69.5826 66.5026 69.6232 66.5965C69.6638 66.6903 69.7281 66.772 69.8097 66.8336C69.8557 66.87 69.9047 66.9022 69.9563 66.9299C70.6129 67.3041 71.8056 67.3501 71.8056 67.3501C71.7943 66.9478 71.6674 66.5573 71.4401 66.2252ZM70.8689 66.6388C70.7637 66.695 70.6451 66.7214 70.526 66.7152C70.4068 66.7091 70.2916 66.6706 70.1927 66.6038C70.1539 66.5741 70.1234 66.5349 70.1041 66.4899C70.0849 66.445 70.0775 66.3958 70.0828 66.3472C70.0881 66.2986 70.1058 66.2522 70.1343 66.2124C70.1627 66.1726 70.2009 66.1409 70.2452 66.1202C70.3482 66.0722 70.4629 66.0549 70.5754 66.0705C70.688 66.086 70.7937 66.1336 70.8799 66.2077C71.055 66.35 71.0615 66.5294 70.8711 66.6388H70.8689Z" fill="#BA68C8"/>
<path d="M95.2181 68.5361L92.4037 76.7495C92.3858 76.8017 92.3521 76.8471 92.3071 76.8792C92.2622 76.9114 92.2084 76.9286 92.1531 76.9286C92.0979 76.9286 92.044 76.9114 91.9991 76.8792C91.9542 76.8471 91.9204 76.8017 91.9025 76.7495L89.1254 68.4705L95.2181 68.5361Z" fill="#FFA8A7"/>
<path d="M91.9026 76.7473C91.9205 76.7995 91.9543 76.8449 91.9992 76.8771C92.0441 76.9092 92.098 76.9265 92.1532 76.9265C92.2085 76.9265 92.2623 76.9092 92.3073 76.8771C92.3522 76.8449 92.3859 76.7995 92.4038 76.7473L92.9531 75.1431C92.7162 75.2698 92.4489 75.3289 92.1806 75.3138C91.9124 75.2988 91.6534 75.2102 91.4321 75.0578L91.3096 74.9746L91.9026 76.7473Z" fill="#263238"/>
<path d="M89.2303 31.8467V32.6498V33.6193L89.1296 68.4686C89.8031 69.1796 90.7196 69.611 91.6967 69.6766C93.1696 69.8298 94.6818 69.3462 95.2202 68.5364L95.3186 33.7069V31.8532C95.2464 33.0525 89.1778 33.0503 89.2303 31.8467Z" fill="#BA68C8"/>
<path d="M89.2128 34.904V36.6985C89.1953 37.2194 90.3071 37.5564 91.5829 37.6724C93.2812 37.8344 95.2815 37.3748 95.3033 36.6854V35.3614V34.8887C95.2771 35.578 93.2768 36.0398 91.5829 35.8779C90.3574 35.7641 89.285 35.4402 89.2238 34.9609C89.2149 34.9433 89.2111 34.9236 89.2128 34.904Z" fill="#EBEBEB"/>
<path d="M89.2173 35.3526C89.1735 36.5606 95.2618 36.5453 95.3056 35.3373V33.5405C95.2618 34.7486 89.1779 34.7639 89.2173 33.5558V35.3526Z" fill="#BA68C8"/>
<path d="M89.2303 31.8467V33.6193C89.1778 34.8055 95.0539 34.8405 95.3187 33.7069C95.3248 33.6847 95.3284 33.662 95.3296 33.639V31.8532C95.2464 33.0525 89.1778 33.0503 89.2303 31.8467Z" fill="#EBEBEB"/>
<path d="M95.3449 24.248V24.1714C95.3449 23.307 93.9837 22.6045 92.3029 22.6045C90.6222 22.6045 89.2588 23.307 89.2588 24.1714V24.9877L89.2303 31.8464C89.2084 32.3607 90.3027 32.6999 91.572 32.8225C93.2702 32.9888 95.2792 32.5402 95.3164 31.853L95.3427 24.3027C95.3471 24.2787 95.3449 24.2524 95.3449 24.248Z" fill="#F28F8F"/>
<path opacity="0.2" d="M92.303 25.7384C93.9842 25.7384 95.3471 25.0368 95.3471 24.1714C95.3471 23.306 93.9842 22.6045 92.303 22.6045C90.6217 22.6045 89.2588 23.306 89.2588 24.1714C89.2588 25.0368 90.6217 25.7384 92.303 25.7384Z" fill="white"/>
<path opacity="0.1" d="M95.312 33.7069L95.3449 24.2483C95.3055 24.988 94.0318 25.6883 92.664 25.7386L92.5655 69.7051L92.4036 76.7498L95.2179 68.5364L95.312 33.7069Z" fill="black"/>
<path d="M85.4661 41.0337C86.6238 40.8652 88.0507 41.7362 89.0442 43.1325C90.0378 44.5287 93.5 47.9274 93.8807 49.0085C94.1565 49.7964 93.9945 51.278 92.3641 50.582C90.7862 49.9102 85.7549 44.9752 85.7549 44.9752L85.4661 41.0337Z" fill="#B16668"/>
<path d="M84.9125 41.0339C85.2852 40.9541 85.6649 40.9115 86.0461 40.907C86.4466 40.9332 87.3461 41.1718 88.2718 42.0734C89.1975 42.9751 91.6005 45.888 91.6005 45.888C91.6005 45.888 91.7077 46.7064 90.9023 47.619C90.097 48.5316 89.3441 48.5316 89.3441 48.5316L85.7747 45.575L84.9125 41.0339Z" fill="#37474F"/>
<path d="M92.756 47.4045L95.2946 43.7191V41.012C95.2946 41.012 95.8549 41.2002 96.0781 42.0734C96.3013 42.9466 96.5793 43.962 96.4677 44.6995C96.3561 45.4371 94.5987 49.9409 93.6511 50.5756C92.7035 51.2102 92.756 47.4045 92.756 47.4045Z" fill="#B16668"/>
<path d="M81.33 39.8105L81.8246 42.9269L84.9125 42.7606L84.4704 39.1409L81.33 39.8105Z" fill="#B16668"/>
<path d="M79.2531 35.9895C79.2531 35.9895 78.5178 37.1056 78.5966 37.215C78.6754 37.3245 79.2225 37.4339 79.2225 37.4339L79.2531 35.9895Z" fill="#9A4A4D"/>
<path d="M81.2885 32.8991C79.8003 33.2142 79.3692 33.8686 79.2291 36.2343C79.0825 38.7073 79.3342 39.4842 79.6668 39.8168C79.8857 40.0357 81.1046 40.0816 81.7196 39.9131C82.4878 39.6943 84.2276 39.0837 85.0417 37.8406C85.9981 36.3787 86.2497 34.3938 85.2255 33.5819C83.7833 32.4351 81.9034 32.7721 81.2885 32.8991Z" fill="#B16668"/>
<path d="M81.3584 39.9809C81.6237 39.9328 81.8854 39.867 82.1419 39.7839C81.9468 40.0065 81.685 40.16 81.3956 40.2216L81.3584 39.9809Z" fill="#9A4A4D"/>
<path d="M79.1437 33.6498C79.3507 33.7651 79.5713 33.854 79.8003 33.9146C80.1636 34.0197 80.1089 34.1554 80.1592 34.488C80.2035 34.7884 80.3477 35.0652 80.5684 35.2737C80.7107 35.4028 80.8157 35.4137 80.8639 35.6107C80.8869 35.8165 80.8869 36.0242 80.8639 36.23C80.8639 36.6415 81.1309 36.9522 81.2578 36.4029C81.2578 36.4029 81.4942 35.4881 82.2645 35.6041C83.0348 35.7201 83.1027 36.5868 82.735 37.2674C82.5162 37.6832 81.9122 37.5738 81.9122 37.5738C81.8906 37.9567 81.9513 38.3398 82.0903 38.6973C82.2292 39.0548 82.4431 39.3783 82.7175 39.6462C82.7175 39.6462 83.4835 40.2152 84.6871 39.6244C85.1987 38.9684 85.6569 38.2724 86.0571 37.5431C86.5911 36.6152 87.0529 35.4728 86.8712 34.3808C86.813 33.972 86.6321 33.5904 86.3526 33.2865C86.2752 33.2177 86.2131 33.1335 86.1701 33.0393C86.1271 32.9451 86.1043 32.843 86.1031 32.7394C86.0572 32.4927 85.9254 32.2701 85.731 32.1113C85.5787 31.9908 85.3966 31.9136 85.2041 31.8878C85.0115 31.862 84.8155 31.8886 84.6368 31.9647C84.6218 31.774 84.5468 31.593 84.4225 31.4475C84.2983 31.3021 84.1312 31.1997 83.9453 31.155C83.5688 31.0762 83.1767 31.1303 82.8357 31.3082C82.7357 31.129 82.5924 30.9779 82.4188 30.8686C82.2453 30.7592 82.0471 30.6952 81.8423 30.6823C81.6376 30.6695 81.4329 30.7082 81.2471 30.795C81.0612 30.8818 80.9001 31.0138 80.7785 31.179C80.722 31.0922 80.6458 31.02 80.556 30.9682C80.4663 30.9165 80.3655 30.8867 80.262 30.8814C80.0557 30.8741 79.8498 30.9068 79.6558 30.9777C79.4911 31.0266 79.3325 31.0942 79.1831 31.179C78.9132 31.3461 78.7028 31.594 78.5818 31.8874C78.4608 32.1809 78.4353 32.5051 78.5091 32.8138C78.5517 32.9893 78.63 33.1542 78.7392 33.298C78.8484 33.4418 78.9861 33.5616 79.1437 33.6498Z" fill="#263238"/>
<path d="M86.1184 33.4027L87.0091 32.8774C86.9746 32.819 86.929 32.7678 86.8747 32.727C86.8205 32.6862 86.7587 32.6564 86.693 32.6395C86.6272 32.6225 86.5588 32.6186 86.4916 32.6281C86.4243 32.6376 86.3596 32.6602 86.3012 32.6947C86.2427 32.7292 86.1916 32.7749 86.1507 32.8291C86.1099 32.8834 86.0801 32.9451 86.0632 33.0109C86.0462 33.0766 86.0423 33.145 86.0518 33.2123C86.0613 33.2795 86.0839 33.3442 86.1184 33.4027Z" fill="#263238"/>
<path d="M86.9499 79.6649L86.9696 79.864C87.0057 80.1273 87.0123 80.3937 86.9893 80.6584C86.989 80.7595 86.9669 80.8592 86.9246 80.951C86.8823 81.0428 86.8208 81.1243 86.7442 81.1902C86.5621 81.2901 86.3669 81.3638 86.1643 81.4091C85.7121 81.5202 85.2356 81.4731 84.814 81.2756C84.4638 81.1071 84.1903 80.8379 83.8116 80.735C83.4207 80.6379 83.0226 80.572 82.6211 80.5381C82.4425 80.5236 82.2659 80.4913 82.0937 80.4418C81.9629 80.3957 81.8362 80.3386 81.7151 80.2711C81.2923 80.071 80.9114 79.7925 80.5924 79.4504C80.3909 79.2229 80.2522 78.9468 80.1897 78.6494C80.1547 78.4721 80.0847 77.9666 80.3757 77.9797C81.8092 78.0432 83.2208 78.3518 84.6608 78.3343C84.754 78.3277 84.8476 78.3277 84.9409 78.3343C85.1155 78.371 85.2799 78.4458 85.4224 78.5531C85.4816 78.6044 85.5522 78.6408 85.6283 78.6595C85.7044 78.6781 85.7838 78.6784 85.8601 78.6604C86.1062 78.6224 86.357 78.6261 86.602 78.6713C86.6552 78.6789 86.706 78.6986 86.7504 78.7289C86.7948 78.7593 86.8316 78.7995 86.858 78.8464C86.872 78.8804 86.8794 78.9168 86.8799 78.9536C86.904 79.2097 86.928 79.4285 86.9499 79.6649Z" fill="#263238"/>
<path d="M86.8034 77.9489L86.729 79.0278C86.6589 79.4392 85.2583 79.6843 84.9782 78.9643L84.8403 77.7388L86.8034 77.9489Z" fill="#B16668"/>
<path d="M81.4701 82.2209C81.4701 82.2209 81.6408 82.7812 81.7305 83.2714C81.8005 83.6609 81.899 84.3131 81.7568 84.602C81.6145 84.8909 81.0805 85.0659 80.2577 85.0397C79.7259 85.0222 78.8899 85.3657 78.3143 85.6699C77.7387 85.9741 76.5001 86.0858 75.8807 86.0004C75.152 85.8975 74.4057 85.4555 74.2941 85.1513C74.1825 84.8471 74.3466 84.5341 76.0842 83.8382C76.0996 83.8382 78.4916 83.1116 79.3495 82.2122L81.4701 82.2209Z" fill="#263238"/>
<path d="M81.4853 81.5268C81.4853 81.5268 81.4722 82.0017 81.47 82.2753C81.4678 82.5489 81.1352 82.945 80.3036 82.8968C79.7193 82.8618 79.3166 82.6955 79.3494 82.2162L79.3647 81.5225L81.4853 81.5268Z" fill="#B16668"/>
<path d="M87.368 69.6523C87.1207 67.5513 86.9303 66.3455 86.9303 66.3455C86.9303 66.3455 86.9741 63.4173 87.1491 60.6883C87.3352 57.7382 87.2936 54.0244 87.368 53.2891C87.368 53.2891 77.8941 51.2669 77.8153 54.6831C77.7278 58.653 77.9904 66.8664 78.0473 67.9365C78.1261 69.4378 78.1305 71.0004 78.3843 73.4362C78.636 75.8435 79.3647 81.5226 79.3647 81.5226C79.691 81.6969 80.0552 81.7881 80.4251 81.7881C80.795 81.7881 81.1591 81.6969 81.4854 81.5226C81.4854 81.5226 82.3104 74.7142 82.2776 72.9875C82.2578 71.7325 82.1378 70.4811 81.9187 69.2452L82.665 61.5374C82.665 61.5374 82.9582 63.9207 83.037 65.422C83.1158 66.9233 83.3215 67.8402 83.6935 70.6349C84.0153 73.0576 84.8316 78.1742 84.8316 78.1742C85.1419 78.3491 85.4949 78.4342 85.8508 78.4199C86.2068 78.4056 86.5518 78.2925 86.8471 78.0932C86.8471 78.0932 87.6153 71.7554 87.368 69.6523Z" fill="#BA68C8"/>
<path opacity="0.3" d="M87.368 69.6523C87.1207 67.5513 86.9303 66.3455 86.9303 66.3455C86.9303 66.3455 86.9741 63.4173 87.1491 60.6883C87.3352 57.7382 87.2936 54.0244 87.368 53.2891C87.368 53.2891 77.8941 51.2669 77.8153 54.6831C77.7278 58.653 77.9904 66.8664 78.0473 67.9365C78.1261 69.4378 78.1305 71.0004 78.3843 73.4362C78.636 75.8435 79.3647 81.5226 79.3647 81.5226C79.691 81.6969 80.0552 81.7881 80.4251 81.7881C80.795 81.7881 81.1591 81.6969 81.4854 81.5226C81.4854 81.5226 82.3104 74.7142 82.2776 72.9875C82.2578 71.7325 82.1378 70.4811 81.9187 69.2452L82.665 61.5374C82.665 61.5374 82.9582 63.9207 83.037 65.422C83.1158 66.9233 83.3215 67.8402 83.6935 70.6349C84.0153 73.0576 84.8316 78.1742 84.8316 78.1742C85.1419 78.3491 85.4949 78.4342 85.8508 78.4199C86.2068 78.4056 86.5518 78.2925 86.8471 78.0932C86.8471 78.0932 87.6153 71.7554 87.368 69.6523Z" fill="black"/>
<path opacity="0.15" d="M86.2693 57.9551C86.2693 57.9551 85.6128 59.0384 83.6213 59.8306L83.0654 61.6908L83.0063 64.9604C82.9297 63.9077 82.8137 62.7566 82.6649 61.5376L82.8838 59.6205C82.8838 59.6205 85.0897 58.9552 86.2693 57.9551Z" fill="black"/>
<path d="M87.7335 43.0492C87.3527 41.6946 86.4576 41.0971 85.4662 41.0337C85.2145 41.0183 84.7024 41.0337 84.7024 41.0337C84.7725 41.6092 83.0042 42.0141 81.6386 41.6902C81.2228 41.7974 80.5443 41.9528 80.192 42.0688C79.205 42.3971 78.0188 43.6314 77.8656 46.855C77.8656 46.855 77.7081 53.7815 77.7562 55.7949C80.1964 56.8235 82.5534 56.9526 83.9737 56.6703C86.9347 56.0947 87.4205 54.8254 87.4205 54.8254C87.4205 54.8254 87.3943 53.0746 87.2826 50.2581C87.7772 46.2751 87.8976 43.6358 87.7335 43.0492Z" fill="#455A64"/>
<path d="M76.1893 54.5303C76.4501 54.6929 76.6659 54.9183 76.8169 55.186C76.968 55.4536 77.0494 55.7549 77.0538 56.0622C77.0953 56.6925 77.0954 57.3753 77.3908 57.9465C77.4389 58.0406 77.6972 58.2529 77.7978 58.2222V57.4169C77.962 57.209 78.4106 56.8216 78.5266 56.5831C78.7192 56.1848 78.4938 55.7077 78.6098 55.27C78.6842 55.1014 78.7343 54.923 78.7586 54.7404C78.7748 54.5141 78.7389 54.2871 78.6535 54.0768C78.5681 53.8666 78.4356 53.6788 78.2662 53.5279C77.8285 53.1756 77.4433 52.7379 77.0516 52.344C76.5439 51.8341 75.8392 51.0834 75.3314 50.5713L78.7389 47.3039C79.132 46.9294 79.4603 46.4924 79.7106 46.0105C80.2686 44.9382 81.0237 43.0583 80.1811 42.0713C78.9665 42.0713 78.2771 42.2573 77.0363 43.7039C75.9661 44.9513 72.5499 49.0438 72.11 49.7375C71.6701 50.4313 71.4184 50.9062 72.261 51.6765C72.9475 52.2623 73.6649 52.8109 74.4101 53.32C74.9857 53.7337 75.6138 54.121 76.1893 54.5303Z" fill="#B16668"/>
<path d="M75.3335 50.5823C75.0277 50.8777 74.6749 51.1203 74.2896 51.3001C74.7462 51.2372 75.1833 51.0743 75.5698 50.823L75.3335 50.5823Z" fill="#9A4A4D"/>
<path d="M80.564 41.9615C80.0711 41.9383 79.5771 41.9758 79.0934 42.0731C78.3558 42.2329 77.8591 42.6071 76.581 44.0537C75.3029 45.5003 74.4056 46.6798 74.4056 46.6798C74.4056 46.6798 74.038 47.494 75.0622 48.4175C76.0864 49.341 77.0099 49.1813 77.0099 49.1813L79.8812 46.3888C79.8812 46.3888 81.9296 44.2463 80.564 41.9615Z" fill="#37474F"/>
</svg>
