<svg width="112" height="100" viewBox="0 0 112 100" fill="none" xmlns="http://www.w3.org/2000/svg">
<path d="M61.2212 89.0021V87.8443L91.3047 70.4771L110.358 81.4751V82.6329L80.2746 100L61.2212 89.0021Z" fill="#BA68C8"/>
<path d="M61.2212 87.8443L80.2746 98.8424L110.358 81.4751L91.3047 70.4771L61.2212 87.8443Z" fill="#BA68C8"/>
<path opacity="0.15" d="M61.2212 87.8442L80.2746 98.8423V100L61.2212 89.0021V87.8442Z" fill="black"/>
<path opacity="0.1" d="M80.2744 98.8424L110.358 81.4751V82.6329L80.2744 100V98.8424Z" fill="black"/>
<path d="M85.7872 83.5015L89.2977 85.5283V71.8024L77.2628 64.8555L77.2653 78.5814L85.7872 83.5015Z" fill="#EBEBEB"/>
<path d="M88.2954 71.6719L101.333 74.8318V74.2517L88.2954 71.0942V71.6719Z" fill="#37474F"/>
<path d="M76.2629 64.1421L88.2954 71.0939L101.333 74.2514L89.3001 67.302L76.2629 64.1421Z" fill="#455A64"/>
<path opacity="0.5" d="M76.2629 64.1421L88.2954 71.0939L101.333 74.2514L89.3001 67.302L76.2629 64.1421Z" fill="#37474F"/>
<path d="M76.2629 64.1421L88.2954 71.0939V71.6716L76.2629 64.7222V64.1421Z" fill="#263238"/>
<path d="M89.2977 85.5284L100.33 79.1592V74.5871L89.2977 71.916V85.5284Z" fill="#EBEBEB"/>
<path d="M89.2977 72.5924L100.33 75.266V74.5871L89.2977 71.916V72.5924Z" fill="#E0E0E0"/>
<path d="M91.3021 84.3704V79.159L98.3256 75.1079V80.3169L91.3021 84.3704Z" fill="#455A64"/>
<path opacity="0.5" d="M91.3021 84.3704V79.159L98.3256 75.1079V80.3169L91.3021 84.3704Z" fill="#37474F"/>
<path d="M98.3258 75.1079L98.2295 75.1622V80.2625L98.3258 80.3144V75.1079Z" fill="#263238"/>
<path d="M98.2268 80.2651L91.3021 84.2619V84.3706L98.3256 80.317L98.2268 80.2651Z" fill="#37474F"/>
<path d="M80.2745 95.3712V74.528L67.2373 67.001V87.8442L80.2745 95.3712Z" fill="#EBEBEB"/>
<path d="M67.2373 67.001V69.8968L80.2745 77.4238V74.528L67.2373 67.001Z" fill="#E0E0E0"/>
<path d="M70.2467 72.7701L68.2396 71.6147V86.6664L70.2467 87.8242V72.7701Z" fill="#455A64"/>
<path d="M68.4001 86.575V71.7061L70.2467 72.7701V87.639L68.4001 86.575Z" fill="#FAFAFA"/>
<path d="M68.4001 71.7061L70.2467 72.7701V73.3206L68.4001 72.2615V71.7061Z" fill="#E0E0E0"/>
<path d="M68.2396 86.6665L68.4001 86.5752L70.2467 87.6392V87.8244L68.2396 86.6665Z" fill="#37474F"/>
<path d="M77.2653 77.4236L73.2537 75.1055V79.7392L77.2653 82.0548V77.4236Z" fill="#455A64"/>
<path d="M73.4139 79.6478V75.1992L77.2651 77.4235V81.8696L73.4139 79.6478Z" fill="#FAFAFA"/>
<path d="M73.4139 75.1992V75.9077L77.2651 78.132V77.4235L73.4139 75.1992Z" fill="#E0E0E0"/>
<path d="M73.2537 79.7393L73.4141 79.6479L77.2653 81.8698V82.0549L73.2537 79.7393Z" fill="#37474F"/>
<path d="M75.0977 76.1724L75.2581 76.2637V80.8974L75.0977 80.8061V76.1724Z" fill="#455A64"/>
<path d="M75.2583 76.2632V80.8969L75.4212 80.8031V76.357L75.2583 76.2632Z" fill="#37474F"/>
<path d="M77.2653 85.5285L73.2537 83.2129V87.8442L77.2653 90.1598V85.5285Z" fill="#455A64"/>
<path d="M73.4139 87.7528V83.3042L77.2651 85.5285V89.9746L73.4139 87.7528Z" fill="#FAFAFA"/>
<path d="M73.4139 83.3042V84.0127L77.2651 86.237V85.5285L73.4139 83.3042Z" fill="#E0E0E0"/>
<path d="M73.2537 87.8443L73.4141 87.7529L77.2653 89.9748V90.1599L73.2537 87.8443Z" fill="#37474F"/>
<path d="M75.0977 84.2769L75.2581 84.3707V89.0019L75.0977 88.9106V84.2769Z" fill="#455A64"/>
<path d="M75.2583 84.3706V89.0019L75.4212 88.9105V84.462L75.2583 84.3706Z" fill="#37474F"/>
<path d="M80.2744 74.5283L90.3022 64.1079V89.5824L80.2744 95.3715V74.5283Z" fill="#FAFAFA"/>
<path d="M90.3022 81.4749L80.2744 87.264V84.3707L90.3022 78.5347V81.4749Z" fill="#E0E0E0"/>
<path d="M80.2744 76.0194L90.3022 65.636V64.1079L80.2744 74.5283V76.0194Z" fill="#F0F0F0"/>
<path d="M83.2814 75.6589L87.293 73.3433V79.7396L83.2814 82.0553V75.6589Z" fill="#455A64"/>
<path d="M87.1325 79.6478V73.4365L83.2814 75.6583V81.8696L87.1325 79.6478Z" fill="#E6E6E6"/>
<path d="M87.1325 73.4365V74.145L83.2814 76.3669V75.6583L87.1325 73.4365Z" fill="#E0E0E0"/>
<path d="M87.293 79.7393L87.1325 79.6479L83.2814 81.8698V82.0549L87.293 79.7393Z" fill="#37474F"/>
<path d="M85.449 74.4097L85.2886 74.501V80.8974L85.449 80.806V74.4097Z" fill="#455A64"/>
<path d="M85.2884 74.501V80.8974L85.1255 80.8036V74.5948L85.2884 74.501Z" fill="#37474F"/>
<path d="M83.7826 93.3471V86.9606L86.7919 85.2251V91.6091L83.7826 93.3471Z" fill="#37474F"/>
<path d="M86.6956 91.5374V85.2793L83.7826 86.9605V93.2186L86.6956 91.5374Z" fill="#455A64"/>
<path d="M86.7918 85.2251L86.6956 85.2794V91.5375L86.7918 91.6091V85.2251Z" fill="#263238"/>
<path d="M80.2744 83.7906L90.3023 78.0015L92.3068 79.1593L82.279 84.9484L80.2744 83.7906Z" fill="#E0E0E0"/>
<path d="M80.2744 83.7905V84.3707L82.279 85.5285V84.9483L80.2744 83.7905Z" fill="#EBEBEB"/>
<path d="M82.2791 84.9483L92.3069 79.1592V79.7393L82.2791 85.5284V84.9483Z" fill="#F5F5F5"/>
<path d="M82.3508 81.186V84.6274C82.3508 84.6337 82.349 84.6399 82.3454 84.6452C82.3419 84.6505 82.3369 84.6546 82.3311 84.657C82.3151 84.6655 82.2973 84.6699 82.2792 84.6699C82.2612 84.6699 82.2434 84.6655 82.2274 84.657C82.2215 84.6546 82.2165 84.6505 82.213 84.6452C82.2095 84.6399 82.2076 84.6337 82.2076 84.6274V81.186H82.3508Z" fill="#37474F"/>
<path d="M83.2172 80.6851V84.1264C83.2176 84.1328 83.2158 84.1392 83.2123 84.1445C83.2087 84.1499 83.2035 84.1539 83.1975 84.156C83.1815 84.1645 83.1637 84.1689 83.1456 84.1689C83.1275 84.1689 83.1098 84.1645 83.0938 84.156C83.0877 84.1539 83.0825 84.1499 83.079 84.1445C83.0754 84.1392 83.0737 84.1328 83.074 84.1264V80.6851H83.2172Z" fill="#37474F"/>
<path d="M84.0861 80.186V83.6274C84.0861 83.6274 84.0861 83.6471 84.0639 83.657C84.0476 83.6644 84.0299 83.6682 84.012 83.6682C83.9941 83.6682 83.9765 83.6644 83.9602 83.657C83.9549 83.6538 83.9504 83.6495 83.947 83.6444C83.9436 83.6393 83.9413 83.6335 83.9404 83.6274V80.186H84.0861Z" fill="#37474F"/>
<path d="M84.9527 79.6851V83.1264C84.9519 83.1329 84.9494 83.139 84.9455 83.1442C84.9416 83.1494 84.9364 83.1535 84.9304 83.156C84.9145 83.1645 84.8967 83.1689 84.8786 83.1689C84.8605 83.1689 84.8427 83.1645 84.8268 83.156C84.8212 83.1532 84.8165 83.1489 84.8131 83.1438C84.8096 83.1386 84.8075 83.1326 84.807 83.1264V79.6851H84.9527Z" fill="#37474F"/>
<path d="M85.8191 79.1841V82.6254C85.8183 82.6319 85.8159 82.638 85.812 82.6432C85.8081 82.6484 85.8029 82.6525 85.7969 82.6551C85.7814 82.6635 85.764 82.6679 85.7463 82.6679C85.7286 82.6679 85.7112 82.6635 85.6957 82.6551C85.6897 82.6525 85.6845 82.6484 85.6806 82.6432C85.6767 82.638 85.6742 82.6319 85.6735 82.6254V79.1841H85.8191Z" fill="#37474F"/>
<path d="M86.6858 78.6831V82.1245C86.6853 82.131 86.6829 82.1373 86.679 82.1425C86.6751 82.1477 86.6697 82.1518 86.6636 82.1541C86.6481 82.1625 86.6307 82.1669 86.613 82.1669C86.5953 82.1669 86.5779 82.1625 86.5624 82.1541C86.5562 82.1518 86.5509 82.1477 86.547 82.1425C86.543 82.1373 86.5407 82.131 86.5402 82.1245V78.6831H86.6858Z" fill="#37474F"/>
<path d="M87.5524 78.1841V81.6254C87.5524 81.6254 87.5524 81.6452 87.5302 81.6551C87.5143 81.6624 87.497 81.6662 87.4796 81.6662C87.4621 81.6662 87.4448 81.6624 87.429 81.6551C87.4141 81.6452 87.4067 81.6353 87.4067 81.6254V78.1841H87.5524Z" fill="#37474F"/>
<path d="M88.4188 77.6831V81.1245C88.4183 81.1307 88.4162 81.1366 88.4128 81.1418C88.4093 81.147 88.4046 81.1512 88.3991 81.1541C88.3831 81.1625 88.3653 81.1669 88.3473 81.1669C88.3292 81.1669 88.3114 81.1625 88.2954 81.1541C88.2894 81.1515 88.2842 81.1475 88.2803 81.1423C88.2764 81.1371 88.274 81.1309 88.2732 81.1245V77.6831H88.4188Z" fill="#37474F"/>
<path d="M89.2853 77.1816V80.623C89.285 80.6293 89.283 80.6353 89.2795 80.6406C89.2761 80.6458 89.2712 80.6499 89.2656 80.6526C89.2496 80.6611 89.2318 80.6655 89.2137 80.6655C89.1956 80.6655 89.1778 80.6611 89.1619 80.6526C89.1557 80.6503 89.1504 80.6463 89.1465 80.641C89.1425 80.6358 89.1402 80.6295 89.1396 80.623V77.1816H89.2853Z" fill="#37474F"/>
<path d="M90.1518 76.6831V80.1245C90.1515 80.1307 90.1495 80.1368 90.146 80.142C90.1425 80.1472 90.1377 80.1514 90.132 80.1541C90.1157 80.1615 90.098 80.1653 90.0802 80.1653C90.0623 80.1653 90.0446 80.1615 90.0283 80.1541C90.0135 80.1442 90.0061 80.1343 90.0061 80.1245V76.6831H90.1518Z" fill="#37474F"/>
<path d="M91.0182 76.1821V79.6235C91.0182 79.6298 91.0163 79.636 91.0128 79.6413C91.0093 79.6466 91.0043 79.6507 90.9984 79.6531C90.9825 79.6615 90.9647 79.666 90.9466 79.666C90.9285 79.666 90.9107 79.6615 90.8948 79.6531C90.8889 79.6507 90.8839 79.6466 90.8804 79.6413C90.8769 79.636 90.875 79.6298 90.875 79.6235V76.1821H91.0182Z" fill="#37474F"/>
<path d="M91.8872 75.6807V79.122C91.8867 79.1286 91.8844 79.1348 91.8804 79.1401C91.8765 79.1453 91.8711 79.1493 91.865 79.1516C91.849 79.1601 91.8312 79.1645 91.8132 79.1645C91.7951 79.1645 91.7773 79.1601 91.7613 79.1516C91.7557 79.149 91.7508 79.1448 91.7473 79.1396C91.7439 79.1344 91.7419 79.1283 91.7416 79.122V75.6807H91.8872Z" fill="#37474F"/>
<path d="M82.2791 81.3095C82.2572 81.3099 82.2358 81.3039 82.2173 81.2922L80.6053 80.3788C80.5787 80.3618 80.5596 80.3353 80.5519 80.3047C80.5442 80.274 80.5486 80.2417 80.5641 80.2141C80.5796 80.1866 80.605 80.1661 80.6352 80.1568C80.6654 80.1475 80.6979 80.1501 80.7262 80.164L82.2791 81.0429L92.0576 75.397L89.774 74.0984C89.7599 74.0903 89.7475 74.0795 89.7376 74.0666C89.7277 74.0538 89.7204 74.039 89.7161 74.0233C89.7119 74.0076 89.7108 73.9913 89.7129 73.9751C89.715 73.959 89.7202 73.9434 89.7283 73.9293C89.7364 73.9152 89.7472 73.9029 89.7601 73.8929C89.773 73.883 89.7877 73.8757 89.8034 73.8715C89.8191 73.8672 89.8355 73.8661 89.8517 73.8682C89.8678 73.8703 89.8833 73.8756 89.8974 73.8837L92.3661 75.2883C92.3848 75.2997 92.4003 75.3156 92.4111 75.3346C92.4219 75.3537 92.4277 75.3751 92.4279 75.397C92.4277 75.4185 92.422 75.4396 92.4111 75.4583C92.4003 75.4769 92.3848 75.4924 92.3661 75.5031L82.3383 81.2922C82.3206 81.3034 82.3 81.3094 82.2791 81.3095Z" fill="#455A64"/>
<path d="M79.4525 75.3403L90.6604 63.7349V63.1548L79.4525 74.7601V75.3403Z" fill="#37474F"/>
<path d="M79.4524 75.34L66.0573 67.6055V67.0254L79.4524 74.7598V75.34Z" fill="#263238"/>
<path d="M77.2651 55.4229L90.6603 63.1548L79.4524 74.7601L66.0573 67.0257L77.2651 55.4229Z" fill="#455A64"/>
<path d="M98.3256 80.3169L105.344 84.3705L98.3256 88.4241L91.3021 84.3705L98.3256 80.3169Z" fill="#F0F0F0"/>
<path d="M86.7919 91.6089L83.7826 93.3468L86.7895 95.0823L89.7988 93.3444L86.7919 91.6089Z" fill="#F0F0F0"/>
<path d="M90.0579 90.18L90.4849 89.9331C90.6024 89.2388 90.619 88.5313 90.5343 87.8323C90.3195 86.4671 89.3913 85.998 89.0531 86.1338C88.7149 86.2696 88.6359 86.672 89.2457 87.462C89.7988 88.2584 90.0834 89.2106 90.0579 90.18Z" fill="#BA68C8"/>
<g opacity="0.2">
<path d="M90.0579 90.18L90.4849 89.9331C90.6024 89.2388 90.619 88.5313 90.5343 87.8323C90.3195 86.4671 89.3913 85.998 89.0531 86.1338C88.7149 86.2696 88.6359 86.672 89.2457 87.462C89.7988 88.2584 90.0834 89.2106 90.0579 90.18Z" fill="black"/>
</g>
<path d="M90.2133 89.6371C90.2092 89.6368 90.2052 89.6356 90.2015 89.6337C90.1978 89.6317 90.1946 89.6291 90.1921 89.6258C90.1895 89.6225 90.1877 89.6188 90.1866 89.6148C90.1856 89.6108 90.1855 89.6066 90.1862 89.6025C90.3639 88.3262 89.848 86.9264 89.2728 86.3611C89.27 86.3583 89.2678 86.3551 89.2663 86.3515C89.2648 86.3479 89.264 86.344 89.264 86.3401C89.264 86.3362 89.2648 86.3323 89.2663 86.3287C89.2678 86.3251 89.27 86.3219 89.2728 86.3191C89.279 86.3139 89.2868 86.311 89.295 86.311C89.3031 86.311 89.311 86.3139 89.3172 86.3191C89.9047 86.8943 90.4281 88.3163 90.2479 89.6148C90.2473 89.6187 90.246 89.6224 90.2439 89.6257C90.2418 89.6289 90.239 89.6317 90.2357 89.6338C90.2324 89.636 90.2287 89.6373 90.2249 89.6379C90.221 89.6384 90.2171 89.6382 90.2133 89.6371Z" fill="white"/>
<path d="M88.8704 90.8638C88.8038 90.9033 88.6655 90.8169 88.6112 90.7824C88.5197 90.7198 88.4458 90.6348 88.3964 90.5355C88.3413 90.4239 88.3231 90.2977 88.3446 90.1751C88.3544 90.109 88.3693 90.0438 88.389 89.9801C88.4063 89.9183 88.4261 89.8566 88.4433 89.7949C88.4647 89.7339 88.474 89.6693 88.4705 89.6048C88.4347 89.4802 88.3514 89.3747 88.2384 89.311C88.1746 89.2744 88.1202 89.2235 88.0795 89.1622C88.0388 89.1009 88.0129 89.031 88.0039 88.958C88.0142 88.8387 88.0617 88.7256 88.1397 88.6346C88.2137 88.5408 88.3026 88.4593 88.3693 88.3606C88.4225 88.2896 88.4495 88.2024 88.4458 88.1137C88.4387 88.0614 88.421 88.011 88.394 87.9656C88.3315 87.8698 88.277 87.7691 88.231 87.6644C88.208 87.612 88.2006 87.554 88.2098 87.4975C88.219 87.441 88.2444 87.3884 88.2829 87.346C88.3203 87.3179 88.3629 87.2976 88.4083 87.2861C88.4536 87.2747 88.5008 87.2724 88.547 87.2793C88.6346 87.2897 88.7189 87.3192 88.7939 87.3657C89.0408 87.5015 89.179 87.7928 89.4382 87.8965C89.5411 87.9284 89.6458 87.9539 89.7517 87.973C89.8049 87.9832 89.8553 88.0042 89.8999 88.0348C89.9445 88.0654 89.9823 88.1049 90.011 88.1507C90.1072 88.3408 89.9295 88.5754 89.9961 88.7778C90.0628 88.9802 90.2282 89.0247 90.3269 89.1851C90.3661 89.2567 90.3816 89.3388 90.3714 89.4197C90.3641 89.5564 90.3306 89.6905 90.2726 89.8147C90.21 89.9391 90.1382 90.0588 90.0579 90.1726L88.8704 90.8638Z" fill="#BA68C8"/>
<g opacity="0.1">
<path d="M88.8704 90.8638C88.8038 90.9033 88.6655 90.8169 88.6112 90.7824C88.5197 90.7198 88.4458 90.6348 88.3964 90.5355C88.3413 90.4239 88.3231 90.2977 88.3446 90.1751C88.3544 90.109 88.3693 90.0438 88.389 89.9801C88.4063 89.9183 88.4261 89.8566 88.4433 89.7949C88.4647 89.7339 88.474 89.6693 88.4705 89.6048C88.4347 89.4802 88.3514 89.3747 88.2384 89.311C88.1746 89.2744 88.1202 89.2235 88.0795 89.1622C88.0388 89.1009 88.0129 89.031 88.0039 88.958C88.0142 88.8387 88.0617 88.7256 88.1397 88.6346C88.2137 88.5408 88.3026 88.4593 88.3693 88.3606C88.4225 88.2896 88.4495 88.2024 88.4458 88.1137C88.4387 88.0614 88.421 88.011 88.394 87.9656C88.3315 87.8698 88.277 87.7691 88.231 87.6644C88.208 87.612 88.2006 87.554 88.2098 87.4975C88.219 87.441 88.2444 87.3884 88.2829 87.346C88.3203 87.3179 88.3629 87.2976 88.4083 87.2861C88.4536 87.2747 88.5008 87.2724 88.547 87.2793C88.6346 87.2897 88.7189 87.3192 88.7939 87.3657C89.0408 87.5015 89.179 87.7928 89.4382 87.8965C89.5411 87.9284 89.6458 87.9539 89.7517 87.973C89.8049 87.9832 89.8553 88.0042 89.8999 88.0348C89.9445 88.0654 89.9823 88.1049 90.011 88.1507C90.1072 88.3408 89.9295 88.5754 89.9961 88.7778C90.0628 88.9802 90.2282 89.0247 90.3269 89.1851C90.3661 89.2567 90.3816 89.3388 90.3714 89.4197C90.3641 89.5564 90.3306 89.6905 90.2726 89.8147C90.21 89.9391 90.1382 90.0588 90.0579 90.1726L88.8704 90.8638Z" fill="black"/>
</g>
<path d="M89.5642 90.4937C89.5563 90.4937 89.5488 90.4906 89.5432 90.485C89.5377 90.4795 89.5345 90.472 89.5345 90.4641C89.5839 89.2544 89.0161 87.9189 88.6014 87.5313C88.5985 87.5285 88.5961 87.5252 88.5945 87.5216C88.5928 87.5179 88.5919 87.514 88.5918 87.51C88.5917 87.5059 88.5924 87.5019 88.5938 87.4982C88.5952 87.4944 88.5974 87.491 88.6001 87.4881C88.6029 87.4852 88.6062 87.4828 88.6099 87.4812C88.6135 87.4795 88.6175 87.4786 88.6215 87.4785C88.6255 87.4784 88.6295 87.4791 88.6332 87.4805C88.637 87.4819 88.6404 87.4841 88.6433 87.4869C89.0655 87.8819 89.6456 89.2396 89.5963 90.4666C89.5951 90.4742 89.5912 90.4811 89.5853 90.4861C89.5794 90.4911 89.5719 90.4938 89.5642 90.4937Z" fill="white"/>
<path d="M89.3839 89.0668C89.0976 88.9887 88.8038 88.9415 88.5075 88.9261C88.5034 88.9261 88.4993 88.9253 88.4956 88.9236C88.4918 88.922 88.4884 88.9196 88.4856 88.9165C88.4829 88.9135 88.4807 88.91 88.4794 88.9061C88.4781 88.9022 88.4775 88.8981 88.4779 88.894C88.4779 88.8899 88.4787 88.8858 88.4803 88.8821C88.482 88.8783 88.4844 88.8749 88.4874 88.8721C88.4904 88.8693 88.494 88.8672 88.4979 88.8659C88.5018 88.8645 88.5059 88.864 88.51 88.8644C88.8123 88.8801 89.112 88.9289 89.4036 89.01C89.4074 89.0111 89.4108 89.013 89.4139 89.0155C89.4169 89.0179 89.4194 89.021 89.4212 89.0244C89.423 89.0279 89.4242 89.0316 89.4246 89.0355C89.4249 89.0394 89.4245 89.0433 89.4234 89.047C89.4201 89.0544 89.4144 89.0604 89.4072 89.0641C89.4 89.0677 89.3918 89.0686 89.3839 89.0668Z" fill="white"/>
<path d="M108.952 78.0419L108.191 79.541L108.314 79.6036L109.075 78.1044L108.952 78.0419Z" fill="#455A64"/>
<path d="M107.544 77.9253L107.427 77.998L108.169 79.1966L108.286 79.1238L107.544 77.9253Z" fill="#455A64"/>
<path d="M108.371 77.792V81.4062C108.369 81.4162 108.365 81.4256 108.359 81.4338C108.353 81.4419 108.345 81.4485 108.336 81.4531C108.311 81.4653 108.283 81.4717 108.255 81.4717C108.226 81.4717 108.199 81.4653 108.173 81.4531C108.164 81.4484 108.157 81.4417 108.151 81.4335C108.146 81.4254 108.142 81.416 108.141 81.4062V77.792H108.371Z" fill="#455A64"/>
<path d="M111.101 76.666C111.101 76.9981 111.003 77.3228 110.818 77.5989C110.633 77.875 110.371 78.0902 110.064 78.2172C109.757 78.3442 109.42 78.3773 109.094 78.3123C108.768 78.2473 108.469 78.0872 108.234 77.8522C108 77.6171 107.84 77.3178 107.776 76.992C107.711 76.6662 107.745 76.3286 107.872 76.0219C108 75.7152 108.215 75.4532 108.492 75.269C108.768 75.0849 109.093 74.9868 109.425 74.9873C109.645 74.9873 109.863 75.0307 110.067 75.1151C110.27 75.1995 110.455 75.3232 110.611 75.4791C110.767 75.6351 110.89 75.8201 110.974 76.0238C111.058 76.2274 111.101 76.4457 111.101 76.666Z" fill="#BA68C8"/>
<path opacity="0.2" d="M109.963 76.2367C110.178 75.5553 110.41 75.2887 110.264 75.2048C109.986 75.0474 109.669 74.9725 109.35 74.9891C109.031 75.0056 108.723 75.1129 108.463 75.2982C108.203 75.4836 108.001 75.7393 107.881 76.0354C107.761 76.3316 107.728 76.6558 107.786 76.9699C107.844 77.2841 107.99 77.5752 108.208 77.8091C108.426 78.043 108.706 78.2099 109.015 78.2903C109.324 78.3706 109.65 78.3611 109.954 78.2628C110.258 78.1644 110.527 77.9814 110.731 77.7352C110.222 77.8808 109.669 77.1205 109.963 76.2367Z" fill="black"/>
<path d="M107.958 77.1424C107.958 77.3759 107.889 77.6042 107.759 77.7983C107.63 77.9924 107.445 78.1436 107.229 78.2329C107.014 78.3221 106.776 78.3454 106.547 78.2996C106.318 78.2539 106.108 78.1413 105.943 77.976C105.778 77.8107 105.666 77.6002 105.621 77.3711C105.575 77.1421 105.599 76.9047 105.689 76.6892C105.778 76.4736 105.93 76.2894 106.125 76.1601C106.319 76.0307 106.547 75.9619 106.781 75.9624C106.936 75.9624 107.089 75.9929 107.232 76.0523C107.375 76.1116 107.505 76.1986 107.614 76.3082C107.724 76.4178 107.81 76.5479 107.869 76.691C107.928 76.8342 107.959 76.9876 107.958 77.1424Z" fill="#BA68C8"/>
<path opacity="0.2" d="M106.781 75.9624C106.533 75.9615 106.291 76.0393 106.09 76.1846C106.06 76.9055 106.67 77.6066 106.499 77.8436C106.329 78.0805 105.907 77.9349 105.759 77.7349C105.863 77.9129 106.012 78.0604 106.191 78.1627C106.37 78.2649 106.573 78.3183 106.78 78.3175C106.986 78.3167 107.188 78.2618 107.367 78.1582C107.545 78.0546 107.693 77.9059 107.796 77.7271C107.899 77.5483 107.953 77.3457 107.953 77.1394C107.952 76.9331 107.898 76.7305 107.795 76.5518C107.692 76.3731 107.544 76.2246 107.366 76.1212C107.187 76.0178 106.985 75.963 106.778 75.9624H106.781Z" fill="black"/>
<path d="M108.255 78.0337C109.45 78.0337 110.42 77.0644 110.42 75.8687C110.42 74.6729 109.45 73.7036 108.255 73.7036C107.059 73.7036 106.09 74.6729 106.09 75.8687C106.09 77.0644 107.059 78.0337 108.255 78.0337Z" fill="#BA68C8"/>
<path opacity="0.1" d="M110.36 76.3647C110.278 76.7142 110.109 77.0375 109.87 77.3056C109.632 77.5737 109.33 77.7781 108.992 77.9003C108.654 78.0226 108.291 78.0587 107.936 78.0057C107.581 77.9526 107.245 77.8119 106.958 77.5963C106.67 77.3806 106.441 77.0969 106.291 76.7707C106.141 76.4444 106.075 76.0859 106.098 75.7276C106.121 75.3692 106.233 75.0222 106.424 74.718C106.615 74.4137 106.878 74.1618 107.191 73.9849C107.008 74.0928 106.841 74.2266 106.697 74.3823C106.59 74.8446 106.638 75.3291 106.834 75.7613C107.03 76.1934 107.363 76.5492 107.781 76.7737C108.198 76.9983 108.679 77.0791 109.147 77.0039C109.616 76.9286 110.046 76.7014 110.373 76.3573L110.36 76.3647Z" fill="black"/>
<path d="M64.3239 84.5121L63.563 86.0112L63.6863 86.0738L64.4472 84.5747L64.3239 84.5121Z" fill="#455A64"/>
<path d="M63.2537 84.1167L63.1362 84.1899L63.8833 85.3881L64.0008 85.3148L63.2537 84.1167Z" fill="#455A64"/>
<path d="M63.7415 84.2573V87.8764C63.7408 87.8867 63.7372 87.8966 63.7311 87.9049C63.725 87.9132 63.7166 87.9196 63.707 87.9233C63.6824 87.9367 63.6548 87.9438 63.6268 87.9438C63.5987 87.9438 63.5711 87.9367 63.5465 87.9233C63.5369 87.9196 63.5285 87.9132 63.5224 87.9049C63.5163 87.8966 63.5127 87.8867 63.512 87.8764V84.2573H63.7415Z" fill="#455A64"/>
<path d="M66.4745 83.1318C66.4755 83.4636 66.3781 83.7883 66.1946 84.0648C66.0112 84.3413 65.75 84.5572 65.4439 84.6853C65.1378 84.8134 64.8006 84.8479 64.4749 84.7845C64.1492 84.7211 63.8496 84.5626 63.614 84.329C63.3783 84.0954 63.2172 83.7972 63.1509 83.4721C63.0846 83.147 63.1162 82.8095 63.2416 82.5023C63.367 82.1951 63.5806 81.9319 63.8554 81.7461C64.1303 81.5602 64.4541 81.46 64.7859 81.458C65.0068 81.4567 65.2257 81.499 65.4302 81.5825C65.6347 81.666 65.8207 81.789 65.9776 81.9445C66.1344 82.1 66.2591 82.2849 66.3443 82.4886C66.4296 82.6924 66.4738 82.9109 66.4745 83.1318Z" fill="#BA68C8"/>
<path opacity="0.2" d="M65.3215 82.7048C65.5387 82.0234 65.7683 81.7568 65.6227 81.6728C65.3447 81.5151 65.0274 81.44 64.7082 81.4563C64.389 81.4726 64.0811 81.5798 63.8207 81.7651C63.5602 81.9505 63.3582 82.2063 63.2382 82.5026C63.1182 82.7988 63.0852 83.1232 63.1432 83.4375C63.2013 83.7518 63.3478 84.0431 63.5657 84.277C63.7835 84.5109 64.0636 84.6777 64.373 84.7579C64.6825 84.838 65.0083 84.8282 65.3124 84.7295C65.6164 84.6308 65.8859 84.4474 66.0893 84.2008C65.593 84.3464 65.0327 83.5885 65.3215 82.7048Z" fill="black"/>
<path d="M63.3317 83.6083C63.3317 83.8416 63.2625 84.0698 63.1329 84.2639C63.0032 84.4579 62.8189 84.6092 62.6033 84.6985C62.3877 84.7878 62.1504 84.8112 61.9215 84.7656C61.6926 84.7201 61.4823 84.6077 61.3173 84.4427C61.1523 84.2776 61.0399 84.0674 60.9944 83.8385C60.9488 83.6096 60.9722 83.3723 61.0615 83.1567C61.1508 82.9411 61.3021 82.7568 61.4961 82.6271C61.6902 82.4974 61.9183 82.4282 62.1517 82.4282C62.4647 82.4282 62.7648 82.5525 62.9861 82.7738C63.2074 82.9951 63.3317 83.2953 63.3317 83.6083Z" fill="#BA68C8"/>
<path opacity="0.2" d="M62.1518 82.4282C61.9046 82.4285 61.6638 82.5062 61.463 82.6504C61.4309 83.3713 62.0432 84.0748 61.8704 84.3094C61.6976 84.5439 61.2779 84.4007 61.1298 84.2007C61.2337 84.3798 61.383 84.5284 61.5625 84.6315C61.7421 84.7346 61.9456 84.7887 62.1526 84.7883C62.3597 84.7879 62.563 84.733 62.7421 84.6291C62.9213 84.5253 63.0699 84.3761 63.1732 84.1966C63.2764 84.0172 63.3306 83.8137 63.3303 83.6066C63.33 83.3995 63.2752 83.1962 63.1715 83.017C63.0678 82.8378 62.9187 82.6891 62.7393 82.5857C62.5598 82.4824 62.3564 82.4281 62.1493 82.4282H62.1518Z" fill="black"/>
<path d="M63.6282 84.5015C64.8239 84.5015 65.7932 83.5322 65.7932 82.3364C65.7932 81.1407 64.8239 80.1714 63.6282 80.1714C62.4325 80.1714 61.4631 81.1407 61.4631 82.3364C61.4631 83.5322 62.4325 84.5015 63.6282 84.5015Z" fill="#BA68C8"/>
<path opacity="0.1" d="M65.7337 82.8305C65.6522 83.1813 65.4845 83.5062 65.2457 83.7758C65.0069 84.0455 64.7046 84.2513 64.3662 84.3746C64.0278 84.4979 63.664 84.5348 63.3077 84.4821C62.9515 84.4293 62.614 84.2885 62.3259 84.0724C62.0377 83.8563 61.8081 83.5718 61.6577 83.2445C61.5073 82.9173 61.4409 82.5577 61.4645 82.1983C61.4881 81.8389 61.6011 81.4911 61.793 81.1864C61.985 80.8816 62.25 80.6296 62.5639 80.4531C62.3767 80.5592 62.2062 80.6923 62.0579 80.8481C62.0203 81.01 62.0013 81.1757 62.0011 81.3419C62.0017 81.7746 62.1322 82.1972 62.3756 82.555C62.619 82.9128 62.9642 83.1893 63.3664 83.3488C63.7687 83.5084 64.2096 83.5435 64.632 83.4498C65.0545 83.3561 65.4391 83.1377 65.7362 82.8231L65.7337 82.8305Z" fill="black"/>
<path d="M0.898682 80.6526V79.4948L40.0077 56.9062L62.0705 69.6521V70.8099L22.9589 93.4034L0.898682 80.6526Z" fill="#BA68C8"/>
<path d="M0.898682 79.4948L22.9589 92.2431L62.0705 69.6521L40.0077 56.9062L0.898682 79.4948Z" fill="#BA68C8"/>
<path d="M48.0286 67.3369L39.0031 72.5483L48.0385 77.7597L57.0541 72.5138L48.0286 67.3369Z" fill="#F0F0F0"/>
<path opacity="0.15" d="M0.898682 79.4951L22.9589 92.2435V93.4037L0.898682 80.6529V79.4951Z" fill="black"/>
<path opacity="0.1" d="M22.9589 92.2434L62.0704 69.6523V70.8102L22.9589 93.4037V92.2434Z" fill="black"/>
<path d="M31.5229 51.9714L45.5624 43.8667L52.0403 56.3361L38.0008 64.4433L31.5229 51.9714Z" fill="#455A64"/>
<path opacity="0.5" d="M31.5229 51.9714L45.5624 43.8667L52.0403 56.3361L38.0008 64.4433L31.5229 51.9714Z" fill="#37474F"/>
<path d="M38.0006 73.1258L50.0355 66.1789V58.0742L38.0006 65.0211V73.1258Z" fill="#F0F0F0"/>
<path d="M39.0029 72.548V65.6011L48.0285 60.3896V67.3366L39.0029 72.548Z" fill="#455A64"/>
<path opacity="0.5" d="M39.0029 72.548V65.6011L48.0285 60.3896V67.3366L39.0029 72.548Z" fill="#37474F"/>
<path d="M48.0285 60.3896L47.9347 60.444V67.2822L48.0285 67.3341V60.3896Z" fill="#263238"/>
<path d="M47.9322 67.2822L39.0029 72.4418V72.548L48.0285 67.3365L47.9322 67.2822Z" fill="#37474F"/>
<path d="M46.5695 55.9981V52.2457L44.4094 50.999L42.2567 54.7268V58.4915L46.5695 55.9981Z" fill="#F0F0F0"/>
<path d="M44.4094 50.999L47.0756 52.537L47.4163 52.342L44.4094 50.604V50.999Z" fill="#263238"/>
<path d="M42.2567 58.4914L40.1015 54.7538L39.0029 52.843L42.2567 54.7266V58.4914Z" fill="#E0E0E0"/>
<path opacity="0.4" d="M47.0755 52.5367H46.5695V52.2454L47.0755 52.5367Z" fill="black"/>
<path d="M41.7432 55.6155L44.4094 50.999V50.604L41.4099 55.808L41.7432 55.6155Z" fill="#BA68C8"/>
<path d="M41.7432 55.6155L44.4094 50.999V50.604L41.4099 55.808L41.7432 55.6155Z" fill="#37474F"/>
<path d="M41.4099 55.8081L44.4093 50.604L41.3087 48.8118L38.3092 54.0158L41.4099 55.8081Z" fill="#BA68C8"/>
<path d="M41.4099 55.8081L44.4093 50.604L41.3087 48.8118L38.3092 54.0158L41.4099 55.8081Z" fill="#263238"/>
<path d="M43.3356 54.1241L45.4907 52.8774V55.3659L43.3356 56.6126V54.1241Z" fill="#455A64"/>
<path d="M45.271 55.2376V53.0059L43.3356 54.1242V56.3559L45.271 55.2376Z" fill="#E0E0E0"/>
<path d="M45.4907 55.3662L45.271 55.2378L43.3356 56.3561V56.6129L45.4907 55.3662Z" fill="#37474F"/>
<path d="M52.0401 56.3364L38.0006 64.4436V65.0213L52.0401 56.9166V56.3364Z" fill="#37474F"/>
<path d="M18.9473 70.2325L12.9311 58.6519L6.91492 63.2856V79.495L18.9473 86.4419V70.2325Z" fill="#F0F0F0"/>
<path d="M10.9265 67.9171L8.91943 66.7593V70.2303L10.9265 71.3906V67.9171Z" fill="#455A64"/>
<path d="M9.07996 70.1384V66.8501L10.9265 67.9166V71.2049L9.07996 70.1384Z" fill="#FAFAFA"/>
<path d="M9.07996 66.8501L10.9265 67.924V68.2671L9.07996 67.2007V66.8501Z" fill="#E0E0E0"/>
<path d="M8.91943 70.23L9.0799 70.1387L10.9265 71.2051V71.3903L8.91943 70.23Z" fill="#37474F"/>
<path d="M10.9265 69.7463L8.91943 68.5885V68.4009L10.9265 69.5612V69.7463Z" fill="#455A64"/>
<path d="M16.9428 71.3902L14.9358 70.2324V73.7059L16.9428 74.8637V71.3902Z" fill="#455A64"/>
<path d="M15.0961 73.612V70.3237L16.9427 71.3902V74.6785L15.0961 73.612Z" fill="#FAFAFA"/>
<path d="M15.0961 70.3237L16.9427 71.3902V71.7334L15.0961 70.6743V70.3237Z" fill="#E0E0E0"/>
<path d="M14.9358 73.7056L15.0963 73.6118L16.9428 74.6783V74.8634L14.9358 73.7056Z" fill="#37474F"/>
<path d="M16.9428 73.1701L14.9358 72.0196V71.832L16.9428 72.9824V73.1701Z" fill="#455A64"/>
<path d="M10.9265 74.8639L8.91943 73.7061V77.1795L10.9265 78.3373V74.8639Z" fill="#455A64"/>
<path d="M9.07996 77.0856V73.7998L10.9265 74.8638V78.1521L9.07996 77.0856Z" fill="#FAFAFA"/>
<path d="M9.07996 73.7998L10.9265 74.8712V75.2168L9.07996 74.1504V73.7998Z" fill="#E0E0E0"/>
<path d="M8.91943 77.1793L9.0799 77.0854L10.9265 78.1519V78.3371L8.91943 77.1793Z" fill="#37474F"/>
<path d="M10.9265 76.6955L8.91943 75.5352V75.3501L10.9265 76.5079V76.6955Z" fill="#455A64"/>
<path d="M16.9428 78.337L14.9358 77.1792V80.6526L16.9428 81.8105V78.337Z" fill="#455A64"/>
<path d="M15.0961 80.5617V77.2734L16.9427 78.3374V81.6257L15.0961 80.5617Z" fill="#FAFAFA"/>
<path d="M15.0961 77.2734L16.9427 78.3374V78.6806L15.0961 77.624V77.2734Z" fill="#E0E0E0"/>
<path d="M14.9358 80.6529L15.0963 80.5615L16.9428 81.6255V81.8107L14.9358 80.6529Z" fill="#37474F"/>
<path d="M16.9428 80.1173L14.9358 78.9669V78.7817L16.9428 79.9297V80.1173Z" fill="#455A64"/>
<path d="M38.0008 75.4439L18.9474 86.4419V70.2324L38.0008 59.2319V75.4439Z" fill="#FAFAFA"/>
<path d="M27.304 81.0329V75.2414L30.3108 73.5059V79.2949L27.304 81.0329Z" fill="#37474F"/>
<path d="M30.217 79.2237V73.5605L27.304 75.2417V80.9049L30.217 79.2237Z" fill="#455A64"/>
<path d="M30.3107 73.5059L30.2169 73.5602V79.2234L30.3107 79.2949V73.5059Z" fill="#263238"/>
<path d="M31.4833 72.0962L35.996 69.4917V74.2834L31.4833 76.8904V72.0962Z" fill="#263238"/>
<path d="M35.7171 74.1232V69.6523L31.4833 72.0963V76.5696L35.7171 74.1232Z" fill="#E6E6E6"/>
<path d="M35.7171 69.6523V70.6941L31.4833 73.1406V72.0963L35.7171 69.6523Z" fill="#E0E0E0"/>
<path d="M35.996 74.2835L35.7171 74.123L31.4833 76.5695V76.8905L35.996 74.2835Z" fill="#37474F"/>
<path d="M35.996 71.889L35.7171 71.7261L31.4833 74.1726V74.4935L35.996 71.889Z" fill="#37474F"/>
<path d="M33.8334 75.533L33.5544 75.6934V70.8992L33.8334 70.7388V75.533Z" fill="#37474F"/>
<path d="M20.9543 78.1743L25.4647 75.5698V80.364L20.9543 82.9685V78.1743Z" fill="#263238"/>
<path d="M25.1882 80.2037V75.7305L20.9543 78.1745V82.6478L25.1882 80.2037Z" fill="#E6E6E6"/>
<path d="M25.1882 75.7305V76.7723L20.9543 79.2187V78.1745L25.1882 75.7305Z" fill="#E0E0E0"/>
<path d="M25.4647 80.3641L25.1882 80.2036L20.9543 82.6476V82.9685L25.4647 80.3641Z" fill="#37474F"/>
<path d="M25.4647 77.9666L25.1882 77.8062L20.9543 80.2526V80.5711L25.4647 77.9666Z" fill="#37474F"/>
<path d="M23.3021 81.6131L23.0256 81.7735V76.9793L23.3021 76.8188V81.6131Z" fill="#37474F"/>
<path d="M26.4572 66.8974L30.9699 64.293V69.0872L26.4572 71.6916V66.8974Z" fill="#263238"/>
<path d="M30.6934 68.9264V64.4531L26.4572 66.8971V71.3704L30.6934 68.9264Z" fill="#E6E6E6"/>
<path d="M30.6934 64.4531V64.9123L26.4572 67.3563V66.8971L30.6934 64.4531Z" fill="#E0E0E0"/>
<path d="M30.9699 69.0872L30.6934 68.9268L26.4572 71.3708V71.6917L30.9699 69.0872Z" fill="#37474F"/>
<path d="M30.9699 66.6898L30.6934 66.5293L26.4572 68.9758V69.2942L30.9699 66.6898Z" fill="#37474F"/>
<path d="M28.8073 70.3362L28.5308 70.4967V65.7025L28.8073 65.542V70.3362Z" fill="#37474F"/>
<path d="M21.9565 71.1262L23.8426 70.0449V72.8222L21.9565 73.9035V71.1262Z" fill="#455A64"/>
<path d="M23.6822 72.7308V70.1362L21.9565 71.1262V73.7183L23.6822 72.7308Z" fill="#E0E0E0"/>
<path d="M23.8426 72.8223L23.6822 72.731L21.9565 73.7184V73.9036L23.8426 72.8223Z" fill="#37474F"/>
<path d="M21.9565 72.5135L23.8426 71.4322V71.2471L21.9565 72.3284V72.5135Z" fill="#455A64"/>
<path d="M33.1077 64.6804L34.9913 63.5991V66.3789L33.1077 67.4602V64.6804Z" fill="#455A64"/>
<path d="M34.8308 66.285V63.6929L33.1077 64.6803V67.2725L34.8308 66.285Z" fill="#E0E0E0"/>
<path d="M34.9913 66.379L34.8308 66.2852L33.1077 67.2726V67.4602L34.9913 66.379Z" fill="#37474F"/>
<path d="M33.1077 66.0702L34.9913 64.9889V64.8013L33.1077 65.8826V66.0702Z" fill="#455A64"/>
<path d="M11.9287 59.9254L18.4238 72.3849L39.0029 60.5055L32.525 48.0337L11.9287 59.9254Z" fill="#455A64"/>
<path d="M11.9287 59.2318L18.4238 71.6913L39.0029 59.8095L32.525 47.3401L11.9287 59.2318Z" fill="#455A64"/>
<path d="M11.9287 59.2319V59.9256L18.4238 72.3851V71.6914L11.9287 59.2319Z" fill="#263238"/>
<path d="M18.4238 71.6914L39.0029 59.8096V60.5057L18.4238 72.3851V71.6914Z" fill="#37474F"/>
<path d="M5.9126 64.5594L11.9288 59.9256V59.2319L5.9126 63.8632V64.5594Z" fill="#263238"/>
<path d="M11.9288 59.9258L5.9126 64.5595L6.91489 63.9423L11.9288 60.0838L11.9881 60.0393L11.9288 59.9258Z" fill="black"/>
<path d="M23.5588 69.4201L33.5867 63.631L28.5728 61.8931L23.5588 69.4201Z" fill="#FAFAFA"/>
<path d="M23.5587 68.7242L20.5519 56.5659L28.5727 61.1997L23.5587 68.7242Z" fill="#263238"/>
<path d="M28.5728 61.8934V61.1997L23.5588 68.7243V69.4205L28.5728 61.8934Z" fill="#37474F"/>
<path d="M33.5865 63.6314V62.9352L28.5726 61.1997V61.8934L33.5865 63.6314Z" fill="#263238"/>
<path d="M33.5866 62.9351L20.5519 56.5659L28.5727 61.1997L33.5866 62.9351Z" fill="#37474F"/>
<path d="M18.9474 85.8643L22.959 88.1799L42.0124 77.1794L38.0008 74.8638L18.9474 85.8643Z" fill="#E6E6E6"/>
<path d="M18.9474 85.8643V86.4419L22.959 88.76V88.1799L18.9474 85.8643Z" fill="#F0F0F0"/>
<path d="M42.0122 77.1792V77.7593L22.9589 88.7598V88.1797L42.0122 77.1792Z" fill="#FAFAFA"/>
<path d="M23.2355 78.7075V87.3677C23.2332 87.3922 23.2245 87.4156 23.2102 87.4355C23.1958 87.4555 23.1765 87.4713 23.154 87.4813C23.0935 87.5117 23.0267 87.5275 22.959 87.5275C22.8913 87.5275 22.8245 87.5117 22.764 87.4813C22.7415 87.4713 22.7221 87.4555 22.7078 87.4355C22.6935 87.4156 22.6848 87.3922 22.6825 87.3677V78.7075H23.2355Z" fill="#37474F"/>
<path d="M41.01 68.4502V77.1128C41.0076 77.1369 40.9987 77.16 40.9844 77.1795C40.9701 77.199 40.9508 77.2144 40.9286 77.2239C40.868 77.2543 40.8013 77.2702 40.7335 77.2702C40.6658 77.2702 40.599 77.2543 40.5385 77.2239C40.5162 77.2144 40.497 77.199 40.4826 77.1795C40.4683 77.16 40.4595 77.1369 40.457 77.1128V68.4502H41.01Z" fill="#37474F"/>
<path d="M18.9474 77.1792L22.959 79.4948L42.0124 68.4943L38.0008 66.1787L18.9474 77.1792Z" fill="#455A64"/>
<path d="M18.9474 77.1792V77.7593L22.959 80.075V79.4948L18.9474 77.1792Z" fill="#37474F"/>
<path d="M42.0122 68.4946V69.0748L22.9589 80.0753V79.4951L42.0122 68.4946Z" fill="#263238"/>
<path d="M59.6607 65.6361L58.8998 67.1353L59.0231 67.1978L59.7839 65.6987L59.6607 65.6361Z" fill="#455A64"/>
<path d="M58.2549 65.5171L58.1373 65.5898L58.8793 66.7884L58.9969 66.7156L58.2549 65.5171Z" fill="#455A64"/>
<path d="M59.0782 65.3818V68.996C59.0772 69.0062 59.0735 69.016 59.0674 69.0242C59.0613 69.0325 59.0531 69.0389 59.0437 69.0429C59.0186 69.0563 58.9906 69.0633 58.9622 69.0633C58.9338 69.0633 58.9058 69.0563 58.8807 69.0429C58.8716 69.0388 58.8637 69.0323 58.8581 69.024C58.8524 69.0157 58.8491 69.006 58.8486 68.996V65.3818H59.0782Z" fill="#455A64"/>
<path d="M61.8236 64.2583C61.8236 64.5903 61.7252 64.9149 61.5407 65.1909C61.3562 65.467 61.0941 65.6822 60.7873 65.8092C60.4806 65.9363 60.143 65.9695 59.8174 65.9048C59.4918 65.84 59.1926 65.6801 58.9579 65.4453C58.7231 65.2106 58.5632 64.9114 58.4984 64.5858C58.4337 64.2602 58.4669 63.9226 58.594 63.6159C58.721 63.3091 58.9362 63.047 59.2123 62.8625C59.4883 62.678 59.8129 62.5796 60.1449 62.5796C60.5901 62.5796 61.0171 62.7565 61.3319 63.0713C61.6467 63.3861 61.8236 63.8131 61.8236 64.2583Z" fill="#BA68C8"/>
<path opacity="0.2" d="M60.6583 63.8288C60.8755 63.1474 61.1051 62.8808 60.9595 62.7969C60.6815 62.6391 60.3642 62.564 60.045 62.5803C59.7258 62.5967 59.4179 62.7038 59.1575 62.8892C58.897 63.0745 58.695 63.3303 58.575 63.6266C58.4549 63.9228 58.422 64.2472 58.48 64.5615C58.538 64.8759 58.6846 65.1671 58.9024 65.401C59.1203 65.6349 59.4004 65.8017 59.7098 65.8819C60.0192 65.9621 60.3451 65.9522 60.6491 65.8535C60.9532 65.7549 61.2227 65.5714 61.426 65.3248C60.9298 65.4705 60.3768 64.7126 60.6583 63.8288Z" fill="black"/>
<path d="M58.6684 64.7328C58.6684 64.9662 58.5992 65.1943 58.4696 65.3884C58.3399 65.5824 58.1556 65.7337 57.94 65.823C57.7243 65.9123 57.4871 65.9357 57.2582 65.8901C57.0293 65.8446 56.819 65.7322 56.654 65.5672C56.4889 65.4022 56.3766 65.1919 56.331 64.963C56.2855 64.7341 56.3089 64.4968 56.3982 64.2812C56.4875 64.0656 56.6387 63.8813 56.8328 63.7516C57.0269 63.6219 57.255 63.5527 57.4884 63.5527C57.8014 63.5527 58.1015 63.6771 58.3228 63.8984C58.5441 64.1197 58.6684 64.4198 58.6684 64.7328Z" fill="#BA68C8"/>
<path opacity="0.2" d="M57.4886 63.5527C57.2414 63.553 57.0006 63.6307 56.7998 63.7749C56.7677 64.4958 57.38 65.1994 57.2072 65.4363C57.0344 65.6733 56.6147 65.5252 56.4666 65.3253C56.5705 65.5043 56.7198 65.6529 56.8993 65.756C57.0789 65.8592 57.2824 65.9132 57.4894 65.9128C57.6965 65.9124 57.8998 65.8575 58.0789 65.7536C58.2581 65.6498 58.4067 65.5006 58.5099 65.3211C58.6132 65.1417 58.6674 64.9382 58.6671 64.7311C58.6668 64.5241 58.612 64.3207 58.5083 64.1415C58.4045 63.9623 58.2555 63.8136 58.0761 63.7102C57.8966 63.6069 57.6932 63.5526 57.4861 63.5527H57.4886Z" fill="black"/>
<path d="M58.9624 65.626C60.1581 65.626 61.1275 64.6567 61.1275 63.4609C61.1275 62.2652 60.1581 61.2959 58.9624 61.2959C57.7667 61.2959 56.7974 62.2652 56.7974 63.4609C56.7974 64.6567 57.7667 65.626 58.9624 65.626Z" fill="#BA68C8"/>
<path opacity="0.1" d="M61.083 63.9545C61.0012 64.305 60.8334 64.6297 60.5946 64.899C60.3558 65.1684 60.0536 65.3739 59.7154 65.4971C59.3772 65.6203 59.0136 65.6572 58.6575 65.6045C58.3015 65.5518 57.9642 65.4112 57.6761 65.1953C57.3881 64.9795 57.1584 64.6952 57.0079 64.3682C56.8573 64.0413 56.7907 63.6819 56.814 63.3227C56.8373 62.9635 56.9497 62.6158 57.1412 62.311C57.3327 62.0062 57.5972 61.754 57.9107 61.5771C57.7229 61.6832 57.5522 61.8173 57.4046 61.9746C57.297 62.4374 57.3448 62.9228 57.5406 63.3557C57.7364 63.7886 58.0694 64.145 58.488 64.3698C58.9066 64.5945 59.3876 64.6752 59.8567 64.5992C60.3257 64.5233 60.7567 64.2949 61.083 63.9496V63.9545Z" fill="black"/>
<path d="M5.30642 75.3217L4.54553 76.8208L4.66881 76.8834L5.42969 75.3842L5.30642 75.3217Z" fill="#455A64"/>
<path d="M4.21285 75.1484L4.09534 75.2217L4.84244 76.4199L4.95995 76.3466L4.21285 75.1484Z" fill="#455A64"/>
<path d="M4.72022 75.0664V78.6806C4.71923 78.6908 4.7155 78.7005 4.70941 78.7088C4.70333 78.7171 4.69512 78.7235 4.68565 78.7275C4.66059 78.7409 4.63261 78.7479 4.60419 78.7479C4.57577 78.7479 4.54779 78.7409 4.52272 78.7275C4.51326 78.7235 4.50505 78.7171 4.49897 78.7088C4.49288 78.7005 4.48915 78.6908 4.48816 78.6806V75.0664H4.72022Z" fill="#455A64"/>
<path d="M7.45044 73.9434C7.45044 74.2754 7.35199 74.5999 7.16753 74.876C6.98307 75.1521 6.72089 75.3672 6.41415 75.4943C6.1074 75.6213 5.76987 75.6546 5.44423 75.5898C5.11859 75.525 4.81947 75.3652 4.5847 75.1304C4.34993 74.8956 4.19005 74.5965 4.12527 74.2709C4.0605 73.9452 4.09374 73.6077 4.2208 73.3009C4.34786 72.9942 4.56303 72.732 4.83909 72.5476C5.11515 72.3631 5.43971 72.2646 5.77173 72.2646C6.21695 72.2646 6.64394 72.4415 6.95876 72.7563C7.27358 73.0712 7.45044 73.4981 7.45044 73.9434Z" fill="#BA68C8"/>
<path opacity="0.2" d="M6.30012 73.5138C6.5149 72.8324 6.74695 72.5658 6.59883 72.4819C6.37481 72.3553 6.12469 72.2819 5.86779 72.2673C5.61089 72.2528 5.35409 72.2975 5.11722 72.398C4.88035 72.4985 4.66975 72.6521 4.5017 72.847C4.33365 73.0419 4.21265 73.2727 4.14803 73.5218C4.08342 73.7709 4.07692 74.0315 4.12904 74.2834C4.18117 74.5354 4.29052 74.772 4.44866 74.975C4.60679 75.178 4.80947 75.3419 5.04103 75.4541C5.2726 75.5663 5.52686 75.6237 5.78416 75.622C6.03174 75.6219 6.27625 75.5672 6.50027 75.4618C6.72429 75.3564 6.92231 75.2029 7.08023 75.0123C6.56921 75.1555 6.03103 74.3976 6.30012 73.5138Z" fill="black"/>
<path d="M4.30294 74.4173C4.30294 74.6507 4.23374 74.8789 4.10407 75.0729C3.97441 75.267 3.79011 75.4182 3.57449 75.5075C3.35886 75.5969 3.1216 75.6202 2.89269 75.5747C2.66379 75.5292 2.45353 75.4168 2.2885 75.2518C2.12346 75.0867 2.01108 74.8765 1.96555 74.6476C1.92001 74.4186 1.94338 74.1814 2.0327 73.9658C2.12201 73.7501 2.27326 73.5658 2.46731 73.4362C2.66137 73.3065 2.88952 73.2373 3.12291 73.2373C3.43587 73.2373 3.73602 73.3616 3.95732 73.5829C4.17862 73.8042 4.30294 74.1044 4.30294 74.4173Z" fill="#BA68C8"/>
<path opacity="0.2" d="M3.12773 73.2373C2.88018 73.2376 2.63908 73.3162 2.43896 73.462C2.40687 74.1828 3.0191 74.8839 2.84876 75.1209C2.67842 75.3579 2.25628 75.2123 2.10815 75.0123C2.21251 75.191 2.36205 75.3392 2.54176 75.4419C2.72147 75.5446 2.92502 75.5982 3.132 75.5974C3.33898 75.5965 3.5421 75.5413 3.72097 75.4371C3.89985 75.333 4.04818 75.1836 4.15108 75.004C4.25399 74.8244 4.30785 74.6209 4.30726 74.414C4.30667 74.207 4.25164 74.0038 4.14771 73.8248C4.04378 73.6458 3.8946 73.4973 3.71513 73.3942C3.53567 73.2911 3.33224 73.237 3.12526 73.2373H3.12773Z" fill="black"/>
<path d="M4.60401 75.311C5.79973 75.311 6.76906 74.3417 6.76906 73.146C6.76906 71.9503 5.79973 70.981 4.60401 70.981C3.40829 70.981 2.43896 71.9503 2.43896 73.146C2.43896 74.3417 3.40829 75.311 4.60401 75.311Z" fill="#BA68C8"/>
<path opacity="0.1" d="M6.70993 73.6396C6.6284 73.9904 6.46065 74.3153 6.22186 74.5849C5.98307 74.8545 5.6808 75.0603 5.34241 75.1836C5.00402 75.307 4.64021 75.3439 4.28394 75.2912C3.92767 75.2384 3.59018 75.0976 3.30205 74.8815C3.01393 74.6654 2.78426 74.3809 2.63386 74.0536C2.48345 73.7264 2.41706 73.3668 2.4407 73.0074C2.46434 72.648 2.57726 72.3002 2.76924 71.9954C2.96121 71.6907 3.22617 71.4387 3.54012 71.2622C3.35205 71.3691 3.1807 71.503 3.03157 71.6597C2.92395 72.1225 2.97174 72.6078 3.16757 73.0407C3.36339 73.4737 3.69633 73.83 4.11496 74.0548C4.53358 74.2796 5.01458 74.3602 5.48362 74.2843C5.95266 74.2083 6.38363 73.98 6.70993 73.6346V73.6396Z" fill="black"/>
<path d="M50.6156 66.2434L51.0451 65.9965C51.1626 65.3031 51.1792 64.5963 51.0945 63.8981C50.8797 62.5329 49.9515 62.0614 49.6133 62.1972C49.2751 62.333 49.1961 62.7378 49.8058 63.5253C50.3586 64.3219 50.6423 65.2742 50.6156 66.2434Z" fill="#BA68C8"/>
<g opacity="0.2">
<path d="M50.6156 66.2434L51.0451 65.9965C51.1626 65.3031 51.1792 64.5963 51.0945 63.8981C50.8797 62.5329 49.9515 62.0614 49.6133 62.1972C49.2751 62.333 49.1961 62.7378 49.8058 63.5253C50.3586 64.3219 50.6423 65.2742 50.6156 66.2434Z" fill="black"/>
</g>
<path d="M50.7711 65.7029C50.7672 65.7023 50.7634 65.7009 50.7601 65.6988C50.7567 65.6967 50.7538 65.694 50.7515 65.6908C50.7492 65.6876 50.7475 65.6839 50.7467 65.6801C50.7458 65.6762 50.7457 65.6722 50.7464 65.6683C50.9217 64.3895 50.4082 62.9898 49.8305 62.4269C49.8257 62.4205 49.8231 62.4127 49.8231 62.4047C49.8231 62.3967 49.8257 62.3889 49.8305 62.3825C49.8365 62.3767 49.8445 62.3735 49.8527 62.3735C49.861 62.3735 49.869 62.3767 49.875 62.3825C50.4625 62.9577 50.9859 64.3796 50.8057 65.6757C50.8054 65.6798 50.8042 65.6839 50.8023 65.6875C50.8004 65.6912 50.7977 65.6944 50.7944 65.697C50.7912 65.6995 50.7874 65.7014 50.7834 65.7024C50.7794 65.7034 50.7752 65.7036 50.7711 65.7029Z" fill="white"/>
<path d="M49.4307 66.9298C49.3641 66.9669 49.2258 66.8829 49.1715 66.8484C49.08 66.7858 49.0061 66.7008 48.9567 66.6015C48.9015 66.4891 48.8834 66.362 48.9049 66.2386C48.915 66.1734 48.9299 66.1091 48.9493 66.046L49.0037 65.8584C49.0247 65.7982 49.034 65.7345 49.0308 65.6708C48.9944 65.5459 48.9113 65.4398 48.7987 65.3746C48.7321 65.34 48.6749 65.2899 48.6319 65.2284C48.5889 65.1669 48.5614 65.0959 48.5519 65.0215C48.5612 64.9027 48.6088 64.79 48.6877 64.7006C48.7617 64.6068 48.8506 64.5253 48.9172 64.4266C48.9701 64.3554 48.9971 64.2683 48.9938 64.1797C48.9866 64.1266 48.969 64.0754 48.9419 64.0291C48.88 63.9339 48.8255 63.834 48.779 63.7304C48.7554 63.6777 48.7478 63.6192 48.757 63.5622C48.7662 63.5052 48.7919 63.4521 48.8308 63.4095C48.8684 63.3817 48.9111 63.3618 48.9564 63.3507C49.0018 63.3397 49.0489 63.3379 49.095 63.3453C49.1826 63.3557 49.2669 63.3852 49.3419 63.4317C49.5887 63.5675 49.727 63.8563 49.9862 63.9625C50.089 63.9943 50.1937 64.0199 50.2997 64.039C50.3506 64.0507 50.3987 64.0725 50.4411 64.103C50.4835 64.1335 50.5193 64.1722 50.5466 64.2167C50.6404 64.4068 50.4651 64.6414 50.5318 64.8438C50.5984 65.0462 50.7638 65.0907 50.8626 65.2511C50.9017 65.3227 50.9172 65.4047 50.907 65.4856C50.8992 65.6223 50.8657 65.7563 50.8083 65.8806C50.7453 66.0047 50.6727 66.1235 50.591 66.2361C50.591 66.2361 49.4431 66.9224 49.4307 66.9298Z" fill="#BA68C8"/>
<g opacity="0.1">
<path d="M49.4307 66.9298C49.3641 66.9669 49.2258 66.8829 49.1715 66.8484C49.08 66.7858 49.0061 66.7008 48.9567 66.6015C48.9015 66.4891 48.8834 66.362 48.9049 66.2386C48.915 66.1734 48.9299 66.1091 48.9493 66.046L49.0037 65.8584C49.0247 65.7982 49.034 65.7345 49.0308 65.6708C48.9944 65.5459 48.9113 65.4398 48.7987 65.3746C48.7321 65.34 48.6749 65.2899 48.6319 65.2284C48.5889 65.1669 48.5614 65.0959 48.5519 65.0215C48.5612 64.9027 48.6088 64.79 48.6877 64.7006C48.7617 64.6068 48.8506 64.5253 48.9172 64.4266C48.9701 64.3554 48.9971 64.2683 48.9938 64.1797C48.9866 64.1266 48.969 64.0754 48.9419 64.0291C48.88 63.9339 48.8255 63.834 48.779 63.7304C48.7554 63.6777 48.7478 63.6192 48.757 63.5622C48.7662 63.5052 48.7919 63.4521 48.8308 63.4095C48.8684 63.3817 48.9111 63.3618 48.9564 63.3507C49.0018 63.3397 49.0489 63.3379 49.095 63.3453C49.1826 63.3557 49.2669 63.3852 49.3419 63.4317C49.5887 63.5675 49.727 63.8563 49.9862 63.9625C50.089 63.9943 50.1937 64.0199 50.2997 64.039C50.3506 64.0507 50.3987 64.0725 50.4411 64.103C50.4835 64.1335 50.5193 64.1722 50.5466 64.2167C50.6404 64.4068 50.4651 64.6414 50.5318 64.8438C50.5984 65.0462 50.7638 65.0907 50.8626 65.2511C50.9017 65.3227 50.9172 65.4047 50.907 65.4856C50.8992 65.6223 50.8657 65.7563 50.8083 65.8806C50.7453 66.0047 50.6727 66.1235 50.591 66.2361C50.591 66.2361 49.4431 66.9224 49.4307 66.9298Z" fill="black"/>
</g>
<path d="M50.1243 66.5594C50.1202 66.5594 50.1162 66.5586 50.1124 66.5569C50.1086 66.5553 50.1053 66.5529 50.1025 66.5499C50.0997 66.5468 50.0976 66.5433 50.0962 66.5394C50.0949 66.5355 50.0944 66.5314 50.0947 66.5273C50.1441 65.3176 49.5738 63.9845 49.1615 63.5945C49.1588 63.5917 49.1566 63.5885 49.1551 63.5849C49.1536 63.5813 49.1528 63.5774 49.1528 63.5735C49.1528 63.5696 49.1536 63.5657 49.1551 63.5621C49.1566 63.5585 49.1588 63.5553 49.1615 63.5525C49.1678 63.5473 49.1756 63.5444 49.1838 63.5444C49.1919 63.5444 49.1998 63.5473 49.206 63.5525C49.6281 63.95 50.2083 65.3053 50.1589 66.5322C50.1577 66.5403 50.1534 66.5476 50.147 66.5527C50.1406 66.5577 50.1325 66.5601 50.1243 66.5594Z" fill="white"/>
<path d="M49.9441 65.1302C49.6578 65.0519 49.3641 65.0039 49.0677 64.987C49.0639 64.987 49.06 64.9862 49.0564 64.9847C49.0528 64.9832 49.0496 64.981 49.0468 64.9783C49.044 64.9755 49.0419 64.9723 49.0404 64.9687C49.0389 64.9651 49.0381 64.9612 49.0381 64.9574C49.0377 64.9531 49.0382 64.9489 49.0397 64.9449C49.0412 64.9409 49.0436 64.9373 49.0467 64.9345C49.0498 64.9316 49.0536 64.9295 49.0577 64.9283C49.0617 64.9271 49.066 64.9269 49.0702 64.9277C49.3716 64.9433 49.6704 64.9913 49.9614 65.0709C49.9696 65.0732 49.9765 65.0787 49.9807 65.0861C49.9849 65.0935 49.9859 65.1022 49.9836 65.1104C49.9808 65.1181 49.9752 65.1245 49.9678 65.1282C49.9605 65.1318 49.952 65.1325 49.9441 65.1302Z" fill="white"/>
<path d="M59.1401 40.0007V38.8429L85.2096 23.7913L106.272 35.9496V37.1074L80.1981 52.159L59.1401 40.0007Z" fill="#BA68C8"/>
<path d="M59.1401 38.8429L80.1981 51.0012L106.272 35.9496L85.2096 23.7913L59.1401 38.8429Z" fill="#BA68C8"/>
<path opacity="0.15" d="M59.1401 38.8433L80.1981 51.0016V52.1594L59.1401 40.0011V38.8433Z" fill="black"/>
<path opacity="0.1" d="M80.198 51.0013L106.272 35.9497V37.1075L80.198 52.1592V51.0013Z" fill="black"/>
<path d="M77.1886 29.5804L71.1724 18.0022L65.1562 22.6335L65.1537 38.838L77.1886 45.7849V29.5804Z" fill="#EBEBEB"/>
<path d="M69.1653 27.265L67.1608 26.1072V29.5806L69.1653 30.7385V27.265Z" fill="#455A64"/>
<path d="M67.3213 29.4865V26.1982L69.1654 27.2647V30.553L67.3213 29.4865Z" fill="#FAFAFA"/>
<path d="M67.3213 26.1982L69.1654 27.2721V27.6177L67.3213 26.5513V26.1982Z" fill="#E0E0E0"/>
<path d="M67.1608 29.5804L67.3212 29.4866L69.1653 30.5531V30.7382L67.1608 29.5804Z" fill="#37474F"/>
<path d="M69.1653 29.0964L67.1608 27.9362V27.7485L69.1653 28.9088V29.0964Z" fill="#455A64"/>
<path d="M75.1842 30.7384L73.1771 29.5806V33.054L75.1842 34.2118V30.7384Z" fill="#455A64"/>
<path d="M73.3374 32.9624V29.6741L75.184 30.7381V34.0264L73.3374 32.9624Z" fill="#FAFAFA"/>
<path d="M73.3374 29.6741L75.184 30.7381V31.0812L73.3374 30.0246V29.6741Z" fill="#E0E0E0"/>
<path d="M73.1771 33.054L73.3376 32.9626L75.1842 34.0267V34.2118L73.1771 33.054Z" fill="#37474F"/>
<path d="M75.1842 32.5185L73.1771 31.368V31.1804L75.1842 32.3308V32.5185Z" fill="#455A64"/>
<path d="M69.1653 34.214L67.1608 33.0537V36.5272L69.1653 37.685V34.214Z" fill="#455A64"/>
<path d="M67.3213 36.4338V33.1479L69.1654 34.2144V37.5003L67.3213 36.4338Z" fill="#FAFAFA"/>
<path d="M67.3213 33.1479L69.1654 34.2218V34.565L67.3213 33.4985V33.1479Z" fill="#E0E0E0"/>
<path d="M67.1608 36.5274L67.3212 36.4336L69.1653 37.5001V37.6852L67.1608 36.5274Z" fill="#37474F"/>
<path d="M69.1653 36.0437L67.1608 34.8834V34.6982L69.1653 35.8561V36.0437Z" fill="#455A64"/>
<path d="M75.1842 37.6852L73.1771 36.5273V40.0008L75.1842 41.1586V37.6852Z" fill="#455A64"/>
<path d="M73.3374 39.9096V36.6213L75.184 37.6853V40.9736L73.3374 39.9096Z" fill="#FAFAFA"/>
<path d="M73.3374 36.6213L75.184 37.6853V38.031L73.3374 36.9719V36.6213Z" fill="#E0E0E0"/>
<path d="M73.1771 40.0008L73.3376 39.9094L75.1842 40.9734V41.1586L73.1771 40.0008Z" fill="#37474F"/>
<path d="M75.1842 39.465L73.1771 38.3145V38.1294L75.1842 39.2798V39.465Z" fill="#455A64"/>
<path d="M96.242 34.7846L77.1886 45.7851V29.5806L96.242 18.5801V34.7846Z" fill="#FAFAFA"/>
<path d="M77.1886 32.5183L96.242 21.4759V18.5801L77.1886 29.5806V32.5183Z" fill="#F0F0F0"/>
<path d="M79.6945 38.2185L84.2072 35.6116V39.4183L79.6945 42.0228V38.2185Z" fill="#263238"/>
<path d="M83.9307 39.2578V35.772L79.6945 38.2184V41.7018L83.9307 39.2578Z" fill="#E6E6E6"/>
<path d="M83.9307 35.772V36.599L79.6945 39.043V38.2184L83.9307 35.772Z" fill="#E0E0E0"/>
<path d="M84.2072 39.4183L83.9307 39.2578L79.6945 41.7018V42.0227L84.2072 39.4183Z" fill="#37474F"/>
<path d="M84.2072 37.515L83.9307 37.3545L79.6945 39.801V40.1219L84.2072 37.515Z" fill="#37474F"/>
<path d="M82.0447 40.6676L81.7682 40.828V37.0213L82.0447 36.8608V40.6676Z" fill="#37474F"/>
<path d="M79.6945 32.417L84.2072 29.8125V33.6168L79.6945 36.2237V32.417Z" fill="#263238"/>
<path d="M83.9307 33.4562V29.9729L79.6945 32.4169V35.9027L83.9307 33.4562Z" fill="#E6E6E6"/>
<path d="M83.9307 29.9729V30.7974L79.6945 33.2439V32.4169L83.9307 29.9729Z" fill="#E0E0E0"/>
<path d="M84.2072 33.6165L83.9307 33.4561L79.6945 35.9025V36.2235L84.2072 33.6165Z" fill="#37474F"/>
<path d="M84.2072 31.7161L83.9307 31.5557L79.6945 33.9997V34.3206L84.2072 31.7161Z" fill="#37474F"/>
<path d="M82.0447 34.8658L81.7682 35.0262V31.2195L82.0447 31.0615V34.8658Z" fill="#37474F"/>
<path d="M70.1702 19.2735L76.6653 31.7355L97.2443 19.8537L90.7665 7.38184L70.1702 19.2735Z" fill="#455A64"/>
<path d="M70.1702 18.5799L76.6653 31.0419L97.2443 19.1601L90.7665 6.68823L70.1702 18.5799Z" fill="#455A64"/>
<path d="M70.1702 18.5801V19.2738L76.6653 31.7357V31.042L70.1702 18.5801Z" fill="#263238"/>
<path d="M76.6653 31.042L97.2443 19.1602V19.8539L76.6653 31.7357V31.042Z" fill="#37474F"/>
<path d="M64.1514 23.9075L70.17 19.2738V18.5801L64.1514 23.2113V23.9075Z" fill="#263238"/>
<path d="M70.17 19.2737L64.1514 23.9074L65.1537 23.2902L70.17 19.4317L70.2268 19.3872L70.17 19.2737Z" fill="black"/>
<path d="M87.2164 39.996L90.2258 41.7315V30.8569L87.2164 29.1189V39.996Z" fill="#E0E0E0"/>
<path d="M90.2258 41.7315L100.254 35.9424V24.7222L90.2258 30.5113V41.7315Z" fill="#FAFAFA"/>
<path d="M90.2258 30.8718L100.254 25.1889L95.2397 23.4534L90.2258 30.8718Z" fill="#FAFAFA"/>
<path d="M95.2398 23.4532V22.7571L89.8358 30.7556V31.4469L95.2398 23.4532Z" fill="#263238"/>
<path d="M95.2397 22.7572L92.6179 21.2439L87.2164 29.2425L89.8357 30.7558L95.2397 22.7572Z" fill="#37474F"/>
<path d="M89.8357 30.7555L87.2164 29.2422V29.9359L89.8357 31.4467V30.7555Z" fill="#263238"/>
<path d="M101.256 25.5368V24.8407L95.2397 22.7571V23.4532L101.256 25.5368Z" fill="#37474F"/>
<path d="M101.256 24.8408L96.879 22.7473L92.618 21.2439L95.2398 22.7572L101.256 24.8408Z" fill="#37474F"/>
<path d="M101.256 24.8408L96.879 22.7473L92.618 21.2439L95.2398 22.7572L101.256 24.8408Z" fill="#263238"/>
<path d="M91.8724 40.7812V34.3947L94.8818 32.6592V39.0432L91.8724 40.7812Z" fill="#37474F"/>
<path d="M94.7855 38.9715V32.7134L91.8724 34.3946V40.6552L94.7855 38.9715Z" fill="#455A64"/>
<path d="M94.8819 32.6592L94.7856 32.7135V38.9716L94.8819 39.0432V32.6592Z" fill="#263238"/>
<path d="M97.0074 32.0295L98.8911 30.9482V33.728L97.0074 34.8093V32.0295Z" fill="#455A64"/>
<path d="M98.7306 33.6341V31.042L97.0074 32.0295V34.6241L98.7306 33.6341Z" fill="#E0E0E0"/>
<path d="M98.8911 33.7278L98.7306 33.634L97.0074 34.624V34.8091L98.8911 33.7278Z" fill="#37474F"/>
<path d="M97.0074 33.4193L98.8911 32.338V32.1528L97.0074 33.2341V33.4193Z" fill="#455A64"/>
<path d="M92.9834 28.2351L97.4962 25.6306V29.4349L92.9834 32.0393V28.2351Z" fill="#263238"/>
<path d="M97.2172 29.2744V25.7886L92.9834 28.2351V31.7208L97.2172 29.2744Z" fill="#E6E6E6"/>
<path d="M97.2172 25.7886V26.6156L92.9834 29.0621V28.2351L97.2172 25.7886Z" fill="#E0E0E0"/>
<path d="M97.4962 29.4349L97.2172 29.2744L92.9834 31.7209V32.0394L97.4962 29.4349Z" fill="#37474F"/>
<path d="M97.4962 27.5316L97.2172 27.3711L92.9834 29.8176V30.1385L97.4962 27.5316Z" fill="#37474F"/>
<path d="M95.3335 30.6839L95.0546 30.8444V27.0377L95.3335 26.8772V30.6839Z" fill="#37474F"/>
<path d="M91.865 40.776L94.8743 39.0405L97.896 40.776L94.8743 42.5214L91.865 40.776Z" fill="#F0F0F0"/>
<path d="M75.7196 45.5432L75.2925 45.2963C75.175 44.6029 75.1575 43.8963 75.2407 43.1979C75.4555 41.8327 76.3837 41.3612 76.7219 41.497C77.0601 41.6328 77.1391 42.0376 76.5293 42.8251C75.9766 43.6217 75.6929 44.574 75.7196 45.5432Z" fill="#BA68C8"/>
<g opacity="0.2">
<path d="M75.7196 45.5432L75.2925 45.2963C75.175 44.6029 75.1575 43.8963 75.2407 43.1979C75.4555 41.8327 76.3837 41.3612 76.7219 41.497C77.0601 41.6328 77.1391 42.0376 76.5293 42.8251C75.9766 43.6217 75.6929 44.574 75.7196 45.5432Z" fill="black"/>
</g>
<path d="M75.5642 45.0027C75.5718 45.0009 75.5785 44.9964 75.5831 44.9901C75.5876 44.9837 75.5897 44.9759 75.5889 44.9681C75.4136 43.6893 75.9271 42.2896 76.5048 41.7267C76.5096 41.7203 76.5122 41.7125 76.5122 41.7045C76.5122 41.6965 76.5096 41.6887 76.5048 41.6823C76.4988 41.6765 76.4908 41.6733 76.4825 41.6733C76.4743 41.6733 76.4663 41.6765 76.4603 41.6823C75.8728 42.2575 75.3494 43.6794 75.5296 44.9755C75.5309 44.9836 75.5351 44.9909 75.5415 44.9959C75.548 45.001 75.5561 45.0034 75.5642 45.0027Z" fill="white"/>
<path d="M76.9045 46.2295C76.9712 46.2666 77.1094 46.1826 77.1637 46.1456C77.256 46.0839 77.3301 45.9986 77.3785 45.8987C77.4333 45.7862 77.4523 45.6595 77.4328 45.5358C77.421 45.4708 77.4053 45.4065 77.3859 45.3433L77.3316 45.1556C77.3105 45.1099 77.2992 45.0603 77.2983 45.0099C77.2974 44.9595 77.307 44.9095 77.3266 44.8631C77.3461 44.8167 77.375 44.7748 77.4116 44.7401C77.4482 44.7055 77.4916 44.6789 77.539 44.6619C77.6025 44.6252 77.6565 44.5741 77.6968 44.5128C77.737 44.4516 77.7625 44.3817 77.771 44.3089C77.7623 44.1899 77.7145 44.0771 77.6353 43.988C77.5612 43.8941 77.4723 43.8102 77.4057 43.7139C77.3529 43.6427 77.3259 43.5557 77.3291 43.4671C77.3363 43.4139 77.3539 43.3627 77.381 43.3165C77.4434 43.2207 77.4979 43.12 77.5439 43.0153C77.5673 42.9629 77.5748 42.9049 77.5656 42.8483C77.5564 42.7917 77.5309 42.7391 77.4921 42.6968C77.4545 42.6691 77.4118 42.6491 77.3665 42.6381C77.3211 42.6271 77.274 42.6252 77.2279 42.6326C77.1403 42.6431 77.0561 42.6726 76.9811 42.719C76.7342 42.8548 76.5984 43.1437 76.3367 43.2498C76.238 43.2893 76.1269 43.2967 76.0232 43.3263C75.9721 43.3375 75.9238 43.3591 75.8814 43.3896C75.8389 43.4202 75.8031 43.4592 75.7763 43.5041C75.6825 43.6942 75.8578 43.9287 75.7911 44.1287C75.7245 44.3286 75.5591 44.3755 75.4603 44.5385C75.4207 44.6098 75.4052 44.6921 75.4159 44.773C75.4238 44.9097 75.4572 45.0437 75.5147 45.168C75.5776 45.292 75.6502 45.4109 75.7319 45.5235C75.7319 45.5235 76.8947 46.2221 76.9045 46.2295Z" fill="#BA68C8"/>
<g opacity="0.1">
<path d="M76.9045 46.2295C76.9712 46.2666 77.1094 46.1826 77.1637 46.1456C77.256 46.0839 77.3301 45.9986 77.3785 45.8987C77.4333 45.7862 77.4523 45.6595 77.4328 45.5358C77.421 45.4708 77.4053 45.4065 77.3859 45.3433L77.3316 45.1556C77.3105 45.1099 77.2992 45.0603 77.2983 45.0099C77.2974 44.9595 77.307 44.9095 77.3266 44.8631C77.3461 44.8167 77.375 44.7748 77.4116 44.7401C77.4482 44.7055 77.4916 44.6789 77.539 44.6619C77.6025 44.6252 77.6565 44.5741 77.6968 44.5128C77.737 44.4516 77.7625 44.3817 77.771 44.3089C77.7623 44.1899 77.7145 44.0771 77.6353 43.988C77.5612 43.8941 77.4723 43.8102 77.4057 43.7139C77.3529 43.6427 77.3259 43.5557 77.3291 43.4671C77.3363 43.4139 77.3539 43.3627 77.381 43.3165C77.4434 43.2207 77.4979 43.12 77.5439 43.0153C77.5673 42.9629 77.5748 42.9049 77.5656 42.8483C77.5564 42.7917 77.5309 42.7391 77.4921 42.6968C77.4545 42.6691 77.4118 42.6491 77.3665 42.6381C77.3211 42.6271 77.274 42.6252 77.2279 42.6326C77.1403 42.6431 77.0561 42.6726 76.9811 42.719C76.7342 42.8548 76.5984 43.1437 76.3367 43.2498C76.238 43.2893 76.1269 43.2967 76.0232 43.3263C75.9721 43.3375 75.9238 43.3591 75.8814 43.3896C75.8389 43.4202 75.8031 43.4592 75.7763 43.5041C75.6825 43.6942 75.8578 43.9287 75.7911 44.1287C75.7245 44.3286 75.5591 44.3755 75.4603 44.5385C75.4207 44.6098 75.4052 44.6921 75.4159 44.773C75.4238 44.9097 75.4572 45.0437 75.5147 45.168C75.5776 45.292 75.6502 45.4109 75.7319 45.5235C75.7319 45.5235 76.8947 46.2221 76.9045 46.2295Z" fill="black"/>
</g>
<path d="M76.2111 45.8588C76.2152 45.8589 76.2193 45.858 76.223 45.8564C76.2268 45.8547 76.2302 45.8523 76.233 45.8493C76.2358 45.8463 76.2379 45.8427 76.2392 45.8388C76.2405 45.835 76.2411 45.8308 76.2407 45.8268C76.1913 44.6171 76.7616 43.2815 77.1739 42.8939C77.1766 42.8912 77.1788 42.8879 77.1803 42.8843C77.1818 42.8807 77.1826 42.8769 77.1826 42.873C77.1826 42.8691 77.1818 42.8652 77.1803 42.8616C77.1788 42.858 77.1766 42.8547 77.1739 42.852C77.1711 42.8492 77.1679 42.847 77.1643 42.8455C77.1607 42.844 77.1568 42.8433 77.1529 42.8433C77.149 42.8433 77.1451 42.844 77.1415 42.8455C77.1379 42.847 77.1347 42.8492 77.1319 42.852C76.7073 43.2494 76.1272 44.6047 76.1765 45.8317C76.1778 45.8398 76.182 45.8471 76.1884 45.8521C76.1949 45.8572 76.203 45.8596 76.2111 45.8588Z" fill="white"/>
<path d="M76.3888 44.4275C76.6748 44.3479 76.9687 44.2998 77.2652 44.2843C77.2693 44.2843 77.2733 44.2835 77.2771 44.2818C77.2809 44.2802 77.2842 44.2778 77.287 44.2748C77.2898 44.2718 77.2919 44.2682 77.2933 44.2643C77.2946 44.2604 77.2951 44.2563 77.2948 44.2522C77.2948 44.2482 77.294 44.2442 77.2924 44.2405C77.2907 44.2369 77.2882 44.2336 77.2852 44.231C77.2821 44.2284 77.2785 44.2266 77.2746 44.2255C77.2707 44.2245 77.2666 44.2243 77.2627 44.2251C76.9612 44.2393 76.6623 44.2873 76.3715 44.3682C76.3675 44.3691 76.3638 44.3708 76.3605 44.3731C76.3572 44.3755 76.3544 44.3785 76.3524 44.382C76.3503 44.3854 76.3489 44.3893 76.3484 44.3933C76.3479 44.3973 76.3482 44.4014 76.3493 44.4053C76.3516 44.4135 76.357 44.4204 76.3644 44.4246C76.3718 44.4287 76.3806 44.4298 76.3888 44.4275Z" fill="white"/>
<path d="M105.144 32.61L104.383 34.1091L104.506 34.1717L105.267 32.6726L105.144 32.61Z" fill="#455A64"/>
<path d="M103.874 32.0766L103.757 32.1499L104.504 33.3481L104.621 33.2748L103.874 32.0766Z" fill="#455A64"/>
<path d="M104.566 32.3552V35.9694C104.565 35.9792 104.562 35.9886 104.556 35.9968C104.55 36.0049 104.543 36.0116 104.534 36.0163C104.509 36.0285 104.481 36.0349 104.453 36.0349C104.425 36.0349 104.397 36.0285 104.371 36.0163C104.362 36.0118 104.354 36.0051 104.348 35.997C104.342 35.9888 104.338 35.9794 104.337 35.9694V32.3552H104.566Z" fill="#455A64"/>
<path d="M107.299 31.2297C107.299 31.5618 107.201 31.8863 107.016 32.1624C106.832 32.4384 106.57 32.6536 106.263 32.7807C105.956 32.9077 105.619 32.941 105.293 32.8762C104.967 32.8114 104.668 32.6515 104.433 32.4168C104.199 32.182 104.039 31.8829 103.974 31.5572C103.909 31.2316 103.943 30.8941 104.07 30.5873C104.197 30.2806 104.412 30.0184 104.688 29.8339C104.964 29.6495 105.288 29.551 105.62 29.551C106.066 29.551 106.493 29.7279 106.808 30.0427C107.122 30.3575 107.299 30.7845 107.299 31.2297Z" fill="#BA68C8"/>
<path opacity="0.2" d="M106.146 30.8002C106.364 30.1188 106.593 29.8522 106.448 29.7683C106.169 29.6112 105.852 29.5367 105.533 29.5536C105.214 29.5705 104.907 29.6781 104.647 29.8637C104.387 30.0493 104.185 30.3052 104.065 30.6014C103.946 30.8977 103.913 31.2218 103.971 31.5359C104.03 31.85 104.176 32.141 104.394 32.3747C104.612 32.6083 104.892 32.775 105.201 32.8551C105.51 32.9352 105.836 32.9254 106.14 32.8268C106.444 32.7282 106.713 32.545 106.917 32.2987C106.418 32.4419 105.867 31.684 106.146 30.8002Z" fill="black"/>
<path d="M104.157 31.7037C104.157 31.9372 104.088 32.1656 103.959 32.36C103.83 32.5543 103.645 32.706 103.43 32.7957C103.214 32.8854 102.977 32.9091 102.748 32.8638C102.519 32.8186 102.308 32.7064 102.143 32.5414C101.978 32.3765 101.865 32.1663 101.819 31.9373C101.774 31.7083 101.797 31.4709 101.886 31.2552C101.975 31.0394 102.127 30.8549 102.321 30.7252C102.515 30.5954 102.743 30.5261 102.977 30.5261C103.289 30.5261 103.589 30.6501 103.81 30.8709C104.031 31.0916 104.156 31.3912 104.157 31.7037Z" fill="#BA68C8"/>
<path opacity="0.2" d="M102.977 30.5261C102.729 30.5255 102.488 30.6033 102.288 30.7483C102.256 31.4692 102.868 32.1703 102.698 32.4073C102.527 32.6443 102.105 32.4986 101.957 32.2986C102.061 32.4777 102.21 32.6263 102.39 32.7294C102.569 32.8325 102.773 32.8866 102.98 32.8862C103.187 32.8858 103.39 32.8309 103.569 32.727C103.749 32.6232 103.897 32.474 104 32.2945C104.104 32.1151 104.158 31.9116 104.158 31.7045C104.157 31.4974 104.103 31.2941 103.999 31.1149C103.895 30.9357 103.746 30.787 103.567 30.6836C103.387 30.5803 103.184 30.526 102.977 30.5261Z" fill="black"/>
<path d="M104.453 32.5974C105.649 32.5974 106.618 31.6281 106.618 30.4324C106.618 29.2367 105.649 28.2673 104.453 28.2673C103.257 28.2673 102.288 29.2367 102.288 30.4324C102.288 31.6281 103.257 32.5974 104.453 32.5974Z" fill="#BA68C8"/>
<path opacity="0.1" d="M106.559 30.9284C106.477 31.2787 106.308 31.603 106.069 31.8719C105.83 32.1409 105.528 32.3461 105.19 32.4689C104.852 32.5917 104.488 32.6283 104.132 32.5754C103.777 32.5225 103.44 32.3817 103.152 32.1658C102.864 31.9498 102.634 31.6656 102.484 31.3387C102.334 31.0119 102.267 30.6527 102.29 30.2937C102.314 29.9346 102.426 29.587 102.618 29.2824C102.809 28.9777 103.073 28.7255 103.386 28.5486C103.199 28.6555 103.029 28.7894 102.88 28.946C102.775 29.4083 102.824 29.8924 103.02 30.324C103.217 30.7556 103.549 31.1108 103.967 31.3351C104.385 31.5594 104.865 31.6403 105.333 31.5655C105.801 31.4907 106.232 31.2643 106.559 30.921V30.9284Z" fill="black"/>
<path d="M62.2255 35.6029L61.4646 37.1021L61.5879 37.1646L62.3488 35.6655L62.2255 35.6029Z" fill="#455A64"/>
<path d="M60.8191 35.4851L60.7015 35.5579L61.4435 36.7564L61.5611 36.6836L60.8191 35.4851Z" fill="#455A64"/>
<path d="M61.6456 35.3477V38.9618C61.6446 38.972 61.6409 38.9818 61.6348 38.99C61.6287 38.9983 61.6205 39.0048 61.6111 39.0087C61.586 39.0221 61.558 39.0291 61.5296 39.0291C61.5012 39.0291 61.4732 39.0221 61.4481 39.0087C61.4387 39.0048 61.4305 38.9983 61.4244 38.99C61.4183 38.9818 61.4146 38.972 61.4136 38.9618V35.3477H61.6456Z" fill="#455A64"/>
<path d="M64.3761 34.2241C64.3761 34.5561 64.2776 34.8807 64.0932 35.1568C63.9087 35.4328 63.6465 35.648 63.3398 35.7751C63.0331 35.9021 62.6955 35.9354 62.3699 35.8706C62.0442 35.8058 61.7451 35.6459 61.5104 35.4112C61.2756 35.1764 61.1157 34.8773 61.0509 34.5516C60.9862 34.226 61.0194 33.8885 61.1465 33.5817C61.2735 33.275 61.4887 33.0128 61.7647 32.8283C62.0408 32.6439 62.3654 32.5454 62.6974 32.5454C62.9179 32.5451 63.1364 32.5883 63.3402 32.6725C63.544 32.7568 63.7292 32.8804 63.8851 33.0364C64.0411 33.1923 64.1647 33.3775 64.249 33.5813C64.3332 33.7851 64.3764 34.0036 64.3761 34.2241Z" fill="#BA68C8"/>
<path opacity="0.2" d="M63.2232 33.7948C63.4405 33.1135 63.6725 32.8468 63.5244 32.7629C63.2466 32.6063 62.9299 32.5322 62.6115 32.5493C62.2931 32.5664 61.9861 32.6739 61.7267 32.8593C61.4672 33.0447 61.266 33.3003 61.1467 33.596C61.0274 33.8918 60.995 34.2154 61.0532 34.5289C61.1113 34.8425 61.2577 35.1329 61.4752 35.3661C61.6926 35.5994 61.9721 35.7658 62.2808 35.8458C62.5895 35.9258 62.9146 35.916 63.2179 35.8177C63.5213 35.7195 63.7903 35.5367 63.9935 35.2908C63.4948 35.4365 62.9443 34.6786 63.2232 33.7948Z" fill="black"/>
<path d="M61.2334 34.6981C61.2334 34.9315 61.1642 35.1596 61.0345 35.3537C60.9048 35.5478 60.7205 35.699 60.5049 35.7883C60.2893 35.8776 60.052 35.901 59.8231 35.8555C59.5942 35.8099 59.384 35.6975 59.2189 35.5325C59.0539 35.3675 58.9415 35.1572 58.896 34.9283C58.8504 34.6994 58.8738 34.4621 58.9631 34.2465C59.0524 34.0309 59.2037 33.8466 59.3977 33.7169C59.5918 33.5873 59.8199 33.5181 60.0533 33.5181C60.3663 33.5181 60.6664 33.6424 60.8877 33.8637C61.109 34.085 61.2334 34.3851 61.2334 34.6981Z" fill="#BA68C8"/>
<path opacity="0.2" d="M60.0535 33.5181C59.8064 33.5187 59.5656 33.5963 59.3647 33.7403C59.3326 34.4611 59.9449 35.1647 59.7745 35.3992C59.6042 35.6337 59.1821 35.4906 59.0339 35.2906C59.1379 35.4697 59.2871 35.6182 59.4667 35.7213C59.6462 35.8245 59.8498 35.8786 60.0568 35.8781C60.2639 35.8777 60.4672 35.8228 60.6463 35.719C60.8254 35.6151 60.9741 35.466 61.0773 35.2865C61.1806 35.107 61.2348 34.9035 61.2345 34.6964C61.2342 34.4894 61.1794 34.286 61.0757 34.1069C60.9719 33.9277 60.8229 33.7789 60.6434 33.6756C60.464 33.5722 60.2606 33.5179 60.0535 33.5181Z" fill="black"/>
<path d="M61.5298 35.5918C62.7255 35.5918 63.6948 34.6225 63.6948 33.4268C63.6948 32.231 62.7255 31.2617 61.5298 31.2617C60.3341 31.2617 59.3647 32.231 59.3647 33.4268C59.3647 34.6225 60.3341 35.5918 61.5298 35.5918Z" fill="#BA68C8"/>
<path opacity="0.1" d="M63.6353 33.9206C63.5538 34.2714 63.3861 34.5963 63.1473 34.8659C62.9085 35.1355 62.6062 35.3413 62.2678 35.4647C61.9294 35.588 61.5656 35.6249 61.2094 35.5722C60.8531 35.5194 60.5156 35.3786 60.2275 35.1625C59.9393 34.9464 59.7097 34.6619 59.5593 34.3346C59.4089 34.0074 59.3425 33.6478 59.3661 33.2884C59.3898 32.929 59.5027 32.5812 59.6947 32.2765C59.8866 31.9717 60.1516 31.7197 60.4655 31.5432C60.2765 31.6486 60.105 31.7827 59.957 31.9407C59.8494 32.4035 59.8972 32.8888 60.093 33.3218C60.2888 33.7547 60.6218 34.111 61.0404 34.3358C61.459 34.5606 61.94 34.6412 62.409 34.5653C62.8781 34.4893 63.309 34.261 63.6353 33.9156V33.9206Z" fill="black"/>
<path d="M7.5863 31.0298V29.8719L33.6557 14.8203L54.7186 26.9762V28.134L28.6443 43.1881L7.5863 31.0298Z" fill="#BA68C8"/>
<path d="M7.5863 29.8719L28.6443 42.0303L54.7186 26.9762L33.6557 14.8203L7.5863 29.8719Z" fill="#BA68C8"/>
<path opacity="0.15" d="M7.5863 29.8718L28.6443 42.0301V43.188L7.5863 31.0296V29.8718Z" fill="black"/>
<path opacity="0.1" d="M28.6443 42.0302L54.7186 26.9761V28.1339L28.6443 43.188V42.0302Z" fill="black"/>
<path d="M29.1453 30.7384L32.6558 32.7652V14.2401L20.6234 7.29077V25.8183L29.1453 30.7384Z" fill="#EBEBEB"/>
<path d="M32.6558 15.9756L20.6234 9.02873V7.29077L32.6558 14.2401V15.9756Z" fill="#E0E0E0"/>
<path d="M25.0349 13.3117L22.6279 11.9219V14.0079L25.0349 15.3978V13.3117Z" fill="#455A64"/>
<path d="M22.7886 13.9141V12.0156L25.0351 13.3117V15.2101L22.7886 13.9141Z" fill="#FAFAFA"/>
<path d="M22.6279 14.0081L22.7884 13.9143L25.0349 15.2104V15.398L22.6279 14.0081Z" fill="#37474F"/>
<path d="M29.6466 15.9756L27.2421 14.5857V16.6693L29.6466 18.0591V15.9756Z" fill="#455A64"/>
<path d="M27.4025 16.5752V14.6768L29.6465 15.9753V17.8737L27.4025 16.5752Z" fill="#FAFAFA"/>
<path d="M27.2421 16.6695L27.4025 16.5757L29.6466 17.8742V18.0594L27.2421 16.6695Z" fill="#37474F"/>
<path d="M31.6537 14.1092L46.6954 16.1088V15.5312L31.6537 13.5291V14.1092Z" fill="#37474F"/>
<path d="M19.6212 6.57959L31.6536 13.529L46.6954 15.5311L34.663 8.57923L19.6212 6.57959Z" fill="#455A64"/>
<path d="M19.6212 6.57959L31.6536 13.529V14.1091L19.6212 7.15726V6.57959Z" fill="#263238"/>
<path d="M32.6559 32.7648L45.6931 25.2402V15.9752L32.6559 14.2397V32.7648Z" fill="#FAFAFA"/>
<path d="M34.6628 31.6074V25.8183L37.6697 24.0803V29.8719L34.6628 31.6074Z" fill="#37474F"/>
<path d="M37.5759 29.8001V24.137L34.6628 25.8181V31.4813L37.5759 29.8001Z" fill="#455A64"/>
<path d="M37.6699 24.0803L37.576 24.1371V29.8003L37.6699 29.8719V24.0803Z" fill="#263238"/>
<path d="M40.6792 22.3447L43.6861 20.6067V24.0801L40.6792 25.8181V22.3447Z" fill="#455A64"/>
<path d="M43.5256 23.9887V20.7004L40.6792 22.3446V25.6329L43.5256 23.9887Z" fill="#E0E0E0"/>
<path d="M43.6861 24.0801L43.5256 23.9888L40.6792 25.6329V25.8181L43.6861 24.0801Z" fill="#37474F"/>
<path d="M42.2641 21.429L42.1036 21.5228V24.9962L42.2641 24.9049V21.429Z" fill="#455A64"/>
<path d="M42.1036 21.5225V24.9959L41.9431 24.9046V21.6138L42.1036 21.5225Z" fill="#37474F"/>
<path d="M38.672 21.1868V16.3086L34.6604 15.7754V23.5024L38.672 21.1868Z" fill="#E0E0E0"/>
<path d="M38.672 21.1868V16.3086L34.6604 15.7754V23.5024L38.672 21.1868Z" fill="#37474F"/>
<path d="M38.4893 16.2839L34.6604 15.7754V23.2901L38.4893 21.0781V16.2839Z" fill="#E0E0E0"/>
<path d="M38.4895 16.2842L38.6722 16.3089V21.187L38.4895 21.0784V16.2842Z" fill="#455A64"/>
<path d="M36.8502 22.2384V16.0667L36.6675 16.042V22.3446L36.8502 22.2384Z" fill="#455A64"/>
<path d="M36.6676 16.042V22.3446L36.4824 22.2384V16.0173L36.6676 16.042Z" fill="#37474F"/>
<path d="M40.6792 20.0294V16.5757L43.6861 16.9756V18.2914L40.6792 20.0294Z" fill="#455A64"/>
<path d="M43.5256 18.2001V16.9559L40.6792 16.5757V19.8442L43.5256 18.2001Z" fill="#E0E0E0"/>
<path d="M42.2641 19.1134L42.1036 19.022V16.7656L42.2641 16.7854V19.1134Z" fill="#37474F"/>
<path d="M42.264 16.7854V19.1134L42.4097 19.022V16.8076L42.264 16.7854Z" fill="#455A64"/>
<path d="M43.6861 18.291L43.5256 18.1997L40.6792 19.8439V20.029L43.6861 18.291Z" fill="#37474F"/>
<path d="M22.1269 34.7918L13.6025 29.8717V22.9224L22.1269 27.8449V34.7918Z" fill="#F0F0F0"/>
<path d="M22.1269 27.8449V29.5804L13.6025 24.6603V22.9224L22.1269 27.8449Z" fill="#E0E0E0"/>
<path d="M17.0118 27.4402L14.6049 26.0503V28.1363L17.0118 29.5237V27.4402Z" fill="#455A64"/>
<path d="M14.7677 28.0425V26.144L17.0117 27.4401V29.3385L14.7677 28.0425Z" fill="#FAFAFA"/>
<path d="M14.7677 26.1514V26.734L17.0117 28.03V27.4499L14.7677 26.1514Z" fill="#E0E0E0"/>
<path d="M14.6049 28.1363L14.7678 28.0425L17.0118 29.3385V29.5237L14.6049 28.1363Z" fill="#37474F"/>
<path d="M21.2751 29.9016L18.8682 28.5117V30.5953L21.2751 31.9852V29.9016Z" fill="#455A64"/>
<path d="M19.0288 30.5012V28.6052L21.2753 29.9013V31.7997L19.0288 30.5012Z" fill="#FAFAFA"/>
<path d="M19.0288 28.6052V29.1854L21.2753 30.4814V29.9013L19.0288 28.6052Z" fill="#E0E0E0"/>
<path d="M18.8682 30.5953L19.0286 30.5015L21.2751 31.8V31.9852L18.8682 30.5953Z" fill="#37474F"/>
<path d="M22.127 34.7921L29.1455 30.7385V20.3181L22.127 27.8452V34.7921Z" fill="#FAFAFA"/>
<path d="M23.1293 34.214V30.1604L28.1432 27.2646V31.3182L23.1293 34.214Z" fill="#455A64"/>
<path d="M28.1431 27.2646L28.0493 27.319V31.2639L28.1431 31.3158V27.2646Z" fill="#263238"/>
<path d="M28.0469 31.2642L23.1293 34.1056V34.2143L28.1432 31.3185L28.0469 31.2642Z" fill="#37474F"/>
<path d="M21.927 28.8867L29.6466 20.6067V20.0291L21.927 28.3066V28.8867Z" fill="#37474F"/>
<path d="M21.9269 28.8867L12.9014 23.6753V23.0977L21.9269 28.3066V28.8867Z" fill="#263238"/>
<path d="M20.6234 14.8179L29.6465 20.0293L21.9269 28.3068L12.9014 23.0979L20.6234 14.8179Z" fill="#455A64"/>
<path d="M37.6697 29.8718L43.6859 33.3453L40.6791 35.0808L34.6628 31.6073L37.6697 29.8718Z" fill="#F0F0F0"/>
<path d="M51.6455 22.986L50.8846 24.4851L51.0079 24.5477L51.7688 23.0485L51.6455 22.986Z" fill="#455A64"/>
<path d="M50.2323 22.8655L50.1147 22.9382L50.8567 24.1368L50.9743 24.064L50.2323 22.8655Z" fill="#455A64"/>
<path d="M51.0625 22.7275V26.3417C51.0625 26.359 51.0625 26.3738 51.0279 26.3886C51.0025 26.4009 50.9747 26.4072 50.9464 26.4072C50.9182 26.4072 50.8904 26.4009 50.865 26.3886C50.856 26.3843 50.8483 26.3777 50.8426 26.3695C50.837 26.3612 50.8336 26.3517 50.8329 26.3417V22.7275H51.0625Z" fill="#455A64"/>
<path d="M53.7928 21.6018C53.7928 21.9339 53.6943 22.2586 53.5098 22.5347C53.3252 22.8108 53.0629 23.026 52.756 23.153C52.4491 23.28 52.1114 23.3131 51.7857 23.2481C51.46 23.1831 51.1609 23.023 50.9262 22.788C50.6916 22.5529 50.5319 22.2536 50.4674 21.9278C50.4029 21.602 50.4365 21.2644 50.5639 20.9577C50.6914 20.651 50.9069 20.389 51.1833 20.2048C51.4597 20.0206 51.7845 19.9226 52.1166 19.9231C52.3369 19.9231 52.5551 19.9665 52.7586 20.0509C52.9622 20.1353 53.1471 20.259 53.3028 20.4149C53.4584 20.5708 53.5819 20.7559 53.666 20.9596C53.7501 21.1632 53.7932 21.3815 53.7928 21.6018Z" fill="#BA68C8"/>
<path opacity="0.2" d="M52.6423 21.1723C52.8571 20.4909 53.0892 20.2243 52.9411 20.1428C52.6904 19.9981 52.4059 19.9223 52.1165 19.9231C51.8337 19.923 51.5554 19.9943 51.3074 20.1305C51.0595 20.2667 50.8501 20.4633 50.6985 20.7021C50.5469 20.9409 50.4581 21.2142 50.4403 21.4965C50.4226 21.7787 50.4764 22.061 50.5969 22.3169C50.7174 22.5728 50.9006 22.7941 51.1295 22.9603C51.3584 23.1264 51.6256 23.2321 51.9062 23.2674C52.1868 23.3027 52.4719 23.2665 52.7348 23.1622C52.9977 23.0579 53.23 22.8889 53.4101 22.6708C52.9139 22.8164 52.3609 22.0561 52.6423 21.1723Z" fill="black"/>
<path d="M50.6501 22.078C50.6501 22.3115 50.5808 22.5397 50.4511 22.7338C50.3213 22.9279 50.1369 23.0792 49.9211 23.1684C49.7053 23.2577 49.4679 23.2809 49.239 23.2352C49.01 23.1894 48.7997 23.0768 48.6348 22.9115C48.4699 22.7462 48.3577 22.5358 48.3124 22.3067C48.2672 22.0776 48.2909 21.8403 48.3806 21.6247C48.4703 21.4091 48.6219 21.225 48.8163 21.0956C49.0107 20.9663 49.2391 20.8975 49.4725 20.898C49.7851 20.8986 50.0846 21.0232 50.3054 21.2444C50.5261 21.4657 50.6501 21.7654 50.6501 22.078Z" fill="#BA68C8"/>
<path opacity="0.2" d="M49.4799 20.898C49.2318 20.897 48.9898 20.9748 48.7887 21.1201C48.7566 21.841 49.3688 22.5421 49.1985 22.7791C49.0282 23.0161 48.606 22.8704 48.4579 22.6705C48.5621 22.8485 48.7112 22.996 48.8904 23.0982C49.0695 23.2005 49.2724 23.2539 49.4786 23.2531C49.6849 23.2523 49.8873 23.1973 50.0657 23.0937C50.244 22.9901 50.392 22.8415 50.4948 22.6627C50.5977 22.4839 50.6518 22.2812 50.6517 22.0749C50.6516 21.8687 50.5973 21.6661 50.4943 21.4874C50.3912 21.3087 50.2431 21.1602 50.0647 21.0567C49.8862 20.9533 49.6837 20.8985 49.4775 20.898H49.4799Z" fill="black"/>
<path d="M50.9464 22.9692C52.1421 22.9692 53.1115 21.9999 53.1115 20.8042C53.1115 19.6085 52.1421 18.6392 50.9464 18.6392C49.7507 18.6392 48.7814 19.6085 48.7814 20.8042C48.7814 21.9999 49.7507 22.9692 50.9464 22.9692Z" fill="#BA68C8"/>
<path opacity="0.1" d="M53.0521 21.3005C52.9694 21.6499 52.801 21.9733 52.5621 22.2414C52.3232 22.5095 52.0213 22.7139 51.6836 22.8361C51.3459 22.9583 50.9831 22.9945 50.6279 22.9414C50.2727 22.8884 49.9364 22.7477 49.6492 22.532C49.362 22.3164 49.133 22.0327 48.983 21.7065C48.8329 21.3802 48.7664 21.0217 48.7895 20.6633C48.8127 20.305 48.9247 19.958 49.1155 19.6538C49.3062 19.3495 49.5698 19.0976 49.8823 18.9207C49.6996 19.0289 49.5333 19.1627 49.3886 19.3181C49.2819 19.7804 49.3301 20.2649 49.526 20.6971C49.7218 21.1292 50.0543 21.485 50.4722 21.7095C50.8901 21.9341 51.3703 22.0149 51.8388 21.9397C52.3072 21.8644 52.7379 21.6372 53.0644 21.2931L53.0521 21.3005Z" fill="black"/>
<path d="M10.8616 26.412L10.1007 27.9111L10.224 27.9737L10.9849 26.4746L10.8616 26.412Z" fill="#455A64"/>
<path d="M9.45068 26.2925L9.33313 26.3652L10.0751 27.5638L10.1926 27.491L9.45068 26.2925Z" fill="#455A64"/>
<path d="M10.2771 26.1587V29.7704C10.2761 29.7806 10.2724 29.7904 10.2663 29.7986C10.2602 29.8069 10.252 29.8133 10.2425 29.8173C10.2174 29.8307 10.1895 29.8377 10.161 29.8377C10.1326 29.8377 10.1046 29.8307 10.0796 29.8173C10.0704 29.8132 10.0626 29.8067 10.0569 29.7984C10.0512 29.7901 10.048 29.7804 10.0475 29.7704V26.1587H10.2771Z" fill="#455A64"/>
<path d="M13.0076 25.0281C13.0076 25.3602 12.9091 25.6849 12.7245 25.961C12.5399 26.2371 12.2776 26.4523 11.9707 26.5792C11.6638 26.7062 11.3262 26.7393 11.0005 26.6744C10.6747 26.6094 10.3756 26.4493 10.141 26.2142C9.90628 25.9792 9.7466 25.6799 9.6821 25.3541C9.61761 25.0283 9.6512 24.6907 9.77864 24.384C9.90608 24.0773 10.1216 23.8152 10.398 23.6311C10.6744 23.4469 10.9992 23.3489 11.3313 23.3494C11.7761 23.35 12.2025 23.5272 12.5168 23.8419C12.831 24.1567 13.0076 24.5833 13.0076 25.0281Z" fill="#BA68C8"/>
<path opacity="0.2" d="M11.8571 24.5988C12.0719 23.9174 12.304 23.6508 12.1559 23.5669C11.8777 23.4098 11.5605 23.3353 11.2415 23.3522C10.9225 23.3691 10.6149 23.4767 10.355 23.6623C10.095 23.8479 9.89332 24.1038 9.77372 24.4C9.65411 24.6962 9.62151 25.0204 9.67973 25.3345C9.73795 25.6486 9.88459 25.9396 10.1024 26.1733C10.3202 26.4069 10.6002 26.5736 10.9095 26.6537C11.2187 26.7338 11.5444 26.7239 11.8482 26.6254C12.1521 26.5268 12.4215 26.3436 12.6249 26.0973C12.1287 26.2405 11.5757 25.4826 11.8571 24.5988Z" fill="black"/>
<path d="M9.86471 25.5023C9.8652 25.7359 9.79634 25.9644 9.66687 26.1588C9.53739 26.3532 9.35312 26.5049 9.13739 26.5945C8.92167 26.6841 8.6842 26.7077 8.45507 26.6622C8.22593 26.6168 8.01544 26.5043 7.85026 26.3392C7.68508 26.174 7.57265 25.9635 7.52719 25.7344C7.48174 25.5052 7.50532 25.2677 7.59494 25.052C7.68456 24.8363 7.83619 24.652 8.03062 24.5226C8.22505 24.3931 8.45354 24.3242 8.68714 24.3247C8.99925 24.3254 9.29839 24.4496 9.51909 24.6703C9.73978 24.891 9.86406 25.1902 9.86471 25.5023Z" fill="#BA68C8"/>
<path opacity="0.2" d="M8.68732 24.3247C8.43921 24.3238 8.19719 24.4016 7.99609 24.5469C7.964 25.2678 8.57623 25.9689 8.40589 26.2059C8.23555 26.4429 7.8134 26.2972 7.66528 26.0972C7.7695 26.2752 7.91863 26.4227 8.09777 26.525C8.27691 26.6272 8.47975 26.6806 8.68601 26.6798C8.89227 26.679 9.09471 26.6241 9.27305 26.5205C9.4514 26.4169 9.5994 26.2682 9.70224 26.0894C9.80509 25.9106 9.85916 25.708 9.85906 25.5017C9.85896 25.2954 9.80468 25.0928 9.70167 24.9141C9.59865 24.7354 9.4505 24.5869 9.27205 24.4835C9.0936 24.3801 8.89111 24.3253 8.68485 24.3247H8.68732Z" fill="black"/>
<path d="M10.1611 26.396C11.3569 26.396 12.3262 25.4267 12.3262 24.231C12.3262 23.0352 11.3569 22.0659 10.1611 22.0659C8.96542 22.0659 7.99609 23.0352 7.99609 24.231C7.99609 25.4267 8.96542 26.396 10.1611 26.396Z" fill="#BA68C8"/>
<path opacity="0.1" d="M12.2668 24.7248C12.1845 25.0745 12.0165 25.3982 11.7777 25.6667C11.539 25.9352 11.2372 26.14 10.8994 26.2626C10.5617 26.3852 10.1988 26.4217 9.84343 26.3688C9.48807 26.316 9.15147 26.1754 8.86405 25.9598C8.57664 25.7443 8.34745 25.4605 8.19721 25.1341C8.04696 24.8078 7.98039 24.4492 8.0035 24.0906C8.02662 23.7321 8.1387 23.385 8.3296 23.0806C8.52051 22.7763 8.78424 22.5243 9.09696 22.3474C8.90922 22.4537 8.7386 22.5877 8.59088 22.7449C8.48199 23.2077 8.52884 23.6935 8.72417 24.127C8.9195 24.5605 9.25239 24.9174 9.67122 25.1424C10.0901 25.3675 10.5714 25.448 11.0407 25.3716C11.51 25.2952 11.941 25.0661 12.2668 24.7198V24.7248Z" fill="black"/>
<path d="M34.2013 32.301L34.5074 32.1257C34.5924 31.6282 34.6048 31.121 34.5444 30.6198C34.3914 29.6324 33.7248 29.304 33.4829 29.4028C33.241 29.5015 33.1842 29.7904 33.6211 30.3532C34.0169 30.9242 34.2201 31.6066 34.2013 32.301Z" fill="#BA68C8"/>
<g opacity="0.2">
<path d="M34.2013 32.301L34.5074 32.1257C34.5924 31.6282 34.6048 31.121 34.5444 30.6198C34.3914 29.6324 33.7248 29.304 33.4829 29.4028C33.241 29.5015 33.1842 29.7904 33.6211 30.3532C34.0169 30.9242 34.2201 31.6066 34.2013 32.301Z" fill="black"/>
</g>
<path d="M34.3122 31.9109C34.3093 31.9106 34.3066 31.9097 34.3041 31.9083C34.3016 31.9068 34.2995 31.9049 34.2978 31.9025C34.2962 31.9002 34.2951 31.8975 34.2946 31.8947C34.2941 31.8919 34.2942 31.889 34.2949 31.8862C34.4208 30.9703 34.048 29.968 33.6382 29.5631C33.6346 29.5591 33.6326 29.5538 33.6326 29.5483C33.6326 29.5429 33.6346 29.5376 33.6382 29.5335C33.6398 29.531 33.6419 29.5289 33.6445 29.5274C33.6471 29.5259 33.6501 29.5251 33.653 29.5251C33.656 29.5251 33.659 29.5259 33.6615 29.5274C33.6641 29.5289 33.6663 29.531 33.6678 29.5335C34.09 29.9433 34.4652 30.9629 34.3369 31.8936C34.3357 31.8991 34.3325 31.9039 34.3279 31.9071C34.3233 31.9103 34.3177 31.9116 34.3122 31.9109Z" fill="white"/>
<path d="M33.3521 32.7898C33.3052 32.8194 33.2039 32.7577 33.1669 32.733C33.1009 32.6886 33.048 32.6272 33.0139 32.5553C32.9762 32.4788 32.9624 32.3928 32.9744 32.3084C32.9824 32.2618 32.9931 32.2156 33.0064 32.1702C33.0213 32.1257 33.0336 32.0813 33.0459 32.0369C33.0609 31.9932 33.0676 31.9472 33.0657 31.9011C33.0392 31.8113 32.9791 31.7353 32.8978 31.6888C32.8532 31.6631 32.815 31.6275 32.7863 31.5846C32.7576 31.5418 32.7392 31.493 32.7324 31.4419C32.738 31.3561 32.7719 31.2745 32.8287 31.2099C32.883 31.1432 32.9447 31.084 32.9916 31.0148C33.0293 30.9652 33.0493 30.9044 33.0484 30.842C33.0424 30.8047 33.0299 30.7688 33.0114 30.7359C32.9662 30.6676 32.9265 30.5958 32.8929 30.5211C32.877 30.4832 32.872 30.4416 32.8785 30.401C32.8851 30.3604 32.9029 30.3225 32.9299 30.2915C32.9567 30.2711 32.9874 30.2565 33.0201 30.2484C33.0528 30.2403 33.0868 30.239 33.12 30.2446C33.1828 30.2528 33.2433 30.2738 33.2978 30.3063C33.473 30.4051 33.5718 30.6124 33.7594 30.6865C33.833 30.7095 33.908 30.7277 33.984 30.7408C34.0221 30.7482 34.0583 30.7634 34.0902 30.7855C34.122 30.8076 34.149 30.8361 34.1692 30.8692C34.2383 31.005 34.11 31.1728 34.1692 31.3185C34.2284 31.4641 34.3346 31.4962 34.4161 31.6098C34.4439 31.6611 34.4551 31.7197 34.4482 31.7777C34.4434 31.8761 34.4191 31.9726 34.3766 32.0616C34.3306 32.1474 34.2786 32.2299 34.221 32.3084L33.3521 32.7898Z" fill="#BA68C8"/>
<g opacity="0.1">
<path d="M33.3521 32.7898C33.3052 32.8194 33.2039 32.7577 33.1669 32.733C33.1009 32.6886 33.048 32.6272 33.0139 32.5553C32.9762 32.4788 32.9624 32.3928 32.9744 32.3084C32.9824 32.2618 32.9931 32.2156 33.0064 32.1702C33.0213 32.1257 33.0336 32.0813 33.0459 32.0369C33.0609 31.9932 33.0676 31.9472 33.0657 31.9011C33.0392 31.8113 32.9791 31.7353 32.8978 31.6888C32.8532 31.6631 32.815 31.6275 32.7863 31.5846C32.7576 31.5418 32.7392 31.493 32.7324 31.4419C32.738 31.3561 32.7719 31.2745 32.8287 31.2099C32.883 31.1432 32.9447 31.084 32.9916 31.0148C33.0293 30.9652 33.0493 30.9044 33.0484 30.842C33.0424 30.8047 33.0299 30.7688 33.0114 30.7359C32.9662 30.6676 32.9265 30.5958 32.8929 30.5211C32.877 30.4832 32.872 30.4416 32.8785 30.401C32.8851 30.3604 32.9029 30.3225 32.9299 30.2915C32.9567 30.2711 32.9874 30.2565 33.0201 30.2484C33.0528 30.2403 33.0868 30.239 33.12 30.2446C33.1828 30.2528 33.2433 30.2738 33.2978 30.3063C33.473 30.4051 33.5718 30.6124 33.7594 30.6865C33.833 30.7095 33.908 30.7277 33.984 30.7408C34.0221 30.7482 34.0583 30.7634 34.0902 30.7855C34.122 30.8076 34.149 30.8361 34.1692 30.8692C34.2383 31.005 34.11 31.1728 34.1692 31.3185C34.2284 31.4641 34.3346 31.4962 34.4161 31.6098C34.4439 31.6611 34.4551 31.7197 34.4482 31.7777C34.4434 31.8761 34.4191 31.9726 34.3766 32.0616C34.3306 32.1474 34.2786 32.2299 34.221 32.3084L33.3521 32.7898Z" fill="black"/>
</g>
<path d="M33.8507 32.5257C33.8479 32.5257 33.8451 32.5251 33.8425 32.524C33.8399 32.5228 33.8376 32.5212 33.8358 32.5191C33.8339 32.517 33.8325 32.5145 33.8316 32.5118C33.8308 32.5091 33.8306 32.5063 33.8309 32.5035C33.8655 31.637 33.4581 30.6791 33.1619 30.4026C33.1591 30.4009 33.1568 30.3986 33.155 30.3958C33.1533 30.3931 33.1521 30.39 33.1517 30.3867C33.1513 30.3835 33.1515 30.3802 33.1525 30.3771C33.1535 30.374 33.1552 30.3711 33.1574 30.3687C33.1596 30.3663 33.1623 30.3644 33.1653 30.3632C33.1684 30.362 33.1716 30.3614 33.1749 30.3616C33.1781 30.3618 33.1813 30.3627 33.1842 30.3642C33.1871 30.3657 33.1896 30.3679 33.1915 30.3705C33.4952 30.6544 33.9099 31.6271 33.8729 32.5059C33.8723 32.5114 33.8697 32.5164 33.8656 32.5201C33.8615 32.5237 33.8562 32.5257 33.8507 32.5257Z" fill="white"/>
<path d="M33.7198 31.5011C33.5152 31.4443 33.3049 31.4104 33.0928 31.3999C33.0869 31.3999 33.0812 31.3976 33.0771 31.3934C33.0729 31.3892 33.0706 31.3836 33.0706 31.3777C33.0706 31.3718 33.0729 31.3661 33.0771 31.362C33.0812 31.3578 33.0869 31.3555 33.0928 31.3555C33.3099 31.3659 33.5252 31.4007 33.7346 31.4592C33.7373 31.46 33.7399 31.4613 33.742 31.4632C33.7441 31.465 33.7458 31.4673 33.747 31.4699C33.7482 31.4725 33.7488 31.4753 33.7488 31.4781C33.7488 31.4809 33.7482 31.4837 33.747 31.4863C33.7465 31.4892 33.7453 31.492 33.7436 31.4944C33.7418 31.4969 33.7396 31.4988 33.737 31.5003C33.7344 31.5017 33.7315 31.5025 33.7285 31.5027C33.7255 31.5028 33.7226 31.5023 33.7198 31.5011Z" fill="white"/>
<path d="M63.3641 0.936234L61.6484 1.92371C61.6581 1.8484 61.6631 1.77254 61.6632 1.69659V1.20285C61.6632 0.31906 61.0411 -0.0314948 60.2758 0.402995C59.9467 0.606057 59.6647 0.877077 59.4488 1.19792C59.3229 0.0845341 58.4613 -0.327738 57.3899 0.28203C56.2444 0.946109 55.3137 2.5557 55.3137 3.87892V4.61953C55.3061 4.91655 55.3669 5.21133 55.4915 5.4811L54.0645 6.30318C53.8408 6.44959 53.6545 6.6465 53.5207 6.87804C53.387 7.10958 53.3094 7.36929 53.2943 7.63627C53.2943 8.13001 53.6399 8.32751 54.0645 8.08064L63.3641 2.70629C63.5883 2.56031 63.7749 2.36351 63.9087 2.13188C64.0425 1.90025 64.1198 1.64031 64.1343 1.37319C64.1343 0.891797 63.7986 0.691834 63.3641 0.936234Z" fill="#EBEBEB"/>
<path d="M70.7109 5.93776L69.4173 6.67836C69.4173 6.61912 69.4173 6.56234 69.4173 6.50556V6.13772C69.4173 5.47117 68.9483 5.19962 68.3706 5.53536C68.1219 5.68752 67.9096 5.89228 67.7485 6.13525C67.6547 5.2959 67.0079 4.98237 66.1957 5.44402C65.7388 5.74103 65.3586 6.14186 65.0862 6.6138C64.8137 7.08574 64.6568 7.61541 64.628 8.15958V8.71998C64.6232 8.94446 64.6687 9.16717 64.7614 9.37171L63.685 9.99135C63.516 10.1019 63.3754 10.2507 63.2747 10.4257C63.1739 10.6007 63.1157 10.7969 63.1049 10.9986C63.1049 11.3689 63.3641 11.5195 63.685 11.3343L70.7109 7.27826C70.8802 7.16836 71.0211 7.02011 71.1223 6.84554C71.2236 6.67096 71.2822 6.47498 71.2935 6.2735C71.291 5.91554 71.0294 5.7526 70.7109 5.93776Z" fill="#EBEBEB"/>
<path d="M103.438 51.9566L102.145 52.6972C102.145 52.6405 102.145 52.5837 102.145 52.5269V52.1517C102.145 51.4826 101.676 51.2136 101.098 51.5468C100.849 51.7001 100.637 51.9046 100.473 52.1467C100.38 51.3074 99.7204 50.9938 98.9205 51.4555C98.4636 51.7525 98.0835 52.1533 97.811 52.6253C97.5386 53.0972 97.3816 53.6269 97.3529 54.1711V54.7314C97.3477 54.9552 97.3933 55.1771 97.4862 55.3807L96.4099 56.0028C96.2409 56.1129 96.1003 56.2612 95.9995 56.4358C95.8987 56.6104 95.8405 56.8063 95.8297 57.0076C95.8297 57.3779 96.0766 57.5285 96.4099 57.3433L103.428 53.2922C103.598 53.1818 103.739 53.0331 103.84 52.8581C103.941 52.6831 104 52.4868 104.011 52.285C104.021 51.9196 103.759 51.769 103.438 51.9566Z" fill="#EBEBEB"/>
</svg>
