<svg width="100" height="100" viewBox="0 0 100 100" fill="none" xmlns="http://www.w3.org/2000/svg">
<path d="M85.0589 50.8116C65.5712 39.5608 34.0759 39.5608 14.7124 50.8116C-4.6511 62.0623 -4.54718 80.3075 14.9383 91.5605C34.4238 102.814 65.9236 102.814 85.2871 91.5605C104.651 80.3075 104.549 62.0646 85.0589 50.8116Z" fill="#F5F5F5"/>
<path d="M24.402 65.2451L36.5451 58.2416C36.6267 58.1944 36.6945 58.1266 36.7416 58.0449C36.7887 57.9632 36.8135 57.8706 36.8135 57.7763C36.8135 57.682 36.7887 57.5893 36.7416 57.5076C36.6945 57.4259 36.6267 57.3581 36.5451 57.3109L25.8411 51.0913C25.7594 51.0441 25.6666 51.0193 25.5722 51.0193C25.4779 51.0193 25.3851 51.0441 25.3034 51.0913L12.9005 58.2507C12.8189 58.2979 12.7511 58.3658 12.704 58.4475C12.6569 58.5291 12.6321 58.6218 12.6321 58.7161C12.6321 58.8104 12.6569 58.903 12.704 58.9847C12.7511 59.0664 12.8189 59.1342 12.9005 59.1815L23.3357 65.2429C23.4979 65.3359 23.6815 65.3851 23.8685 65.3855C24.0555 65.3859 24.2394 65.3375 24.402 65.2451Z" fill="#E6E6E6"/>
<path d="M84.3857 63.6095C82.9828 62.8007 80.7168 62.8007 79.3251 63.6095C77.9335 64.4183 77.9403 65.7309 79.3409 66.5465C80.7416 67.362 83.0076 67.3552 84.4015 66.5465C85.7954 65.7377 85.7864 64.4206 84.3857 63.6095Z" fill="#E6E6E6"/>
<path d="M75.5862 72.9331C75.5026 72.7069 75.3428 72.5168 75.1344 72.3954L56.0239 61.3616C55.62 61.1273 55.1613 61.0039 54.6944 61.0039C54.2274 61.0039 53.7688 61.1273 53.3649 61.3616L32.3431 73.5612C32.1818 73.6544 32.0477 73.7884 31.9546 73.9498C31.8614 74.1112 31.8124 74.2943 31.8124 74.4806C31.8124 74.667 31.8614 74.8501 31.9546 75.0115C32.0477 75.1729 32.1818 75.3069 32.3431 75.4001L41.5312 80.7047C37.5144 80.1128 33.0842 80.725 29.9529 82.5437C25.229 85.2886 25.2538 89.7414 30.0094 92.4841C34.765 95.2267 42.4485 95.229 47.1792 92.4841C50.3104 90.6654 51.3519 88.0968 50.3172 85.772L51.4581 86.4295C51.8619 86.6642 52.3206 86.7878 52.7876 86.7878C53.2547 86.7878 53.7134 86.6642 54.1172 86.4295L75.1276 74.2299C75.3458 74.1036 75.5119 73.9037 75.5959 73.666C75.68 73.4283 75.6765 73.1685 75.5862 72.9331Z" fill="#E6E6E6"/>
<path d="M74.9558 10.6611L74.8971 31.5315L76.0583 32.2002L76.1171 11.3321L74.9558 10.6611Z" fill="#E0E0E0"/>
<path d="M76.1191 11.332H76.1168L76.0581 32.2001L77.068 31.615L77.1244 11.9126L76.1191 11.332Z" fill="#F0F0F0"/>
<path opacity="0.2" d="M76.1146 12.2674L76.1168 11.3321L74.9556 10.6611L74.9534 11.5987L76.1146 12.2674Z" fill="black"/>
<path opacity="0.2" d="M76.1146 12.2673L76.9302 11.7997L76.1191 11.332H76.1169L76.1146 12.2673Z" fill="black"/>
<path d="M60.9804 2.59099L61.9902 2.00586L61.9315 22.874L60.9216 23.4613L60.9804 2.59099Z" fill="#F0F0F0"/>
<path d="M60.9216 23.4619L61.9315 22.8745L91.0456 39.6828L90.0358 40.2702L60.9216 23.4619Z" fill="#F5F5F5"/>
<path d="M59.8236 0.587158L91.2602 18.7465L91.1924 42.2849L59.7559 24.1256L59.8236 0.587158ZM90.0357 40.2697L90.0945 19.3994L60.9803 2.59106L60.9216 23.4614L90.0357 40.2697Z" fill="#E0E0E0"/>
<path d="M59.8239 0.587388L60.8337 0L92.268 18.1503L91.2604 18.7354L59.8239 0.587388Z" fill="#F5F5F5"/>
<path d="M91.2602 18.7355L92.2678 18.1504L92.2022 41.6888L91.1924 42.274L91.2602 18.7355Z" fill="#F0F0F0"/>
<path opacity="0.8" d="M36.4954 42.5949L25.5248 36.2195L12.9592 43.4737L12.9999 57.9122L23.9705 64.2876L25.0775 63.6505L25.073 62.4215L34.3695 57.0537L35.4313 57.6727L36.5361 57.0334L36.4954 42.5949Z" fill="#BA68C8"/>
<path d="M34.3695 57.0533L35.4313 57.6724L35.4268 56.4434L34.3695 57.0533Z" fill="#E6E6E6"/>
<path d="M35.3838 44.5195L25.0503 50.486L35.3838 44.5195Z" fill="#CFCFCF"/>
<path d="M35.4269 56.4435V57.6725L36.5317 57.0332L36.491 42.5947L23.9254 49.849L23.9661 64.2874L25.0731 63.6503V62.4213L34.3674 57.0535L35.4269 56.4435ZM25.0505 50.4861L35.384 44.5196L35.3976 49.2028L25.0618 55.1694L25.0505 50.4861ZM25.0663 56.4526L35.4021 50.4838V50.4974L35.4156 55.1671L25.0799 61.1336L25.0663 56.4526Z" fill="#BA68C8"/>
<path d="M35.4154 55.1671L35.4018 50.4974V50.4861L25.066 56.4526L25.0796 61.1336L35.4154 55.1671Z" fill="#BA68C8"/>
<path d="M35.3974 49.2028L35.3838 44.5195L25.0503 50.486L25.0638 55.1693L35.3974 49.2028Z" fill="#BA68C8"/>
<path d="M23.9297 49.8488L12.9591 43.4734L12.9998 57.9118L23.9704 64.2873L23.9297 49.8488Z" fill="#BA68C8"/>
<path d="M23.9298 49.8491L36.4954 42.5949L25.5248 36.2195L12.9592 43.4737L23.9298 49.8491Z" fill="#BA68C8"/>
<path d="M34.3695 57.0533L35.4313 57.6724L35.4268 56.4434L34.3695 57.0533Z" fill="#E6E6E6"/>
<path d="M35.3838 44.5195L25.0503 50.486L35.3838 44.5195Z" fill="#CFCFCF"/>
<path opacity="0.6" d="M35.4269 56.4435V57.6725L36.5317 57.0332L36.491 42.5947L23.9254 49.849L23.9661 64.2874L25.0731 63.6503V62.4213L34.3674 57.0535L35.4269 56.4435ZM25.0505 50.4861L35.384 44.5196L35.3976 49.2028L25.0618 55.1694L25.0505 50.4861ZM25.0663 56.4526L35.4021 50.4838V50.4974L35.4156 55.1671L25.0799 61.1336L25.0663 56.4526Z" fill="white"/>
<path opacity="0.8" d="M35.4154 55.1671L35.4018 50.4974V50.4861L25.066 56.4526L25.0796 61.1336L35.4154 55.1671Z" fill="white"/>
<path opacity="0.8" d="M35.3974 49.2028L35.3838 44.5195L25.0503 50.486L25.0638 55.1693L35.3974 49.2028Z" fill="white"/>
<path d="M32.0154 48.2064L32.0109 47.5603L28.4324 49.6275L28.4369 50.2736L32.0154 48.2064Z" fill="#455A64"/>
<path d="M32.0154 54.087L32.0109 53.4409L28.4324 55.5081L28.4369 56.1542L32.0154 54.087Z" fill="#455A64"/>
<path opacity="0.5" d="M23.9297 49.8488L12.9591 43.4734L12.9998 57.9118L23.9704 64.2873L23.9297 49.8488Z" fill="white"/>
<path opacity="0.8" d="M23.9298 49.8491L36.4954 42.5949L25.5248 36.2195L12.9592 43.4737L23.9298 49.8491Z" fill="white"/>
<path d="M16.8767 13.5618L16.8925 19.0719L17.5612 19.4605L17.5432 13.1777L16.8767 13.5618Z" fill="#F0F0F0"/>
<path d="M9.68347 23.2332L9.68573 24.0058L17.5613 19.4604L16.8925 19.0718L9.68347 23.2332Z" fill="#F5F5F5"/>
<path d="M18.3473 11.7861L8.85876 17.2647L8.88136 25.3977L18.3699 19.9192L18.3473 11.7861ZM9.68563 24.0061V23.2334L9.66981 17.7233L16.8789 13.5619L17.5566 13.1778L17.5747 19.4606L9.68563 24.0061Z" fill="#E0E0E0"/>
<path d="M18.3474 11.7863L17.6786 11.3977L8.19006 16.8762L8.85878 17.2648L18.3474 11.7863Z" fill="#F5F5F5"/>
<path d="M8.19006 16.8762L8.21265 25.0115L8.88138 25.4001L8.85878 17.2648L8.19006 16.8762Z" fill="#F0F0F0"/>
<path d="M28.6063 16.7019L28.6221 22.2121L29.2909 22.6007L29.2728 16.3179L28.6063 16.7019Z" fill="#F0F0F0"/>
<path d="M21.4132 26.3738L21.4155 27.1465L29.291 22.601L28.6223 22.2124L21.4132 26.3738Z" fill="#F5F5F5"/>
<path d="M30.0771 14.9263L20.5885 20.4048L20.6111 28.5379L30.0997 23.0593L30.0771 14.9263ZM21.4154 27.1462V26.3736L21.3995 20.8634L28.6063 16.7133L29.2728 16.3292L29.2909 22.612L21.4154 27.1462Z" fill="#E0E0E0"/>
<path d="M30.0771 14.9262L29.4084 14.5376L19.9198 20.0161L20.5885 20.4047L30.0771 14.9262Z" fill="#F5F5F5"/>
<path d="M19.9198 20.0161L19.9424 28.1514L20.6111 28.54L20.5885 20.4047L19.9198 20.0161Z" fill="#F0F0F0"/>
<path d="M42.7285 16.449V15.1116L42.6675 15.1455L42.5545 15.2132C41.5673 15.8097 40.5755 16.7472 39.6515 17.7616C39.5009 17.9288 39.3503 18.0982 39.1996 18.2699C38.4225 19.1736 37.6589 20.1044 36.8772 20.9809V23.143L37.8215 22.5985C39.0497 20.2543 40.7153 18.1669 42.7285 16.449Z" fill="#EBEBEB"/>
<path d="M42.7374 19.7678V17.9785C41.9177 18.8499 41.2413 19.8458 40.7335 20.929L42.7374 19.7678Z" fill="#EBEBEB"/>
<path d="M40.7268 20.9289C41.2346 19.8457 41.911 18.8498 42.7307 17.9784V16.449C40.7159 18.1693 39.0494 20.2599 37.8215 22.6075L40.7291 20.9289H40.7268Z" fill="#FAFAFA"/>
<path d="M38.7546 14.6058L38.8902 14.5583C39.1432 14.468 39.3985 14.3618 39.656 14.2443L39.7486 14.1991C39.8367 14.1585 39.9226 14.1155 40.0084 14.0704C40.1576 13.9958 40.3067 13.9167 40.4603 13.8309C40.3089 13.9167 40.1598 13.9958 40.0084 14.0704L40.0627 14.0455C40.1937 13.9777 40.3247 13.9054 40.458 13.8196L40.5416 13.7722L40.6094 13.7315C41.3235 13.3093 41.9993 12.8255 42.6291 12.2856L42.715 12.2111V9.95187C41.2804 10.6861 39.8684 10.9143 38.7297 10.5596C37.944 10.3152 37.2701 9.80062 36.8275 9.10693L36.8433 14.9808C37.4949 14.9463 38.1383 14.82 38.7546 14.6058Z" fill="#FAFAFA"/>
<path d="M39.6469 17.7615C40.5709 16.7471 41.5627 15.8096 42.55 15.2131L42.6629 15.1454L42.7239 15.1115V13.8147C40.808 14.9437 39.0327 16.2958 37.4352 17.8428C37.2431 18.0258 37.0534 18.2133 36.8613 18.3918V20.9944C37.643 20.1088 38.4066 19.1667 39.1838 18.2834C39.3389 18.1026 39.4933 17.9287 39.6469 17.7615Z" fill="#FAFAFA"/>
<path d="M42.7195 13.8148V12.2334L42.6337 12.308C42.0039 12.8478 41.328 13.3317 40.614 13.7538L40.5462 13.7945L40.4626 13.8419C40.3293 13.9165 40.1983 13.9888 40.0672 14.0679L40.013 14.0927C39.9272 14.1379 39.8413 14.1786 39.7555 14.2192L39.6606 14.2667C39.403 14.3841 39.1477 14.4926 38.8947 14.5807L38.7592 14.6281C38.1459 14.8423 37.5055 14.9693 36.8569 15.0054V18.41C37.049 18.2315 37.2387 18.044 37.4308 17.861C39.0273 16.3077 40.8027 14.9495 42.7195 13.8148Z" fill="#EBEBEB"/>
<path d="M42.7013 8.12876V6.45697C41.7977 6.2446 41.0905 5.58492 40.7223 4.59766L38.7184 5.75436C39.0691 6.50274 39.636 7.12891 40.3459 7.55212C41.0558 7.97533 41.8762 8.17617 42.7013 8.12876Z" fill="#FAFAFA"/>
<path d="M38.723 10.5682C39.8526 10.9229 41.2736 10.6947 42.7082 9.96051L42.7014 8.12831C41.8755 8.17665 41.0541 7.97624 40.3433 7.55297C39.6325 7.12971 39.0649 6.50304 38.7139 5.75391L36.8275 6.84735V9.10654C37.2669 9.80235 37.9383 10.3202 38.723 10.5682Z" fill="#EBEBEB"/>
<path d="M43.0198 2.89404L36.4976 6.6601L36.545 23.7215L43.0673 19.9554L43.0198 2.89404ZM36.8748 23.1522V20.9901V18.3875V14.9829L36.859 9.10906V6.84987L38.7455 5.76095L40.7493 4.60425L42.7194 3.47465V6.47259V8.14439V9.97207V12.2313V13.8127V15.1095V16.4469V17.9764V19.7656L40.7087 20.9269L37.8011 22.6054L36.8748 23.1522Z" fill="white"/>
<path d="M42.7013 6.46107V3.46313L40.7313 4.59273C41.0883 5.58903 41.7977 6.24871 42.7013 6.46107Z" fill="#EBEBEB"/>
<path opacity="0.2" d="M43.0674 19.9551L36.5452 23.7211L36.5474 24.173L43.4605 20.1833L43.0674 19.9551Z" fill="black"/>
<path d="M43.0198 2.89389L43.0672 19.9553L43.4603 20.1834L43.4106 2.66797L43.0198 2.89389Z" fill="#F0F0F0"/>
<path d="M44.4592 0.851562L35.4427 6.05898L35.4992 25.9895L44.5089 20.7798L44.4592 0.851562ZM36.5475 24.1686V23.7168L36.5 6.65541L43.0223 2.88935L43.4132 2.66343L43.4629 20.1789L36.5475 24.1686Z" fill="#E0E0E0"/>
<path d="M44.459 0.85178L43.7157 0.451904L34.697 5.65933L35.4425 6.0592L44.459 0.85178Z" fill="#F5F5F5"/>
<path d="M34.697 5.65918L34.7535 25.5897L35.499 25.9896L35.4425 6.05905L34.697 5.65918Z" fill="#F0F0F0"/>
<path d="M14.5858 15.6538L16.5513 17.2014L16.5558 18.715L10.0177 22.4901L10.0132 20.9764L11.2603 18.5026L12.3786 19.3702L11.9832 20.5992L12.557 19.508L14.5858 15.6538Z" fill="#E0E0E0"/>
<path d="M12.4396 16.4149C12.7468 16.2387 12.9976 16.3811 12.9976 16.7335C12.9878 16.9265 12.9323 17.1143 12.8356 17.2817C12.739 17.449 12.604 17.591 12.4418 17.6959C12.1346 17.8744 11.8838 17.732 11.8838 17.3774C11.8936 17.1844 11.9491 16.9965 12.0457 16.8292C12.1423 16.6619 12.2773 16.5199 12.4396 16.4149Z" fill="#E0E0E0"/>
<path d="M26.3155 18.7942L28.2833 20.3417L28.2855 21.8554L21.7474 25.6305L21.7429 24.1168L22.99 21.643L24.1083 22.5105L23.7129 23.7395L24.2868 22.6484L26.3155 18.7942Z" fill="#E0E0E0"/>
<path d="M24.1761 19.5553C24.4834 19.3791 24.7341 19.5214 24.7341 19.8739C24.724 20.0667 24.6683 20.2545 24.5717 20.4218C24.4751 20.589 24.3404 20.7311 24.1784 20.8363C23.8711 21.0148 23.6204 20.8724 23.6204 20.5177C23.6302 20.3248 23.6857 20.1369 23.7823 19.9696C23.8789 19.8022 24.0139 19.6603 24.1761 19.5553Z" fill="#E0E0E0"/>
<path d="M85.2575 58.96L81.8688 59.0594L78.48 58.96C78.3331 61.2508 78.7805 63.5868 79.3995 64.7277C79.5473 65.0201 79.7848 65.2576 80.0772 65.4054C81.078 65.9838 82.6979 65.9838 83.6919 65.4054C83.99 65.2535 84.2286 65.0061 84.3697 64.7028C84.9593 63.5574 85.3999 61.2327 85.2575 58.96Z" fill="white"/>
<path d="M84.2546 57.564C85.5853 58.3299 85.592 59.5747 84.2704 60.3428C82.9488 61.1109 80.8003 61.1109 79.4719 60.3428C78.1435 59.5747 78.1345 58.3299 79.4561 57.564C80.7777 56.7982 82.9262 56.7959 84.2546 57.564Z" fill="#EBEBEB"/>
<path d="M83.7282 57.8689C84.7675 58.4676 84.772 59.4391 83.7418 60.0377C82.7116 60.6364 81.0308 60.6364 79.9961 60.0377C78.9614 59.4391 78.9546 58.4676 79.9848 57.8689C81.015 57.2703 82.689 57.2703 83.7282 57.8689Z" fill="#E0E0E0"/>
<g opacity="0.15">
<path d="M83.7282 57.8689C84.7675 58.4676 84.772 59.4391 83.7418 60.0377C82.7116 60.6364 81.0308 60.6364 79.9961 60.0377C78.9614 59.4391 78.9546 58.4676 79.9848 57.8689C81.015 57.2703 82.689 57.2703 83.7282 57.8689Z" fill="black"/>
</g>
<path d="M87.4332 44.4697C79.7858 46.9752 79.7158 52.0922 81.4396 55.7363C81.8756 56.4728 83.1904 56.8659 84.3358 52.3475L82.3274 52.6051L84.6679 51.4167L85.2779 49.6094L83.326 49.754L85.8111 48.7125C86.2634 47.266 86.8052 45.849 87.4332 44.4697Z" fill="#BA68C8"/>
<path opacity="0.2" d="M87.4332 44.4697C79.7858 46.9752 79.7158 52.0922 81.4396 55.7363C81.8756 56.4728 83.1904 56.8659 84.3358 52.3475L82.3274 52.6051L84.6679 51.4167L85.2779 49.6094L83.326 49.754L85.8111 48.7125C86.2634 47.266 86.8052 45.849 87.4332 44.4697Z" fill="black"/>
<path d="M85.2802 45.7507C81.2453 48.8119 80.8815 52.3204 82.0224 55.9848C81.618 52.7587 81.182 49.4965 85.2802 45.7507Z" fill="white"/>
<path d="M74.4882 49.6682C82.0271 50.73 82.942 55.4834 81.9435 59.1568C81.6611 59.9159 80.5021 60.5123 78.6812 56.4729L80.597 56.3802L78.2181 55.6641L77.3505 54.0714L79.1918 53.8816L76.7067 53.3236C76.0433 52.0605 75.3024 50.8397 74.4882 49.6682Z" fill="#BA68C8"/>
<path opacity="0.2" d="M74.4882 49.6682C82.0271 50.73 82.942 55.4834 81.9435 59.1568C81.6611 59.9159 80.5021 60.5123 78.6812 56.4729L80.597 56.3802L78.2181 55.6641L77.3505 54.0714L79.1918 53.8816L76.7067 53.3236C76.0433 52.0605 75.3024 50.8397 74.4882 49.6682Z" fill="white"/>
<path d="M76.7156 50.4995C80.9809 52.6819 81.9117 55.8899 81.4599 59.4911C81.2904 56.4186 81.1526 53.3122 76.7156 50.4995Z" fill="white"/>
<path d="M89.6492 51.4507C82.7361 51.5636 81.3783 55.7431 81.8686 59.1748C82.038 59.8887 83.0185 60.5484 85.1083 57.1212L83.3958 56.8208L85.6188 56.4412L86.579 55.1038L84.9479 54.7288L87.2477 54.5028C87.9847 53.4371 88.7868 52.4178 89.6492 51.4507Z" fill="#BA68C8"/>
<path d="M87.5483 51.9568C83.4615 53.4456 82.2709 56.2334 82.2754 59.5318C82.7634 56.7734 83.2356 53.9901 87.5483 51.9568Z" fill="white"/>
<path opacity="0.05" d="M22.4138 41.9668C23.7174 41.2145 25.8207 41.2145 27.1152 41.9668C28.4097 42.7191 28.4029 43.9368 27.0994 44.6891C25.7958 45.4414 23.6925 45.4414 22.4003 44.6891C21.108 43.9368 21.1125 42.7169 22.4138 41.9668Z" fill="black"/>
<path d="M21.2866 37.2334L24.8583 37.3373L28.4324 37.2334C28.586 39.6462 28.1138 42.1065 27.4654 43.3061C27.312 43.6151 27.0644 43.8675 26.7583 44.0268C25.7033 44.6345 23.9999 44.6345 22.9516 44.0268C22.6406 43.8656 22.3919 43.6058 22.2445 43.288C21.5983 42.0816 21.1329 39.6349 21.2866 37.2334Z" fill="white"/>
<path d="M22.3393 35.772C20.9408 36.5785 20.934 37.8889 22.3234 38.6976C23.7128 39.5064 25.9765 39.5064 27.3772 38.6976C28.7779 37.8889 28.7847 36.5785 27.393 35.772C26.0014 34.9655 23.7399 34.9632 22.3393 35.772Z" fill="#EBEBEB"/>
<path d="M22.8927 36.093C21.8015 36.7233 21.7947 37.7467 22.8927 38.377C23.9907 39.0073 25.7415 39.0073 26.835 38.377C27.9284 37.7467 27.933 36.7233 26.8463 36.093C25.7596 35.4627 23.9862 35.4649 22.8927 36.093Z" fill="#E0E0E0"/>
<g opacity="0.15">
<path d="M22.8927 36.093C21.8015 36.7233 21.7947 37.7467 22.8927 38.377C23.9907 39.0073 25.7415 39.0073 26.835 38.377C27.9284 37.7467 27.933 36.7233 26.8463 36.093C25.7596 35.4627 23.9862 35.4649 22.8927 36.093Z" fill="black"/>
</g>
<path d="M25.1566 37.3352C24.8702 37.5756 24.5306 37.7443 24.166 37.8272C23.8014 37.9101 23.4222 37.9048 23.06 37.8119C22.7115 37.7055 22.3949 37.5141 22.1386 37.255C21.8822 36.996 21.6943 36.6773 21.5916 36.3276C22.0156 36.127 22.4034 35.8575 22.7392 35.5301C22.203 35.3972 21.6402 35.4176 21.1149 35.5889C20.9696 35.3601 20.8826 35.0993 20.8613 34.8291C20.8401 34.559 20.8852 34.2877 20.9929 34.0391C21.6027 33.769 22.288 33.7219 22.929 33.9058C22.6627 33.6734 22.3512 33.4987 22.0142 33.3926C21.6771 33.2864 21.3217 33.2512 20.9703 33.289C20.9205 32.2642 21.0812 31.2401 21.4425 30.2798C22.7731 30.3498 24.0654 30.9237 24.5014 31.3348C24.5206 31.8117 24.4704 32.2889 24.3523 32.7513C24.5245 32.6635 24.6718 32.5336 24.7804 32.3736C24.889 32.2137 24.9555 32.0289 24.9736 31.8364C25.805 32.0442 26.1619 32.4599 26.2929 32.7784C26.1733 33.3703 25.9015 33.9208 25.5045 34.3757C26.2862 34.1498 26.6047 33.2687 26.6047 33.2687C27.3728 35.0918 27.226 37.1567 25.1566 37.3352Z" fill="#BA68C8"/>
<path opacity="0.2" d="M25.1566 37.3352C24.8702 37.5756 24.5306 37.7443 24.166 37.8272C23.8014 37.9101 23.4222 37.9048 23.06 37.8119C22.7115 37.7055 22.3949 37.5141 22.1386 37.255C21.8822 36.996 21.6943 36.6773 21.5916 36.3276C22.0156 36.127 22.4034 35.8575 22.7392 35.5301C22.203 35.3972 21.6402 35.4176 21.1149 35.5889C20.9696 35.3601 20.8826 35.0993 20.8613 34.8291C20.8401 34.559 20.8852 34.2877 20.9929 34.0391C21.6027 33.769 22.288 33.7219 22.929 33.9058C22.6627 33.6734 22.3512 33.4987 22.0142 33.3926C21.6771 33.2864 21.3217 33.2512 20.9703 33.289C20.9205 32.2642 21.0812 31.2401 21.4425 30.2798C22.7731 30.3498 24.0654 30.9237 24.5014 31.3348C24.5206 31.8117 24.4704 32.2889 24.3523 32.7513C24.5245 32.6635 24.6718 32.5336 24.7804 32.3736C24.889 32.2137 24.9555 32.0289 24.9736 31.8364C25.805 32.0442 26.1619 32.4599 26.2929 32.7784C26.1733 33.3703 25.9015 33.9208 25.5045 34.3757C26.2862 34.1498 26.6047 33.2687 26.6047 33.2687C27.3728 35.0918 27.226 37.1567 25.1566 37.3352Z" fill="black"/>
<path d="M25.2038 37.5341C25.2139 37.5335 25.2238 37.531 25.2329 37.5266C25.242 37.5222 25.2501 37.516 25.2568 37.5085C25.2636 37.5009 25.2687 37.4921 25.272 37.4825C25.2753 37.473 25.2767 37.4629 25.2761 37.4528C25.1473 35.7697 24.1849 32.9931 21.8873 30.7023C21.8729 30.688 21.8534 30.6799 21.8331 30.6799C21.8128 30.6799 21.7933 30.688 21.7789 30.7023C21.7715 30.7093 21.7656 30.7177 21.7616 30.727C21.7576 30.7364 21.7555 30.7464 21.7555 30.7566C21.7555 30.7667 21.7576 30.7768 21.7616 30.7861C21.7656 30.7954 21.7715 30.8038 21.7789 30.8108C24.0381 33.07 24.9914 35.8081 25.118 37.4641C25.1188 37.4744 25.1217 37.4844 25.1265 37.4936C25.1313 37.5027 25.1379 37.5108 25.146 37.5174C25.154 37.5239 25.1632 37.5288 25.1732 37.5317C25.1831 37.5345 25.1935 37.5354 25.2038 37.5341Z" fill="#F5F5F5"/>
<path d="M24.5735 38.2345C24.8408 38.4529 25.156 38.605 25.4933 38.6781C25.8307 38.7513 26.1806 38.7434 26.5143 38.6553C26.848 38.5671 27.1561 38.4011 27.4133 38.1709C27.6705 37.9406 27.8695 37.6528 27.9939 37.3308C27.6116 37.1571 27.2617 36.9195 26.9592 36.6282C27.4655 36.5064 27.995 36.522 28.4932 36.6734C28.6444 36.4806 28.7436 36.2522 28.7812 36.0101C28.8188 35.768 28.7935 35.5203 28.7079 35.2907C28.1277 35.0523 27.4845 35.0141 26.8802 35.1823C27.4192 34.7623 28.097 34.5614 28.7779 34.6198C28.8926 33.7164 28.8046 32.7987 28.5203 31.9336C27.2507 32.0104 25.9946 32.5368 25.5585 32.9096C25.5089 33.3284 25.5264 33.7524 25.6105 34.1657C25.4563 34.0931 25.3253 33.979 25.2324 33.8361C25.1394 33.6932 25.088 33.5273 25.0841 33.3569C24.2889 33.5512 23.9297 33.9217 23.7873 34.2041C23.8642 34.7257 24.0866 35.2151 24.429 35.6161C23.7105 35.4105 23.4665 34.6401 23.4665 34.6401C22.6397 36.2599 22.6532 38.0808 24.5735 38.2345Z" fill="#BA68C8"/>
<path d="M24.5216 38.4199C24.5401 38.4201 24.5581 38.4136 24.5723 38.4015C24.5864 38.3895 24.5957 38.3727 24.5984 38.3544C24.8243 36.8881 25.8816 34.4573 28.1611 32.4263C28.1755 32.4119 28.1835 32.3924 28.1835 32.372C28.1835 32.3517 28.1755 32.3322 28.1611 32.3178C28.1467 32.3035 28.1272 32.2954 28.1069 32.2954C28.0866 32.2954 28.0671 32.3035 28.0527 32.3178C25.7415 34.3759 24.6639 36.8475 24.438 38.3385C24.4364 38.3483 24.4368 38.3584 24.4391 38.368C24.4414 38.3777 24.4457 38.3868 24.4515 38.3948C24.4574 38.4028 24.4649 38.4095 24.4734 38.4146C24.4819 38.4197 24.4914 38.423 24.5012 38.4244L24.5216 38.4199Z" fill="white"/>
<path opacity="0.1" d="M52.0208 56.7802C53.9705 57.9098 53.9795 59.7172 52.0456 60.8468C50.1118 61.9764 46.9625 61.9764 45.0151 60.8468C43.0676 59.7172 43.0563 57.8985 44.9902 56.7802C46.9241 55.6619 50.0734 55.6552 52.0208 56.7802Z" fill="black"/>
<path d="M69.8793 58.8994L68.639 59.6382L70.1775 63.3319L70.5526 64.2356C70.7343 64.668 70.7506 65.152 70.5986 65.5957C70.4465 66.0394 70.1367 66.4116 69.728 66.6416L54.675 75.1588L53.6945 75.7145L35.1014 64.9676L34.5005 71.2662L35.4765 71.4108L35.5465 70.9838C35.5754 70.8146 35.6447 70.6549 35.7485 70.5183C35.8524 70.3816 35.9877 70.272 36.1429 70.1988C36.2981 70.1257 36.4687 70.091 36.6402 70.0979C36.8117 70.1047 36.979 70.1529 37.1279 70.2383L50.8344 78.1273C51.3934 78.4494 51.848 78.9254 52.144 79.4986C52.44 80.0718 52.5649 80.718 52.5039 81.3602L52.4565 81.8482H53.4438L53.6448 80.6531C53.7269 80.1641 53.9164 79.6993 54.1996 79.2922C54.4828 78.8852 54.8527 78.546 55.2827 78.299L71.1151 69.1787C71.2659 69.092 71.4331 69.0375 71.606 69.0184C71.7789 68.9994 71.9539 69.0163 72.12 69.068C72.286 69.1198 72.4396 69.2053 72.5711 69.3192C72.7026 69.4331 72.8091 69.5729 72.884 69.7299L74.3819 72.877C74.3819 72.877 74.8721 73.1391 75.0596 72.6669L69.8793 58.8994Z" fill="#455A64"/>
<path d="M56.148 75.7394L69.9968 67.6379C70.436 67.3812 70.7672 66.9739 70.9288 66.4915C71.0904 66.0091 71.0715 65.4845 70.8757 65.015L70.1776 63.3364L70.5526 64.2401C70.733 64.6719 70.7487 65.1549 70.5967 65.5976C70.4447 66.0402 70.1356 66.4117 69.728 66.6416L54.675 75.1587C54.7196 75.3042 54.7964 75.4378 54.8997 75.5495C55.003 75.6612 55.1301 75.7482 55.2716 75.804C55.4132 75.8598 55.5655 75.8829 55.7172 75.8717C55.869 75.8606 56.0162 75.8153 56.148 75.7394Z" fill="#37474F"/>
<path d="M52.2693 43.3721L37.3857 54.8939C36.9304 55.2469 36.5527 55.6898 36.2759 56.195C35.9992 56.7003 35.8294 57.2571 35.7772 57.8309L34.1167 75.3169C34.2089 75.4022 34.3268 75.4545 34.4519 75.4655C34.5771 75.4766 34.7023 75.4458 34.808 75.3779L37.7743 57.8173C37.8246 57.5178 37.9393 57.2327 38.1105 56.9819C38.2817 56.7311 38.5054 56.5205 38.7661 56.3646L51.9168 48.4846C53.627 47.4589 53.9298 43.8352 52.2693 43.3721Z" fill="#455A64"/>
<path opacity="0.3" d="M52.2693 43.3721L37.3857 54.8939C36.9304 55.2469 36.5527 55.6898 36.2759 56.195C35.9992 56.7003 35.8294 57.2571 35.7772 57.8309L34.1167 75.3169C34.2089 75.4022 34.3268 75.4545 34.4519 75.4655C34.5771 75.4766 34.7023 75.4458 34.808 75.3779L37.7743 57.8173C37.8246 57.5178 37.9393 57.2327 38.1105 56.9819C38.2817 56.7311 38.5054 56.5205 38.7661 56.3646L51.9168 48.4846C53.627 47.4589 53.9298 43.8352 52.2693 43.3721Z" fill="white"/>
<path d="M69.3148 63.2755C69.2469 63.0977 69.1201 62.9486 68.9556 62.853L54.045 54.2388C53.7291 54.0561 53.3706 53.96 53.0057 53.96C52.6408 53.96 52.2824 54.0561 51.9665 54.2388L37.153 62.8485C36.9877 62.9442 36.8607 63.0943 36.7938 63.2733C36.3691 64.0572 36.2245 65.8397 36.8187 66.9761C36.8961 67.1249 37.0134 67.2493 37.1575 67.3353L52.0682 75.9518C52.3835 76.1349 52.7416 76.2314 53.1063 76.2314C53.4709 76.2314 53.829 76.1349 54.1444 75.9518L68.9578 67.3443C69.1047 67.2601 69.2215 67.1321 69.2922 66.9783C69.8819 65.8419 69.7395 64.0595 69.3148 63.2755Z" fill="#BA68C8"/>
<path opacity="0.3" d="M69.3148 63.2755C69.2469 63.0977 69.1201 62.9486 68.9556 62.853L54.045 54.2388C53.7291 54.0561 53.3706 53.96 53.0057 53.96C52.6408 53.96 52.2824 54.0561 51.9665 54.2388L37.153 62.8485C36.9877 62.9442 36.8607 63.0943 36.7938 63.2733C36.3691 64.0572 36.2245 65.8397 36.8187 66.9761C36.8961 67.1249 37.0134 67.2493 37.1575 67.3353L52.0682 75.9518C52.3835 76.1349 52.7416 76.2314 53.1063 76.2314C53.4709 76.2314 53.829 76.1349 54.1444 75.9518L68.9578 67.3443C69.1047 67.2601 69.2215 67.1321 69.2922 66.9783C69.8819 65.8419 69.7395 64.0595 69.3148 63.2755Z" fill="black"/>
<path opacity="0.3" d="M69.3148 63.2752C69.3852 63.4591 69.3877 63.662 69.3219 63.8475C69.256 64.0331 69.1261 64.189 68.9556 64.2873L54.1421 72.8971C53.8268 73.0802 53.4686 73.1766 53.104 73.1766C52.7394 73.1766 52.3812 73.0802 52.0659 72.8971L37.1553 64.2828C36.9848 64.1849 36.8548 64.0295 36.7886 63.8444C36.7224 63.6594 36.7242 63.4568 36.7938 63.2729C36.3691 64.0569 36.2245 65.8394 36.8187 66.9758C36.8961 67.1246 37.0134 67.249 37.1575 67.335L52.0682 75.9515C52.3835 76.1346 52.7416 76.2311 53.1063 76.2311C53.4709 76.2311 53.829 76.1346 54.1444 75.9515L68.9578 67.344C69.1047 67.2598 69.2215 67.1318 69.2922 66.978C69.8819 65.8416 69.7395 64.0591 69.3148 63.2752Z" fill="black"/>
<path d="M70.5483 46.9028L56.4397 38.7698C56.3148 38.6965 56.1732 38.6568 56.0285 38.6545H55.9584C54.6684 38.6681 53.6586 39.4362 52.9085 40.3376L52.8792 40.3738C52.8042 40.4668 52.7495 40.5746 52.7188 40.6901L48.6703 55.7656C48.5558 56.1926 48.5854 56.6455 48.7545 57.0539C48.9237 57.4624 49.2228 57.8037 49.6056 58.0248L63.712 66.1624C63.862 66.2504 64.0356 66.2899 64.209 66.2753C65.8221 66.1104 66.7732 65.1119 67.2499 64.5855C67.3403 64.4844 67.406 64.3638 67.4419 64.233L71.4881 49.1575C71.6015 48.7306 71.5708 48.2783 71.4009 47.8706C71.231 47.463 70.9313 47.1228 70.5483 46.9028Z" fill="#BA68C8"/>
<path opacity="0.2" d="M70.5483 46.9028L56.4397 38.7698C56.3148 38.6965 56.1732 38.6568 56.0285 38.6545H55.9584C54.6684 38.6681 53.6586 39.4362 52.9085 40.3376L52.8792 40.3738C52.8042 40.4668 52.7495 40.5746 52.7188 40.6901L48.6703 55.7656C48.5558 56.1926 48.5854 56.6455 48.7545 57.0539C48.9237 57.4624 49.2228 57.8037 49.6056 58.0248L63.712 66.1624C63.862 66.2504 64.0356 66.2899 64.209 66.2753C65.8221 66.1104 66.7732 65.1119 67.2499 64.5855C67.3403 64.4844 67.406 64.3638 67.4419 64.233L71.4881 49.1575C71.6015 48.7306 71.5708 48.2783 71.4009 47.8706C71.231 47.463 70.9313 47.1228 70.5483 46.9028Z" fill="black"/>
<path opacity="0.1" d="M70.5483 46.9028L56.4397 38.7698C56.3142 38.6962 56.1717 38.6565 56.0262 38.6545H55.9585C54.6685 38.6681 53.6586 39.4362 52.9086 40.3376C53.0409 40.1942 53.2183 40.1001 53.4113 40.0709C53.6043 40.0418 53.8015 40.0793 53.9704 40.1772L68.079 48.3216C68.4809 48.5538 68.7893 48.9189 68.951 49.354L71.4158 47.9308C71.2539 47.4983 70.9474 47.1351 70.5483 46.9028Z" fill="black"/>
<path opacity="0.2" d="M68.951 49.3428C69.099 49.7345 69.1203 50.1628 69.0119 50.5673L64.9657 65.6428C64.9195 65.8143 64.8213 65.9672 64.6845 66.0805C64.5477 66.1938 64.3792 66.2619 64.2021 66.2754C65.8152 66.1105 66.7663 65.1119 67.243 64.5855C67.3334 64.4845 67.3991 64.3638 67.435 64.2331L71.4812 49.1575C71.5905 48.7475 71.5676 48.3135 71.4157 47.9172L68.951 49.3428Z" fill="black"/>
<path d="M43.4357 89.4591C44.231 88.9259 44.8229 88.0539 45.539 87.4258C45.9635 87.0512 46.4446 86.7461 46.9646 86.5221L47.0143 86.0861L47.1724 82.3291H43.5871L43.5306 85.0672C43.5213 85.4508 43.3995 85.8231 43.1804 86.1381C42.8416 86.6283 42.5411 87.0892 42.3378 87.41C42.9164 87.509 43.4605 87.7531 43.9192 88.1194C43.8137 88.5841 43.6513 89.0341 43.4357 89.4591Z" fill="#FFA8A7"/>
<path d="M47.1565 86.1722L47.0141 86.0728L46.9644 86.5088C46.4445 86.7328 45.9633 87.0378 45.5389 87.4124C44.8227 88.0495 44.2308 88.9216 43.4356 89.4457C43.6516 89.0156 43.8133 88.5603 43.9168 88.0902C43.4581 87.7239 42.914 87.4798 42.3354 87.3808C42.1712 87.3511 42.0051 87.3337 41.8384 87.3289C40.888 88.5946 39.6992 89.6622 38.3389 90.4714C38.2436 90.5261 38.1646 90.6051 38.1098 90.7004C38.055 90.7956 38.0265 90.9037 38.0271 91.0136V91.3638C38.6055 92.3352 39.5905 92.4934 41.6667 92.4934C43.7428 92.4934 45.017 89.9834 45.5073 89.4412C45.9975 88.899 46.8334 88.8922 47.2807 88.1444C47.2785 88.1602 47.3734 86.8296 47.1565 86.1722Z" fill="#455A64"/>
<path d="M33.9788 84.715C34.774 84.1818 35.3659 83.3098 36.0821 82.6817C36.5061 82.3066 36.9874 82.0015 37.5076 81.7781L37.5573 81.342L37.7155 77.585L34.1595 76.1753L34.0714 80.3232C34.0639 80.7067 33.9428 81.0793 33.7235 81.394C33.3846 81.8842 33.0841 82.3451 32.8785 82.6659C33.4571 82.7653 34.0011 83.0093 34.46 83.3753C34.3552 83.8399 34.1936 84.2899 33.9788 84.715Z" fill="#FFA8A7"/>
<path d="M37.6975 81.4212L37.5574 81.3218L37.5077 81.7578C36.9875 81.9813 36.5062 82.2863 36.0822 82.6615C35.366 83.2986 34.7741 84.1706 33.9789 84.6947C34.1949 84.2646 34.3565 83.8093 34.4601 83.3392C34.0012 82.9732 33.4572 82.7292 32.8786 82.6298C32.7145 82.6 32.5484 82.5827 32.3816 82.5779C31.4325 83.8448 30.2434 84.9125 28.8821 85.7204C28.7876 85.7758 28.7093 85.855 28.6549 85.9502C28.6006 86.0453 28.5722 86.1531 28.5726 86.2626V86.6128C29.151 87.5842 30.136 87.7424 32.2122 87.7424C34.2884 87.7424 35.5603 85.2324 36.0528 84.6902C36.5453 84.148 37.3812 84.1412 37.8263 83.3934C37.8195 83.4093 37.9166 82.0786 37.6975 81.4212Z" fill="#455A64"/>
<path d="M44.6242 58.1582C39.4755 60.0491 35.0091 61.8361 34.3788 67.4593C33.7485 73.0824 33.7756 76.0238 33.7756 76.0238C36.9384 83.5808 47.1883 84.5387 49.1177 81.6718C49.1177 81.6718 49.6689 74.2955 49.3798 72.5628C53.8981 70.1183 57.7749 67.9269 58.8841 66.9984C60.565 58.5535 48.5597 57.2093 44.6242 58.1582Z" fill="#BA68C8"/>
<path opacity="0.2" d="M44.6242 58.1582C39.4755 60.0491 35.0091 61.8361 34.3788 67.4593C33.7485 73.0824 33.7756 76.0238 33.7756 76.0238C36.9384 83.5808 47.1883 84.5387 49.1177 81.6718C49.1177 81.6718 49.6689 74.2955 49.3798 72.5628C53.8981 70.1183 57.7749 67.9269 58.8841 66.9984C60.565 58.5535 48.5597 57.2093 44.6242 58.1582Z" fill="white"/>
<path d="M48.2546 41.8965L47.9248 41.9439C47.0869 42.0664 46.3006 42.4229 45.6563 42.9725C45.0121 43.522 44.536 44.2422 44.283 45.0503L42.2904 51.4144L41.4974 51.7465C41.0146 51.9487 40.5895 52.2676 40.2603 52.6745C39.931 53.0814 39.7079 53.5636 39.611 54.078L41.6442 56.6422L45.7108 54.6473L48.2546 41.8965Z" fill="#455A64"/>
<path d="M58.8841 66.9915C58.2063 65.2113 56.5345 63.9733 54.7836 63.2164C53.0328 62.4596 51.1373 62.0868 49.339 61.4497C47.5407 60.8127 45.3267 59.6944 44.3101 58.079L44.3937 58.009C44.8571 57.6157 45.1757 57.0787 45.2985 56.4834C45.4213 55.888 45.3414 55.2688 45.0714 54.7242C44.8346 54.2339 44.7067 53.6983 44.6964 53.154C44.667 52.1464 44.9607 51.1592 45.2521 50.1945C45.9615 47.8449 46.6671 45.4954 47.369 43.1458C51.4107 41.2278 53.6495 41.5396 56.1798 41.8513C58.7101 42.1631 61.6019 43.6587 62.6321 48.6289C63.6622 53.5991 64.6156 65.2565 58.8841 66.9915Z" fill="#455A64"/>
<path opacity="0.2" d="M58.8841 66.9915C58.2063 65.2113 56.5345 63.9733 54.7836 63.2164C53.0328 62.4596 51.1373 62.0868 49.339 61.4497C47.5407 60.8127 45.3267 59.6944 44.3101 58.079L44.3937 58.009C44.8571 57.6157 45.1757 57.0787 45.2985 56.4834C45.4213 55.888 45.3414 55.2688 45.0714 54.7242C44.8346 54.2339 44.7067 53.6983 44.6964 53.154C44.667 52.1464 44.9607 51.1592 45.2521 50.1945C45.9615 47.8449 46.6671 45.4954 47.369 43.1458C51.4107 41.2278 53.6495 41.5396 56.1798 41.8513C58.7101 42.1631 61.6019 43.6587 62.6321 48.6289C63.6622 53.5991 64.6156 65.2565 58.8841 66.9915Z" fill="white"/>
<path d="M49.6348 43.0941C49.7101 43.6634 49.7854 44.2327 49.8607 44.802C50.2515 45.0289 50.687 45.1682 51.137 45.2104C51.5869 45.2525 52.0407 45.1964 52.4669 45.0461C52.8931 44.8957 53.2815 44.6546 53.6054 44.3394C53.9293 44.0242 54.181 43.6425 54.3429 43.2206C54.0723 42.7229 53.8702 42.1909 53.742 41.6392C52.4949 42.2153 50.9767 42.832 49.6348 43.0941Z" fill="#FFA8A7"/>
<path opacity="0.2" d="M49.6348 43.0937C49.7101 43.663 49.7854 44.2323 49.8607 44.8016C52.7683 44.3498 54.0899 43.3964 53.8572 42.0748C53.8143 41.937 53.7759 41.7947 53.742 41.6523C52.4949 42.2149 50.9767 42.8316 49.6348 43.0937Z" fill="black"/>
<path d="M55.4275 32.3765C55.7274 32.1426 56.0845 31.9935 56.4616 31.9446C56.8387 31.8958 57.222 31.9489 57.5715 32.0986C57.9184 32.2545 58.2274 32.4837 58.4774 32.7703C58.7273 33.0569 58.9123 33.3942 59.0197 33.7591C59.1951 34.3076 59.1832 34.8989 58.9858 35.4399C58.8862 35.7087 58.7318 35.9538 58.5322 36.1596C58.3327 36.3654 58.0924 36.5273 57.8268 36.635C57.4881 36.751 57.1257 36.7801 56.7729 36.7197C56.42 36.6593 56.0879 36.5114 55.8071 36.2894C54.734 35.4648 54.2731 33.3389 55.4275 32.3765Z" fill="#F5F5F5"/>
<path d="M56.2566 35.1937C56.3047 34.7413 56.2024 34.2857 55.9656 33.8973C55.7287 33.509 55.3705 33.2095 54.9463 33.0452C54.4945 34.107 54.9463 35.6184 55.8183 36.2894C56.0832 36.4962 56.3926 36.6385 56.722 36.7048C57.0515 36.7711 57.3918 36.7595 57.7161 36.6712C57.3941 36.0396 56.8842 35.5234 56.2566 35.1937Z" fill="#E0E0E0"/>
<path d="M46.2686 38.6073C46.0243 38.5221 45.8115 38.3649 45.6582 38.1564C45.505 37.9479 45.4185 37.6979 45.4101 37.4393C45.4033 36.9181 45.5846 36.412 45.9207 36.0137C45.7199 35.7967 45.5803 35.5304 45.516 35.2419C45.4517 34.9534 45.465 34.653 45.5547 34.3713C45.7686 33.8206 46.1681 33.3619 46.6843 33.0745C47.1946 32.7903 47.7454 32.5861 48.3177 32.4691C49.8132 32.1121 51.4082 31.9788 52.8699 32.4691C54.3316 32.9593 55.6216 34.1363 55.8972 35.6477C56.2724 35.85 56.5967 36.1349 56.8456 36.4809C57.0945 36.8268 57.2615 37.2248 57.3341 37.6448C57.4522 38.4915 57.3749 39.3539 57.1082 40.1661C56.8822 40.932 56.5727 41.7069 55.9786 42.231C55.3844 42.7551 54.431 42.9517 53.7713 42.5044C53.4188 42.2416 53.1669 41.8661 53.0574 41.4403C52.9498 41.0184 52.8914 40.5856 52.8835 40.1503C51.0151 38.8716 48.4351 39.2105 46.2686 38.6073Z" fill="#F5F5F5"/>
<path d="M54.1037 41.7907C54.1098 42.0592 54.0514 42.3253 53.9335 42.5667C53.8156 42.808 53.6415 43.0176 53.4259 43.1778C52.9891 43.4911 52.5047 43.7322 51.9913 43.8917C51.3174 44.1669 50.6161 44.3698 49.8993 44.4972C49.1763 44.6232 48.432 44.5139 47.7757 44.1854C46.9759 43.7336 46.4654 42.8932 46.2304 42.0098C45.9955 41.1265 46.0045 40.2025 46.0045 39.2852C45.9895 38.6663 46.0349 38.0474 46.14 37.4372C46.2481 36.8244 46.5305 36.2558 46.9534 35.7993C47.0008 36.2173 47.5475 36.459 47.9655 36.5064C48.3876 36.5258 48.8079 36.4388 49.1877 36.2534C49.5652 36.0662 49.9715 35.944 50.3896 35.8919C51.1667 35.8513 51.8897 36.3641 52.3076 37.0215C52.7256 37.679 52.895 38.4584 53.0351 39.222C53.0541 39.4139 53.1175 39.5988 53.2203 39.7619C53.2735 39.842 53.3524 39.9015 53.444 39.9307C53.5356 39.9598 53.6344 39.9569 53.7241 39.9223C53.8619 39.8523 53.9229 39.6964 54.0043 39.5631C54.3499 39.0074 55.2174 38.9147 55.7167 39.3372C55.9567 39.5603 56.1117 39.8597 56.1554 40.1844C56.1991 40.5091 56.1287 40.8389 55.9562 41.1174C55.6106 41.6619 54.7498 41.8788 54.1037 41.7907Z" fill="#FFA8A7"/>
<path d="M49.0025 39.3708L47.5046 41.0268L48.7879 41.5464L49.0025 39.3708Z" fill="#F28F8F"/>
<path d="M49.9421 42.4546L48.8284 42.7438C48.8924 42.8762 48.9978 42.9842 49.1286 43.0514C49.2595 43.1186 49.4086 43.1415 49.5536 43.1165C49.8247 43.0555 49.9625 42.7325 49.9421 42.4546Z" fill="#F28F8F"/>
<path opacity="0.3" d="M49.9421 42.4546L48.8284 42.7438C48.8924 42.8762 48.9978 42.9842 49.1286 43.0514C49.2595 43.1186 49.4086 43.1415 49.5536 43.1165C49.8247 43.0555 49.9625 42.7325 49.9421 42.4546Z" fill="black"/>
<path d="M49.1943 43.078C49.3073 43.1272 49.4327 43.1406 49.5535 43.1164C49.657 43.0829 49.7482 43.0195 49.8158 42.9343C49.8833 42.8491 49.9241 42.7458 49.9331 42.6374C49.7875 42.6066 49.6358 42.6274 49.5038 42.6962C49.3547 42.7781 49.2436 42.9151 49.1943 43.078Z" fill="#F28F8F"/>
<path d="M50.9203 39.834C50.9129 39.9109 50.8828 39.9838 50.8339 40.0436C50.7849 40.1034 50.7194 40.1473 50.6455 40.1699C50.5717 40.1925 50.4928 40.1926 50.4188 40.1704C50.3448 40.1481 50.2791 40.1045 50.2299 40.0449C50.1807 39.9853 50.1503 39.9125 50.1425 39.8357C50.1347 39.7588 50.1498 39.6814 50.186 39.6131C50.2221 39.5449 50.2777 39.4889 50.3457 39.4522C50.4137 39.4155 50.491 39.3998 50.5679 39.407C50.6711 39.4173 50.766 39.4679 50.832 39.5479C50.8981 39.6279 50.9298 39.7307 50.9203 39.834Z" fill="#263238"/>
<path d="M47.6717 39.3867C47.6637 39.4635 47.6332 39.5363 47.5839 39.5957C47.5346 39.6552 47.4689 39.6988 47.3949 39.7209C47.3209 39.743 47.242 39.7427 47.1682 39.72C47.0944 39.6973 47.0289 39.6533 46.9801 39.5935C46.9313 39.5336 46.9013 39.4607 46.8939 39.3838C46.8865 39.3069 46.902 39.2296 46.9386 39.1615C46.9751 39.0935 47.031 39.0378 47.0991 39.0015C47.1673 38.9652 47.2447 38.9499 47.3215 38.9575C47.3727 38.9626 47.4224 38.9777 47.4678 39.002C47.5131 39.0264 47.5532 39.0595 47.5858 39.0993C47.6183 39.1392 47.6427 39.1851 47.6574 39.2345C47.6721 39.2838 47.677 39.3355 47.6717 39.3867Z" fill="#263238"/>
<path d="M47.4457 37.8005L46.5262 38.3111C46.4989 38.2008 46.506 38.0849 46.5463 37.9787C46.5867 37.8725 46.6585 37.7812 46.7522 37.7169C46.8641 37.6648 46.9883 37.645 47.1109 37.6598C47.2334 37.6746 47.3494 37.7233 47.4457 37.8005Z" fill="#263238"/>
<path d="M50.776 38.0829L51.5803 38.7606C51.6282 38.6573 51.6434 38.5419 51.6241 38.4297C51.6047 38.3175 51.5516 38.2138 51.4718 38.1326C51.3719 38.0606 51.2538 38.0178 51.131 38.009C51.0081 38.0002 50.8852 38.0258 50.776 38.0829Z" fill="#263238"/>
<path d="M48.9482 38.9597C48.79 38.9597 48.5957 38.9258 48.4376 38.9235C48.0226 38.583 47.5406 38.3338 47.0229 38.1921C46.5052 38.0505 45.9634 38.0195 45.4329 38.1012L45.3606 38.5281L45.5865 38.6614L45.6724 39.791C45.686 39.9693 45.749 40.1402 45.8544 40.2847C45.9597 40.4291 46.1032 40.5414 46.2688 40.6089L46.5783 40.7354C46.8304 40.8388 47.1104 40.8526 47.3715 40.7745C47.6326 40.6964 47.859 40.5311 48.0129 40.3061C48.1848 40.0639 48.3104 39.792 48.3834 39.5041C48.3916 39.4614 48.4153 39.4233 48.4499 39.397C48.4845 39.3708 48.5276 39.3582 48.5709 39.3618L48.7516 39.3776C48.792 39.3826 48.8295 39.4012 48.8578 39.4304C48.8862 39.4595 48.9037 39.4975 48.9075 39.538C48.952 39.9456 49.065 40.3428 49.2419 40.7128C49.3294 40.9002 49.4646 41.0614 49.6338 41.1803C49.8031 41.2992 50.0006 41.3717 50.2065 41.3905L50.5319 41.4199C50.7903 41.4425 51.049 41.3796 51.2682 41.2408C51.4874 41.102 51.6549 40.8951 51.7451 40.6518C51.8997 40.2527 51.9853 39.8302 51.9981 39.4024H52.2443L52.2918 39.0884C51.4988 38.6637 49.6463 38.5304 48.9482 38.9597ZM48.0807 39.4318C48.0169 39.6817 47.9074 39.9177 47.7576 40.1276C47.6777 40.2451 47.5702 40.3411 47.4446 40.4073C47.3189 40.4734 47.1789 40.5078 47.0369 40.5072C46.9216 40.507 46.8073 40.4848 46.7003 40.4417L46.393 40.3152C46.2814 40.2697 46.1846 40.1941 46.1136 40.0967C46.0426 39.9993 46.0001 39.8841 45.9909 39.7639C45.9909 39.7639 45.8825 38.422 45.8734 38.37H46.0158C46.7923 38.3512 47.5501 38.61 48.1529 39.0997C48.1386 39.2123 48.1144 39.3234 48.0807 39.4318ZM51.4536 40.5433C51.3917 40.7087 51.281 40.8512 51.1361 40.9521C50.9912 41.053 50.8191 41.1074 50.6426 41.1081H50.5635L50.2382 41.0788C50.0874 41.0639 49.9432 41.0101 49.8196 40.9225C49.696 40.835 49.5973 40.7168 49.5333 40.5795C49.3696 40.2431 49.2656 39.8807 49.2261 39.5086C49.2261 39.4024 49.1944 39.3256 49.1899 39.1901C49.5424 39.0571 49.9183 38.9971 50.2947 39.0139C50.7628 39.0127 51.2292 39.0727 51.6818 39.1923V39.4183C51.6689 39.8034 51.5918 40.1836 51.4536 40.5433Z" fill="#37474F"/>
<path d="M52.2962 39.0793L54.1262 39.3956C54.062 39.476 54.0031 39.5606 53.9499 39.6487L52.2488 39.3934L52.2962 39.0793Z" fill="#37474F"/>
<path d="M70.2389 53.791L55.3554 65.3129C54.9016 65.6643 54.5248 66.105 54.2481 66.6079C53.9714 67.1107 53.8008 67.6649 53.7468 68.2362L52.0773 85.7314C52.1691 85.8174 52.2871 85.8701 52.4124 85.8812C52.5377 85.8922 52.6631 85.861 52.7686 85.7924L55.7349 68.234C55.7851 67.9345 55.8998 67.6494 56.0711 67.3986C56.2423 67.1478 56.466 66.9372 56.7267 66.7813L69.8796 58.899C71.5966 57.8756 71.8994 54.2519 70.2389 53.791Z" fill="#455A64"/>
<path opacity="0.3" d="M70.2389 53.791L55.3554 65.3129C54.9016 65.6643 54.5248 66.105 54.2481 66.6079C53.9714 67.1107 53.8008 67.6649 53.7468 68.2362L52.0773 85.7314C52.1691 85.8174 52.2871 85.8701 52.4124 85.8812C52.5377 85.8922 52.6631 85.861 52.7686 85.7924L55.7349 68.234C55.7851 67.9345 55.8998 67.6494 56.0711 67.3986C56.2423 67.1478 56.466 66.9372 56.7267 66.7813L69.8796 58.899C71.5966 57.8756 71.8994 54.2519 70.2389 53.791Z" fill="white"/>
<path d="M52.0928 51.0304C52.1557 50.9944 52.2072 50.9415 52.2416 50.8777C52.276 50.814 52.2919 50.7419 52.2875 50.6695C52.2831 50.5972 52.2585 50.5276 52.2166 50.4685C52.1747 50.4094 52.1171 50.3632 52.0503 50.3351C51.9835 50.307 51.9102 50.2981 51.8386 50.3095C51.7671 50.3209 51.7001 50.352 51.6454 50.3994C51.5906 50.4468 51.5501 50.5086 51.5286 50.5778C51.5071 50.647 51.5053 50.7208 51.5235 50.7909L44.5946 54.81L44.6985 54.9908L51.6297 50.9717C51.6901 51.0303 51.7679 51.0678 51.8515 51.0783C51.935 51.0889 52.0197 51.0721 52.0928 51.0304Z" fill="#E0E0E0"/>
<path d="M40.4965 47.6328C40.4776 47.5856 40.4683 47.5352 40.4689 47.4844C40.4696 47.4336 40.4802 47.3835 40.5002 47.3368C40.5203 47.2901 40.5493 47.2478 40.5857 47.2124C40.622 47.1769 40.665 47.149 40.7122 47.1301C40.7594 47.1113 40.8098 47.1019 40.8606 47.1026C40.9114 47.1032 40.9616 47.1139 41.0082 47.1339C41.0549 47.1539 41.0972 47.183 41.1326 47.2193C41.1681 47.2557 41.196 47.2987 41.2149 47.3459C41.2473 47.4243 41.2527 47.5113 41.2302 47.5931C41.2077 47.6749 41.1586 47.7469 41.0906 47.7977L44.075 55.2327L43.8785 55.3095L40.8941 47.8723C40.8108 47.8808 40.727 47.8621 40.6553 47.8189C40.5836 47.7757 40.5278 47.7104 40.4965 47.6328Z" fill="#E0E0E0"/>
<path d="M40.4175 54.3449C40.7143 55.8289 40.675 57.3605 40.3024 58.8273C39.9298 60.2941 39.2335 61.6589 38.2645 62.8214L46.07 67.3194C48.8804 63.0654 48.5393 55.9738 48.5393 55.9738L42.7332 52.5127L40.4175 54.3449Z" fill="#455A64"/>
<path opacity="0.6" d="M40.4175 54.3449C40.7143 55.8289 40.675 57.3605 40.3024 58.8273C39.9298 60.2941 39.2335 61.6589 38.2645 62.8214L46.07 67.3194C48.8804 63.0654 48.5393 55.9738 48.5393 55.9738L42.7332 52.5127L40.4175 54.3449Z" fill="white"/>
<path d="M38.4092 62.6291L46.1898 67.1204C46.2463 67.03 46.3028 66.9374 46.357 66.8448L38.6125 62.3716C38.556 62.4597 38.486 62.5433 38.4092 62.6291Z" fill="#BA68C8"/>
<path d="M45.0399 65.1955L44.3124 63.7767L43.5782 64.3505L42.8485 62.9318L42.1142 63.5056L41.3845 62.0868L40.6503 62.6607L39.9228 61.2441L39.1886 61.8157L39.105 61.6553C39.0508 61.7434 38.9988 61.8315 38.9401 61.9174L39.1863 62.3963L39.9205 61.8225L40.6503 63.2413L41.3845 62.6674L42.112 64.0862L42.8462 63.5124L43.5759 64.9289L44.3101 64.355L45.0376 65.7738L45.7718 65.2L46.497 66.612C46.549 66.5171 46.5987 66.4199 46.6484 66.3228L45.7741 64.6216L45.0399 65.1955Z" fill="#BA68C8"/>
<path d="M39.5386 60.9008L47.1204 65.2859C47.1611 65.1842 47.1995 65.0826 47.2379 64.9809L39.6673 60.6094C39.6222 60.7065 39.577 60.8037 39.5386 60.9008Z" fill="#BA68C8"/>
<path d="M46.0201 63.393L45.2904 61.9743L44.5561 62.5481L43.8309 61.1293L43.0967 61.7032L42.367 60.2844L41.6328 60.8582L40.894 59.4395L40.1598 60.0133L40.0152 59.7332C39.9745 59.8461 39.9339 59.9591 39.8887 60.0698L40.1575 60.5939L40.8918 60.0201L41.6192 61.4388L42.3534 60.865L43.0832 62.2815L43.8174 61.7077L44.5471 63.1264L45.2813 62.5526L46.0088 63.9714L46.743 63.3975L47.3643 64.6062C47.405 64.4887 47.4434 64.3803 47.4818 64.2538L46.7453 62.8192L46.0201 63.393Z" fill="#BA68C8"/>
<path d="M40.3046 58.8176L47.8051 63.1485C47.8322 63.0378 47.8593 62.9226 47.8841 62.8209L40.3791 58.4878C40.3543 58.5985 40.3317 58.7092 40.3046 58.8176Z" fill="#BA68C8"/>
<path d="M46.9036 61.3705L46.1738 59.9517L45.4396 60.5256L44.7121 59.1068L43.9779 59.6806L43.2482 58.2641L42.514 58.838L41.7978 57.4192L41.0636 57.993L40.5982 57.0894C40.5982 57.252 40.5688 57.4147 40.5485 57.5751L41.0613 58.5736L41.7955 57.9998L42.5252 59.4186L43.2595 58.8447L43.9869 60.2635L44.7212 59.6897L45.4509 61.1084L46.1851 60.5346L46.9126 61.9511L47.6468 61.3795L48.0422 62.1477C48.0715 62.0053 48.0987 61.863 48.1235 61.7229L47.6491 60.7989L46.9036 61.3705Z" fill="#BA68C8"/>
<path d="M40.6139 56.4346L48.2545 60.8445C48.2725 60.7293 48.2883 60.6186 48.3042 60.4989L40.6229 56.0596C40.6184 56.1838 40.6162 56.3081 40.6139 56.4346Z" fill="#BA68C8"/>
<path d="M47.299 59.0368L46.5716 57.618L45.8373 58.1919L45.1076 56.7731L44.3734 57.3469L43.6459 55.9281L42.9094 56.502L42.182 55.0832L41.4477 55.657L40.718 54.2383L40.4379 54.4642C40.4718 54.6336 40.5011 54.8031 40.5237 54.9748L40.718 54.8234L41.4455 56.2422L42.1797 55.6683L42.9094 57.0849L43.6437 56.511L44.3711 57.9298L45.1053 57.356L45.8351 58.7747L46.5693 58.2009L47.2968 59.6197L48.031 59.0458L48.3925 59.7484C48.4105 59.5812 48.4263 59.4163 48.4399 59.2559L48.0332 58.4675L47.299 59.0368Z" fill="#BA68C8"/>
<path d="M41.2443 53.6919L40.9709 53.9178L48.5099 58.2713C48.5099 58.1448 48.5099 58.025 48.5257 57.9075L41.2443 53.6919Z" fill="#BA68C8"/>
<path d="M42.5117 53.1246L43.2414 54.5433L43.9757 53.9695L44.7031 55.3883L45.4373 54.8144L46.1671 56.231L46.9013 55.6571L47.6288 57.0759L48.363 56.5021L48.5505 56.868C48.5505 56.6263 48.5505 56.4275 48.5505 56.2784L48.3675 55.9237L47.6333 56.4975L46.9036 55.0788L46.1693 55.6526L45.4419 54.2338L44.7076 54.8077L43.9779 53.3889L43.2437 53.9627L42.5659 52.6501L41.6216 53.3957L41.7775 53.6984L42.5117 53.1246Z" fill="#BA68C8"/>
<g opacity="0.5">
<path opacity="0.5" d="M38.4092 62.6291L46.1898 67.1204C46.2463 67.03 46.3028 66.9374 46.357 66.8448L38.6125 62.3716C38.556 62.4597 38.486 62.5433 38.4092 62.6291Z" fill="black"/>
<path opacity="0.5" d="M45.0399 65.1955L44.3124 63.7767L43.5782 64.3505L42.8485 62.9318L42.1142 63.5056L41.3845 62.0868L40.6503 62.6607L39.9228 61.2441L39.1886 61.8157L39.105 61.6553C39.0508 61.7434 38.9988 61.8315 38.9401 61.9174L39.1863 62.3963L39.9205 61.8225L40.6503 63.2413L41.3845 62.6674L42.112 64.0862L42.8462 63.5124L43.5759 64.9289L44.3101 64.355L45.0376 65.7738L45.7718 65.2L46.497 66.612C46.549 66.5171 46.5987 66.4199 46.6484 66.3228L45.7741 64.6216L45.0399 65.1955Z" fill="black"/>
<path opacity="0.5" d="M39.5387 60.9008L47.1205 65.2859C47.1612 65.1842 47.1996 65.0826 47.238 64.9809L39.6675 60.6094C39.6223 60.7065 39.5771 60.8037 39.5387 60.9008Z" fill="black"/>
<path opacity="0.5" d="M46.0202 63.393L45.2905 61.9743L44.5563 62.5481L43.8311 61.1293L43.0968 61.7032L42.3671 60.2844L41.6329 60.8582L40.8941 59.4395L40.1599 60.0133L40.0153 59.7332C39.9746 59.8461 39.934 59.9591 39.8888 60.0698L40.1576 60.5939L40.8919 60.0201L41.6193 61.4388L42.3536 60.865L43.0833 62.2815L43.8175 61.7077L44.5472 63.1264L45.2815 62.5526L46.0089 63.9714L46.7432 63.3975L47.3644 64.6062C47.4051 64.4887 47.4435 64.3803 47.4819 64.2538L46.7454 62.8192L46.0202 63.393Z" fill="black"/>
<path opacity="0.5" d="M40.3046 58.8176L47.8051 63.1485C47.8322 63.0378 47.8593 62.9226 47.8841 62.8209L40.3791 58.4878C40.3543 58.5985 40.3317 58.7092 40.3046 58.8176Z" fill="black"/>
<path opacity="0.5" d="M46.9037 61.3705L46.174 59.9517L45.4397 60.5256L44.7123 59.1068L43.978 59.6806L43.2483 58.2641L42.5141 58.838L41.7979 57.4192L41.0637 57.993L40.5983 57.0894C40.5983 57.252 40.5689 57.4147 40.5486 57.5751L41.0614 58.5736L41.7957 57.9998L42.5254 59.4186L43.2596 58.8447L43.9871 60.2635L44.7213 59.6897L45.451 61.1084L46.1853 60.5346L46.9127 61.9511L47.6469 61.3795L48.0423 62.1477C48.0717 62.0053 48.0988 61.863 48.1236 61.7229L47.6492 60.7989L46.9037 61.3705Z" fill="black"/>
<path opacity="0.5" d="M40.6139 56.4346L48.2545 60.8445C48.2725 60.7293 48.2883 60.6186 48.3042 60.4989L40.6229 56.0596C40.6184 56.1838 40.6162 56.3081 40.6139 56.4346Z" fill="black"/>
<path opacity="0.5" d="M47.299 59.0373L46.5716 57.6185L45.8373 58.1923L45.1076 56.7736L44.3734 57.3474L43.6459 55.9286L42.9094 56.5025L42.182 55.0837L41.4477 55.6575L40.718 54.2388L40.4379 54.4647C40.4718 54.6341 40.5011 54.8036 40.5237 54.9753L40.718 54.8239L41.4455 56.2427L42.1797 55.6688L42.9094 57.0853L43.6437 56.5115L44.3711 57.9303L45.1053 57.3564L45.8351 58.7752L46.5693 58.2014L47.2968 59.6201L48.031 59.0463L48.3925 59.7489C48.4105 59.5817 48.4263 59.4168 48.4399 59.2564L48.0332 58.468L47.299 59.0373Z" fill="black"/>
<path opacity="0.5" d="M41.2444 53.6919L40.9711 53.9178L48.51 58.2713C48.51 58.1448 48.51 58.025 48.5258 57.9075L41.2444 53.6919Z" fill="black"/>
<path opacity="0.5" d="M42.5117 53.1246L43.2414 54.5433L43.9757 53.9695L44.7031 55.3883L45.4373 54.8144L46.1671 56.231L46.9013 55.6571L47.6288 57.0759L48.363 56.5021L48.5505 56.868C48.5505 56.6263 48.5505 56.4275 48.5505 56.2784L48.3675 55.9237L47.6333 56.4975L46.9036 55.0788L46.1693 55.6526L45.4419 54.2338L44.7076 54.8077L43.9779 53.3889L43.2437 53.9627L42.5659 52.6501L41.6216 53.3957L41.7775 53.6984L42.5117 53.1246Z" fill="black"/>
</g>
<path d="M43.1963 53.7391L42.697 51.9995C42.6777 51.9247 42.6401 51.8558 42.5877 51.799C42.5353 51.7422 42.4696 51.6994 42.3965 51.6742L42.3265 51.6516C42.2568 51.6272 42.1823 51.6198 42.1091 51.6299C42.0359 51.64 41.9662 51.6674 41.9058 51.7097C41.8453 51.7521 41.7957 51.8083 41.7613 51.8736C41.7268 51.9389 41.7083 52.0115 41.7075 52.0854L41.3098 51.9475C41.184 51.9044 41.0476 51.9031 40.921 51.9438C40.7944 51.9845 40.6843 52.0651 40.6072 52.1735L40.4717 52.361L40.0718 52.3339C39.9519 52.3261 39.8324 52.3536 39.728 52.413C39.6236 52.4725 39.5389 52.5612 39.4844 52.6682L39.3466 52.9371C39.1899 52.9356 39.0386 52.9943 38.9239 53.101C38.8091 53.2078 38.7397 53.3545 38.7299 53.5109V53.538L39.5658 54.9884C39.643 55.1233 39.7675 55.2248 39.9152 55.2732C40.063 55.3216 40.2234 55.3135 40.3655 55.2505L41.904 54.5727C42.0356 54.5147 42.1433 54.4133 42.2091 54.2854C42.2749 54.1575 42.2948 54.0109 42.2655 53.8701L42.1842 53.468L42.3897 54.0147C42.4315 54.1132 42.5087 54.1924 42.606 54.2367C42.7034 54.281 42.8138 54.2871 42.9155 54.2539C43.0172 54.2207 43.1027 54.1505 43.1551 54.0573C43.2075 53.964 43.223 53.8545 43.1985 53.7504L43.1963 53.7391Z" fill="#FFA8A7"/>
<path d="M51.5868 55.1577C50.2313 56.9108 51.7856 58.3545 51.9393 58.4539C54.1736 56.9899 52.4995 55.3452 51.5868 55.1577Z" fill="#37474F"/>
<path d="M52.0432 55.2554L50.3827 54.8939L48.8012 53.4706C48.6611 53.3446 48.4896 53.2585 48.3048 53.2216C48.1199 53.1846 47.9286 53.198 47.7507 53.2605L46.1693 53.8163C46.0089 53.8727 45.8647 53.9673 45.7491 54.0919L44.8657 55.0407C44.7959 55.1128 44.7568 55.2092 44.7568 55.3096C44.7568 55.4099 44.7959 55.5064 44.8657 55.5784C44.9355 55.6493 45.0301 55.6903 45.1296 55.6928C45.229 55.6954 45.3256 55.6592 45.3989 55.592L45.9411 55.104L45.4012 55.8518C45.3221 55.9622 45.2805 56.0951 45.2825 56.2309C45.2845 56.3667 45.3301 56.4983 45.4124 56.6063L46.1422 57.5529C46.1998 57.628 46.2737 57.689 46.3582 57.7316C46.4427 57.7742 46.5357 57.7973 46.6303 57.799C46.7249 57.8007 46.8187 57.7811 46.9047 57.7417C46.9908 57.7022 47.0668 57.6439 47.1272 57.571L47.3712 57.2773C47.5511 57.0582 47.7845 56.8894 48.0489 56.7871L48.3268 56.6809C48.5892 56.9451 48.9183 57.1333 49.279 57.2256C49.6398 57.3179 50.0188 57.3108 50.3759 57.205L52.1832 57.8828C53.306 56.3578 52.0432 55.2554 52.0432 55.2554Z" fill="#FFA8A7"/>
<path d="M58.3646 55.2416L57.235 48.6403C56.5889 44.9239 57.8789 42.4208 59.3202 42.8387C60.7616 43.2567 61.8234 43.0646 62.5441 48.9385C62.8649 51.5524 63.1247 54.1007 63.3167 56.125C63.3651 56.6439 63.2995 57.167 63.1244 57.6579C62.9493 58.1487 62.6689 58.5953 62.303 58.9664C61.9371 59.3374 61.4945 59.624 61.0062 59.806C60.5178 59.988 59.9956 60.0609 59.4761 60.0198L55.4728 59.6922C54.2703 59.5958 53.1105 59.2022 52.0976 58.5468L51.944 58.4474C52.8477 56.3554 51.5916 55.1513 51.5916 55.1513C52.4331 54.7059 53.3934 54.5368 54.3365 54.6678L58.3646 55.2416Z" fill="#455A64"/>
</svg>
